<svg width="43" height="42" viewBox="0 0 43 42" fill="none" xmlns="http://www.w3.org/2000/svg">
<path fill-rule="evenodd" clip-rule="evenodd" d="M20.1644 4.10399C20.1644 3.1375 19.3808 2.354 18.4143 2.354C17.4479 2.354 16.6643 3.1375 16.6643 4.10399V7.88428H8.46041C5.66138 7.88428 3.39233 10.1533 3.39233 12.9524V28.4367C3.39233 31.2357 5.66138 33.5047 8.46041 33.5047H15.8757C16.8422 33.5047 17.6258 32.7213 17.6258 31.7548C17.6258 30.7882 16.8422 30.0048 15.8757 30.0048H8.46041C7.59439 30.0048 6.89233 29.3028 6.89233 28.4367V12.9524C6.89233 12.0863 7.59439 11.3843 8.46041 11.3843H28.3689C29.2349 11.3843 29.937 12.0863 29.937 12.9524V17.476C29.937 18.4426 30.7205 19.2261 31.6869 19.2261C32.6535 19.2261 33.437 18.4426 33.437 17.476V12.9524C33.437 10.1533 31.1679 7.88428 28.3689 7.88428H20.1644V4.10399ZM13.0959 15.9131C14.0624 15.9131 14.8459 16.6967 14.8459 17.6631V19.8858C14.8459 20.8523 14.0624 21.6357 13.0959 21.6357C12.1294 21.6357 11.3459 20.8523 11.3459 19.8858V17.6631C11.3459 16.6967 12.1294 15.9131 13.0959 15.9131ZM23.7327 15.9131C24.6992 15.9131 25.4826 16.6967 25.4826 17.6631V19.8858C25.4826 20.8523 24.6992 21.6357 23.7327 21.6357C22.7661 21.6357 21.9827 20.8523 21.9827 19.8858V17.6631C21.9827 16.6967 22.7661 15.9131 23.7327 15.9131ZM22.5352 23.6077C22.9387 24.4859 22.5538 25.525 21.6755 25.9285L21.6721 25.9302L21.668 25.9319L21.6592 25.936L21.6373 25.9457L21.5854 25.968L21.5764 25.9717C21.5287 25.9917 21.4661 26.0166 21.3901 26.0449C21.2383 26.1012 21.0305 26.171 20.7758 26.2395C20.2691 26.3753 19.5577 26.5101 18.7183 26.5101C17.8493 26.5101 17.1307 26.3777 16.6154 26.2391C16.3573 26.1697 16.1483 26.0981 15.9944 26.0395C15.9173 26.0101 15.8539 25.9838 15.8047 25.9625C15.7702 25.9477 15.7358 25.9322 15.7019 25.916L15.7001 25.9151C14.8292 25.4959 14.4631 24.4501 14.8823 23.5792C15.298 22.7158 16.3298 22.3484 17.1962 22.751C17.2022 22.7536 17.2172 22.7599 17.2408 22.7689C17.2945 22.7894 17.3908 22.8232 17.5247 22.8592C17.7932 22.9315 18.2041 23.0101 18.7183 23.0101C19.1878 23.0101 19.5895 22.9339 19.8691 22.8589L19.8772 22.8569L19.8777 22.8568C19.931 22.8443 20.2096 22.7791 20.2295 22.7413C21.1042 22.3499 22.1342 22.735 22.5352 23.6077ZM38.0422 39.6457C38.9701 39.6457 39.7222 38.8936 39.7222 37.9657V34.9908C39.7222 34.063 38.9701 33.3108 38.0422 33.3108C37.1144 33.3108 36.3622 34.063 36.3622 34.9908V36.2857H34.8922C33.9644 36.2857 33.2122 37.038 33.2122 37.9657C33.2122 38.8936 33.9644 39.6457 34.8922 39.6457H38.0422ZM30.2725 37.9657C30.2725 38.8936 29.5204 39.6457 28.5925 39.6457H25.4425C24.5147 39.6457 23.7625 38.8936 23.7625 37.9657V34.9908C23.7625 34.063 24.5147 33.3108 25.4425 33.3108C26.3704 33.3108 27.1225 34.063 27.1225 34.9908V36.2857H28.5925C29.5204 36.2857 30.2725 37.038 30.2725 37.9657ZM36.3624 29.0408C36.3624 29.9687 37.1147 30.7208 38.0424 30.7208C38.9703 30.7208 39.7225 29.9687 39.7225 29.0408V26.0658C39.7225 25.9418 39.7137 25.8183 39.6962 25.6962C39.6776 25.566 39.6445 25.4414 39.5987 25.3238C39.5704 25.1952 39.5266 25.068 39.4661 24.9447C39.403 24.8154 39.3257 24.6869 39.2327 24.5628C39.1508 24.4536 39.0572 24.3488 38.9513 24.2516C38.8294 24.1397 38.6954 24.0492 38.554 23.9799C38.4123 23.8862 38.2541 23.8125 38.0819 23.7639C37.9016 23.7132 37.712 23.6858 37.5175 23.6858H34.63C33.7022 23.6858 32.95 24.438 32.95 25.3658C32.95 26.2937 33.7022 27.0458 34.63 27.0458H36.3624V29.0408ZM25.4425 30.7208C24.5147 30.7208 23.7625 29.9687 23.7625 29.0408V26.0658C23.7625 25.9418 23.7713 25.8183 23.7889 25.6962C23.8075 25.566 23.8406 25.4414 23.8864 25.3238C23.9147 25.1952 23.9585 25.068 24.019 24.9447C24.0821 24.8154 24.1594 24.6869 24.2524 24.5628C24.3343 24.4536 24.4279 24.3488 24.5338 24.2516C24.6557 24.1397 24.7896 24.0492 24.9311 23.9799C25.0727 23.8862 25.231 23.8125 25.4032 23.7639C25.5835 23.7132 25.7731 23.6858 25.9675 23.6858H28.8549C29.7829 23.6858 30.535 24.438 30.535 25.3658C30.535 26.2937 29.7829 27.0458 28.8549 27.0458H27.1225V29.0408C27.1225 29.9687 26.3704 30.7208 25.4425 30.7208Z" fill="#7CBF64"/>
</svg>
