<svg width="43" height="42" viewBox="0 0 43 42" fill="none" xmlns="http://www.w3.org/2000/svg">
<path fill-rule="evenodd" clip-rule="evenodd" d="M20.9664 1.91881C20.9664 0.859073 20.0287 0 18.8719 0C17.7149 0 16.7771 0.859073 16.7771 1.91881V6.06374H6.95743C3.60714 6.06374 0.891174 8.55167 0.891174 11.6207V28.5988C0.891174 31.6678 3.60712 34.1557 6.95743 34.1557H15.8333C16.9901 34.1557 17.9278 33.2967 17.9278 32.2368C17.9278 31.1772 16.9901 30.3181 15.8333 30.3181H6.95743C5.92084 30.3181 5.08051 29.5483 5.08051 28.5988V11.6207C5.08051 10.6711 5.92084 9.90135 6.95743 9.90135H30.7871C31.8236 9.90135 32.6638 10.6711 32.6638 11.6207V16.5808C32.6638 17.6405 33.6018 18.4995 34.7585 18.4995C35.9153 18.4995 36.8533 17.6405 36.8533 16.5808V11.6207C36.8533 8.55167 34.1373 6.06374 30.7871 6.06374H20.9664V1.91881ZM12.506 14.8671C13.6628 14.8671 14.6006 15.7261 14.6006 16.7858V19.2229C14.6006 20.2827 13.6628 21.1417 12.506 21.1417C11.3491 21.1417 10.4113 20.2827 10.4113 19.2229V16.7858C10.4113 15.7261 11.3491 14.8671 12.506 14.8671ZM27.3323 16.7858C27.3323 15.7261 26.3945 14.8671 25.2376 14.8671C24.0808 14.8671 23.143 15.7261 23.143 16.7858V19.2229C23.143 20.2827 24.0808 21.1417 25.2376 21.1417C26.3945 21.1417 27.3323 20.2827 27.3323 19.2229V16.7858ZM23.8043 23.304C24.2872 24.267 23.8267 25.4063 22.7755 25.8487L22.7712 25.8505L22.7665 25.8523L22.7559 25.8567L22.7295 25.8674C22.7123 25.8743 22.6916 25.8826 22.6676 25.8918L22.6568 25.8959C22.5995 25.9178 22.5248 25.9452 22.4338 25.9761C22.2521 26.038 22.0034 26.1146 21.6984 26.1895C21.0921 26.3385 20.2403 26.4862 19.2358 26.4862C18.1957 26.4862 17.3353 26.3411 16.7188 26.1891C16.4098 26.113 16.1595 26.0345 15.9753 25.9702C15.8832 25.9381 15.8072 25.9094 15.7482 25.886C15.7071 25.8696 15.6659 25.8528 15.6254 25.835L15.623 25.8339C14.5807 25.3743 14.1425 24.2275 14.6443 23.2728C15.1418 22.3259 16.3769 21.9233 17.4138 22.3647C17.421 22.3675 17.4389 22.3744 17.4673 22.3843C17.5314 22.4067 17.6468 22.4438 17.807 22.4833C18.1285 22.5626 18.6203 22.6486 19.2358 22.6486C19.7976 22.6486 20.2786 22.5652 20.6131 22.483C20.6231 22.4805 21.0187 22.3993 21.0445 22.3539L23.8043 23.304ZM21.0445 22.3539L23.8043 23.304C23.3243 22.347 22.0916 21.9249 21.0445 22.3539ZM38.2011 25.8314C37.5334 25.2197 36.4509 25.2197 35.7832 25.8314L35.4616 26.1261C35.5713 27.2977 36.6007 28.2402 37.8797 28.3406L38.2011 28.0462C38.8686 27.4345 38.8686 26.4429 38.2011 25.8314ZM28.5455 32.4615L32.2124 29.1024C32.8021 30.0129 33.6364 30.777 34.6304 31.3171L30.9632 34.6764C29.9394 35.6142 29.5859 35.9298 29.2031 36.182C28.8351 36.4242 28.4395 36.6295 28.0233 36.7938C27.5903 36.9648 27.1131 37.0801 25.7083 37.4018L25.5241 37.4439L25.5702 37.2752C25.9213 35.9885 26.0471 35.5512 26.2338 35.1547C26.4134 34.7734 26.6373 34.4111 26.9019 34.074C27.177 33.7233 27.5215 33.3995 28.5455 32.4615ZM32.8209 23.1178C35.1246 21.0075 38.8597 21.0075 41.1634 23.1178C43.4671 25.2281 43.4671 28.6494 41.1634 30.7597L33.9255 37.39L33.8129 37.4931C32.9436 38.2898 32.3414 38.8416 31.6483 39.298C31.035 39.7019 30.3757 40.0439 29.6821 40.3179C28.8983 40.6274 28.0718 40.8165 26.8789 41.0894L26.7244 41.1248L23.1532 41.9427C22.4396 42.1061 21.6844 41.9145 21.1641 41.4379C20.6438 40.9613 20.4348 40.2697 20.6131 39.6158L21.5059 36.3445L21.5445 36.203C21.8426 35.1101 22.0489 34.3531 22.387 33.6352C22.6861 32.9996 23.0593 32.3959 23.5001 31.8339C23.9984 31.199 24.6009 30.6474 25.4704 29.851L25.5832 29.7479L32.8209 23.1178Z" fill="#9058FF"/>
</svg>
