<svg width="25" height="25" viewBox="0 0 25 25" fill="none" xmlns="http://www.w3.org/2000/svg">
<path fill-rule="evenodd" clip-rule="evenodd" d="M16.8675 3.31345C16.8675 5.9761 19.0241 8.13272 21.6867 8.13272C22.5663 8.13272 23.3855 7.87971 24.0964 7.45803V15.3134C24.0964 18.6267 21.3976 21.3134 18.0723 21.3134H16.2651C15.8916 21.3134 15.5301 21.4942 15.3012 21.7954L13.494 24.193C12.6988 25.2532 11.3976 25.2532 10.6024 24.193L8.79518 21.7954C8.59036 21.5303 8.15663 21.3134 7.83133 21.3134H6.0241C2.6988 21.3134 0 18.6267 0 15.3134V14.1086V6.90381C0 3.59056 2.6988 0.903809 6.0241 0.903809H17.5422C17.1205 1.61465 16.8675 2.43393 16.8675 3.31345ZM7.22892 12.952C6.55422 12.952 6.0241 12.4098 6.0241 11.7472C6.0241 11.0845 6.56627 10.5424 7.22892 10.5424C7.89157 10.5424 8.43373 11.0845 8.43373 11.7472C8.43373 12.4098 7.90362 12.952 7.22892 12.952ZM10.8434 11.7472C10.8434 12.4098 11.3735 12.952 12.0482 12.952C12.7229 12.952 13.253 12.4098 13.253 11.7472C13.253 11.0845 12.7108 10.5424 12.0482 10.5424C11.3855 10.5424 10.8434 11.0845 10.8434 11.7472ZM16.8675 12.952C16.1928 12.952 15.6627 12.4098 15.6627 11.7472C15.6627 11.0845 16.2048 10.5424 16.8675 10.5424C17.5301 10.5424 18.0723 11.0845 18.0723 11.7472C18.0723 12.4098 17.5422 12.952 16.8675 12.952Z" fill="#FF7C56"/>
<path fill-rule="evenodd" clip-rule="evenodd" d="M25 3.31325C25 5.14311 23.5166 6.62651 21.6868 6.62651C19.8569 6.62651 18.3735 5.14311 18.3735 3.31325C18.3735 1.48339 19.8569 0 21.6868 0C23.5166 0 25 1.48339 25 3.31325Z" fill="#FF7C56"/>
</svg>
