<svg width="12" height="12" viewBox="0 0 12 12" fill="none" xmlns="http://www.w3.org/2000/svg">
<path opacity="0.4" d="M7.75 6.575H6.665C5.775 6.575 5.05 5.855 5.05 4.96V3.875C5.05 3.67 4.885 3.5 4.675 3.5H3.09C1.935 3.5 1 4.25 1 5.59V8.91C1 10.25 1.935 11 3.09 11H6.035C7.19 11 8.125 10.25 8.125 8.91V6.95C8.125 6.74 7.955 6.575 7.75 6.575Z" fill="#D9D9D9"/>
<path d="M8.91 1H7.925H7.38H5.965C4.835 1 3.92 1.72 3.88 3.005C3.91 3.005 3.935 3 3.965 3H5.38H5.925H6.91C8.065 3 9 3.75 9 5.09V6.075V7.43V8.415C9 8.445 8.995 8.47 8.995 8.495C10.11 8.46 11 7.72 11 6.415V5.43V4.075V3.09C11 1.75 10.065 1 8.91 1Z" fill="#D9D9D9"/>
<path d="M5.99001 3.57488C5.83501 3.41988 5.57001 3.52488 5.57001 3.73988V5.04988C5.57001 5.59988 6.03501 6.04988 6.60501 6.04988C6.96001 6.05488 7.45501 6.05488 7.88001 6.05488C8.09501 6.05488 8.20501 5.80488 8.05501 5.65488C7.51001 5.10988 6.54001 4.13488 5.99001 3.57488Z" fill="#D9D9D9"/>
</svg>
