<svg width="24" height="24" viewBox="0 0 24 24" fill="none" xmlns="http://www.w3.org/2000/svg">
<path d="M7.50001 15H9.75001M17.774 5.25C17.785 5.3 17.802 5.35 17.826 5.398C18.417 6.598 18.75 7.948 18.75 9.375C18.7522 10.8102 18.4096 12.2249 17.751 13.5M17.774 5.25C17.698 4.885 17.957 4.5 18.349 4.5H19.257C20.146 4.5 20.97 5.018 21.229 5.868C21.568 6.978 21.75 8.155 21.75 9.375C21.75 10.928 21.455 12.411 20.919 13.773C20.613 14.547 19.833 15 19 15H17.947C17.475 15 17.202 14.444 17.447 14.04C17.5542 13.8635 17.6563 13.6834 17.751 13.5M17.774 5.25H16.48C15.9964 5.2503 15.5159 5.17263 15.057 5.02L11.943 3.98C11.4841 3.82737 11.0036 3.74971 10.52 3.75H6.50401C5.88601 3.75 5.28701 3.997 4.89901 4.479C3.18096 6.60877 2.24588 9.26365 2.25001 12C2.25001 12.434 2.27301 12.863 2.31801 13.285C2.42701 14.306 3.34601 15 4.37201 15H7.49801C8.11601 15 8.48901 15.724 8.22301 16.282C7.74529 17.2874 7.49827 18.3869 7.50001 19.5C7.50001 20.0967 7.73707 20.669 8.15902 21.091C8.58098 21.5129 9.15328 21.75 9.75001 21.75C9.94893 21.75 10.1397 21.671 10.2803 21.5303C10.421 21.3897 10.5 21.1989 10.5 21V20.367C10.5 19.794 10.61 19.227 10.822 18.695C11.126 17.935 11.752 17.365 12.475 16.98C13.585 16.3877 14.5591 15.5703 15.335 14.58C15.833 13.946 16.561 13.5 17.367 13.5H17.751" stroke="#D9D9D9" stroke-opacity="0.4" stroke-width="2" stroke-linecap="round" stroke-linejoin="round"/>
</svg>
