<svg width="14" height="15" viewBox="0 0 14 15" fill="none" xmlns="http://www.w3.org/2000/svg">
<g opacity="0.5">
<path opacity="0.4" d="M6.99992 1.66658C3.77826 1.66658 1.16658 4.27826 1.16658 7.49992C1.16658 10.7216 3.77826 13.3333 6.99992 13.3333C10.2216 13.3333 12.8333 10.7216 12.8333 7.49992C12.8333 4.27826 10.2216 1.66658 6.99992 1.66658Z" fill="#D9D9D9"/>
<path d="M7 6.47908C6.76083 6.47908 6.5625 6.67742 6.5625 6.91658L6.5625 9.83325C6.5625 10.0724 6.76083 10.2708 7 10.2708C7.23917 10.2708 7.4375 10.0724 7.4375 9.83325L7.4375 6.91658C7.4375 6.67742 7.23917 6.47908 7 6.47908Z" fill="#D9D9D9"/>
<path d="M6.46325 5.38832C6.49242 5.45832 6.53325 5.52249 6.58575 5.58082C6.64409 5.63332 6.70825 5.67415 6.77825 5.70332C6.91825 5.76165 7.08159 5.76165 7.22159 5.70332C7.29159 5.67415 7.35575 5.63332 7.41409 5.58082C7.46659 5.52249 7.50742 5.45832 7.53659 5.38832C7.56575 5.31832 7.58325 5.24249 7.58325 5.16665C7.58325 5.09082 7.56575 5.01499 7.53659 4.94499C7.50742 4.86915 7.46659 4.81082 7.41409 4.75249C7.35575 4.69999 7.29159 4.65915 7.22159 4.62999C7.15159 4.60082 7.07575 4.58332 6.99992 4.58332C6.92409 4.58332 6.84825 4.60082 6.77825 4.62999C6.70825 4.65915 6.64409 4.69999 6.58575 4.75249C6.53325 4.81082 6.49242 4.86915 6.46325 4.94499C6.43409 5.01499 6.41659 5.09082 6.41659 5.16665C6.41659 5.24249 6.43409 5.31832 6.46325 5.38832Z" fill="#D9D9D9"/>
</g>
</svg>
