<svg width="193" height="133" viewBox="0 0 193 133" fill="none" xmlns="http://www.w3.org/2000/svg">
<path d="M125.505 119.396C99.4068 126.389 77.989 131.082 70.9961 104.985C64.0032 78.8867 79.4908 52.0613 105.589 45.0684C131.687 38.0755 180.312 56.1631 187.305 82.261C194.297 108.359 151.603 112.403 125.505 119.396Z" fill="#FBCC92"/>
<path d="M64.0557 78.6922C61.8622 97.303 52.3438 111.478 33.7205 109.283C15.0971 107.088 1.77811 90.2214 3.97161 71.6106C6.1651 52.9998 30.3154 26.3138 48.9388 28.5088C67.5621 30.7038 66.2492 60.0814 64.0557 78.6922Z" fill="#AFC0C0"/>
<path d="M93.9637 39.0872C82.9049 42.0504 73.8293 44.0396 70.8669 32.9841C67.9046 21.9286 74.4682 10.5641 85.527 7.60093C96.5858 4.63772 117.189 12.2986 120.152 23.3541C123.114 34.4096 105.023 36.124 93.9637 39.0872Z" fill="#FBDED0"/>
</svg>
