<svg width="24" height="24" viewBox="0 0 24 24" fill="none" xmlns="http://www.w3.org/2000/svg">
<path opacity="0.4" fill-rule="evenodd" clip-rule="evenodd" d="M16 4C16 6.21 17.79 8 20 8C20.73 8 21.41 7.79 22 7.44V13.96C22 16.71 19.76 18.94 17 18.94H15.5C15.19 18.94 14.89 19.09 14.7 19.34L13.2 21.33C12.54 22.21 11.46 22.21 10.8 21.33L9.3 19.34C9.13 19.12 8.77 18.94 8.5 18.94H7C4.24 18.94 2 16.71 2 13.96V12.96V6.98C2 4.23 4.24 2 7 2H16.56C16.21 2.59 16 3.27 16 4ZM8 12C7.44 12 7 11.55 7 11C7 10.45 7.45 10 8 10C8.55 10 9 10.45 9 11C9 11.55 8.56 12 8 12ZM11 11C11 11.55 11.44 12 12 12C12.56 12 13 11.55 13 11C13 10.45 12.55 10 12 10C11.45 10 11 10.45 11 11ZM16 12C15.44 12 15 11.55 15 11C15 10.45 15.45 10 16 10C16.55 10 17 10.45 17 11C17 11.55 16.56 12 16 12Z" fill="#D9D9D9"/>
<path fill-rule="evenodd" clip-rule="evenodd" d="M22.75 4C22.75 5.51878 21.5188 6.75 20 6.75C18.4812 6.75 17.25 5.51878 17.25 4C17.25 2.48122 18.4812 1.25 20 1.25C21.5188 1.25 22.75 2.48122 22.75 4Z" fill="#D9D9D9"/>
</svg>
