<svg width="14" height="13" viewBox="0 0 14 13" fill="none" xmlns="http://www.w3.org/2000/svg">
<path d="M10.6629 3.11741L11.4012 2.38596C11.7703 2.01682 11.784 1.6135 11.4558 1.27854L11.1892 1.01193C10.8543 0.676974 10.4441 0.711154 10.075 1.06662L9.33669 1.79807L10.6629 3.11741ZM2.32302 11.4368L10.0066 3.75998L8.69411 2.44065L1.01052 10.1242L0.3406 11.7239C0.265405 11.9289 0.477314 12.1477 0.675564 12.0725L2.32302 11.4368ZM3.02712 12.0793H13.2058C13.575 12.0793 13.8758 11.7717 13.8758 11.4094C13.8758 11.0403 13.575 10.7395 13.2058 10.7395H4.3738L3.02712 12.0793Z" fill="#D36749"/>
</svg>
