<svg width="42" height="21" viewBox="0 0 42 21" fill="none" xmlns="http://www.w3.org/2000/svg">
<path d="M40.4199 1.07988C40.234 0.892421 40.0127 0.743633 39.769 0.642096C39.5253 0.540558 39.2639 0.488281 38.9999 0.488281C38.7359 0.488281 38.4744 0.540558 38.2307 0.642096C37.987 0.743633 37.7658 0.892421 37.5799 1.07988L24.9999 13.6799L16.4199 5.07988C16.234 4.89242 16.0127 4.74363 15.769 4.6421C15.5253 4.54056 15.2639 4.48828 14.9999 4.48828C14.7359 4.48828 14.4744 4.54056 14.2307 4.6421C13.987 4.74363 13.7658 4.89242 13.5799 5.07988L1.57988 17.0799C1.39242 17.2658 1.24363 17.487 1.1421 17.7307C1.04056 17.9744 0.988281 18.2359 0.988281 18.4999C0.988281 18.7639 1.04056 19.0253 1.1421 19.269C1.24363 19.5128 1.39242 19.7339 1.57988 19.9199C1.7658 20.1073 1.98701 20.2561 2.23072 20.3577C2.47444 20.4592 2.73585 20.5115 2.99988 20.5115C3.2639 20.5115 3.52531 20.4592 3.76903 20.3577C4.01275 20.2561 4.23395 20.1073 4.41988 19.9199L14.9999 9.31988L23.5799 17.9199C23.7658 18.1073 23.987 18.2561 24.2307 18.3577C24.4744 18.4592 24.7359 18.5115 24.9999 18.5115C25.2639 18.5115 25.5253 18.4592 25.769 18.3577C26.0128 18.2561 26.234 18.1073 26.4199 17.9199L40.4199 3.91988C40.6073 3.73395 40.7561 3.51275 40.8577 3.26903C40.9592 3.02531 41.0115 2.7639 41.0115 2.49988C41.0115 2.23585 40.9592 1.97444 40.8577 1.73072C40.7561 1.48701 40.6073 1.2658 40.4199 1.07988Z" fill="#FBCC92"/>
</svg>
