<svg width="23" height="23" viewBox="0 0 23 23" fill="none" xmlns="http://www.w3.org/2000/svg">
<path opacity="0.4" d="M20.3536 7.51329V15.1977C20.3536 17.7745 19.1707 19.5443 17.0891 20.2137C16.4839 20.4246 15.787 20.5255 15.0258 20.5255H7.34142C6.58031 20.5255 5.88339 20.4246 5.27818 20.2137C3.19659 19.5443 2.01367 17.7745 2.01367 15.1977V7.51329C2.01367 4.17543 4.00355 2.18555 7.34142 2.18555H15.0258C18.3637 2.18555 20.3536 4.17543 20.3536 7.51329Z" fill="white"/>
<path d="M17.0897 20.2138C16.4845 20.4247 15.7876 20.5256 15.0265 20.5256H7.34205C6.58094 20.5256 5.88403 20.4247 5.27881 20.2138C5.59976 17.7929 8.13067 15.9131 11.1843 15.9131C14.2379 15.9131 16.7688 17.7929 17.0897 20.2138Z" fill="white"/>
<path d="M14.4666 10.9704C14.4666 12.786 12.9994 14.2623 11.1837 14.2623C9.36807 14.2623 7.90088 12.786 7.90088 10.9704C7.90088 9.15471 9.36807 7.6875 11.1837 7.6875C12.9994 7.6875 14.4666 9.15471 14.4666 10.9704Z" fill="white"/>
</svg>
