<svg width="69" height="69" viewBox="0 0 69 69" fill="none" xmlns="http://www.w3.org/2000/svg">
<rect y="8.8457" width="60.293" height="60.293" rx="14.8747" transform="rotate(-8.43604 0 8.8457)" fill="white"/>
<rect x="2.125" y="9.54102" width="55.8295" height="55.8295" rx="15.7497" transform="rotate(-8.43604 2.125 9.54102)" fill="#EC704D"/>
<path d="M48.1103 32.0559C49.7107 29.8994 50.3885 27.1959 49.9947 24.5403C49.6008 21.8846 48.1675 19.4942 46.01 17.895C43.8526 16.2958 41.1476 15.6188 38.4903 16.0129C35.8331 16.407 33.4412 17.8399 31.8408 19.9964L22.2451 32.926L24.3478 47.1036L38.5337 44.9997L48.1103 32.0559Z" stroke="white" stroke-width="2.86795" stroke-linecap="round" stroke-linejoin="round"/>
<path d="M40.4555 25.3858L19.5153 53.6189" stroke="white" stroke-width="2.86795" stroke-linecap="round" stroke-linejoin="round"/>
<path d="M45.6406 34.2807L32.4016 36.2441" stroke="white" stroke-width="2.86795" stroke-linecap="round" stroke-linejoin="round"/>
<path d="M31.1437 53.8264C40.3015 51.7341 41.6845 49.0225 43.0629 49.1778C44.4414 49.333 45.9833 50.29 46.5822 50.7491C47.2453 49.6799 48.7834 47.4785 49.631 47.2268C50.4783 46.9749 52.6126 48.0854 53.5739 48.6721" stroke="white" stroke-width="2.86795" stroke-linecap="round" stroke-linejoin="round"/>
</svg>
