<svg width="48" height="49" viewBox="0 0 48 49" fill="none" xmlns="http://www.w3.org/2000/svg">
<path fill-rule="evenodd" clip-rule="evenodd" d="M24 48.5C37.2548 48.5 48 37.7548 48 24.5C48 11.2452 37.2548 0.5 24 0.5C10.7452 0.5 0 11.2452 0 24.5C0 37.7548 10.7452 48.5 24 48.5ZM21.6487 8.02751C22.3264 6.37009 24.6735 6.37009 25.3512 8.02751L28.3327 15.3193C26.9168 14.4811 25.2646 14 23.5001 14C21.7354 14 20.0831 14.4812 18.6672 15.3194L21.6487 8.02751ZM27.0508 32.3142C30.5111 30.9189 32.9612 27.5451 32.9996 23.5942L38.2581 30.383C39.3547 31.7986 38.1811 33.8312 36.4069 33.5894L27.0508 32.3142ZM14.0005 23.594C14.0388 27.545 16.4889 30.9189 19.9493 32.3142L10.593 33.5894C8.81881 33.8312 7.64527 31.7986 8.7418 30.383L14.0005 23.594Z" fill="#EC704D"/>
</svg>
