<svg width="23" height="23" viewBox="0 0 23 23" fill="none" xmlns="http://www.w3.org/2000/svg">
<path opacity="0.4" d="M15.0259 2.17773H7.35069C4.01283 2.17773 2.02295 4.16761 2.02295 7.50548V15.1807C2.02295 18.5186 4.01283 20.5085 7.35069 20.5085H15.0259C18.3638 20.5085 20.3537 18.5186 20.3537 15.1807V7.50548C20.3537 4.16761 18.3638 2.17773 15.0259 2.17773Z" fill="white"/>
<path d="M15.7687 14.9879C14.5675 14.9879 13.4212 14.4377 12.5042 13.4198C13.4121 12.2552 13.9989 10.8156 14.1273 9.23833H15.7596C16.1355 9.23833 16.4473 8.92656 16.4473 8.55059C16.4473 8.17462 16.1355 7.86284 15.7596 7.86284H13.5313C13.5129 7.86284 13.4946 7.85366 13.4763 7.85366C13.4579 7.85366 13.4396 7.86284 13.4212 7.86284H11.8715V7.01001C11.8715 6.63404 11.5597 6.32227 11.1838 6.32227C10.8078 6.32227 10.496 6.63404 10.496 7.01001V7.86284H6.60796C6.23199 7.86284 5.92021 8.17462 5.92021 8.55059C5.92021 8.92656 6.23199 9.23833 6.60796 9.23833H11.1838H12.7427C12.4034 12.4662 9.78075 14.9879 6.5896 14.9879C6.21363 14.9879 5.90186 15.2997 5.90186 15.6756C5.90186 16.0516 6.21363 16.3634 6.5896 16.3634C8.48778 16.3634 10.2209 15.6298 11.5506 14.4285C12.7151 15.6756 14.1915 16.3634 15.7596 16.3634C16.1355 16.3634 16.4473 16.0516 16.4473 15.6756C16.4473 15.2997 16.1447 14.9879 15.7687 14.9879Z" fill="white"/>
</svg>
