<svg width="28" height="28" viewBox="0 0 28 28" fill="none" xmlns="http://www.w3.org/2000/svg">
<path opacity="0.4" d="M23.9372 11.9255H20.5919C17.8485 11.9255 15.6145 9.69148 15.6145 6.94812V3.60285C15.6145 2.9662 15.0936 2.44531 14.457 2.44531H9.54903C5.98382 2.44531 3.10156 4.76038 3.10156 8.89278V19.1485C3.10156 23.2809 5.98382 25.596 9.54903 25.596H18.6472C22.2125 25.596 25.0947 23.2809 25.0947 19.1485V13.0831C25.0947 12.4464 24.5738 11.9255 23.9372 11.9255Z" fill="#EC704D"/>
<path d="M18.4966 2.68893C18.022 2.21434 17.2002 2.53845 17.2002 3.19825V7.23804C17.2002 8.92804 18.6355 10.3287 20.3834 10.3287C21.4831 10.3402 23.011 10.3402 24.319 10.3402C24.9788 10.3402 25.3261 9.56468 24.8631 9.10167C23.1962 7.42325 20.2098 4.40208 18.4966 2.68893Z" fill="#EC704D"/>
<path d="M15.8344 16.0464H8.88915C8.41456 16.0464 8.021 15.6528 8.021 15.1782C8.021 14.7036 8.41456 14.3101 8.88915 14.3101H15.8344C16.3089 14.3101 16.7025 14.7036 16.7025 15.1782C16.7025 15.6528 16.3089 16.0464 15.8344 16.0464Z" fill="#EC704D"/>
<path d="M13.5193 20.6762H8.88915C8.41456 20.6762 8.021 20.2827 8.021 19.8081C8.021 19.3335 8.41456 18.9399 8.88915 18.9399H13.5193C13.9939 18.9399 14.3874 19.3335 14.3874 19.8081C14.3874 20.2827 13.9939 20.6762 13.5193 20.6762Z" fill="#EC704D"/>
</svg>
