<svg width="28" height="29" viewBox="0 0 28 29" fill="none" xmlns="http://www.w3.org/2000/svg">
<path opacity="0.4" d="M25.6965 19.7227L22.0734 11.2495C21.4136 9.69844 20.4297 8.81871 19.3069 8.76083C18.1957 8.70296 17.1192 9.4785 16.2973 10.9601L14.098 14.9073C13.635 15.7408 12.9752 16.2385 12.2575 16.2964C11.5283 16.3658 10.799 15.9838 10.2087 15.2314L9.95404 14.9073C9.13219 13.8771 8.11356 13.3794 7.07178 13.4836C6.03 13.5878 5.13869 14.3054 4.54835 15.4745L2.54582 19.468C1.82815 20.9149 1.8976 22.5934 2.7426 23.9593C3.5876 25.3251 5.05767 26.147 6.66664 26.147H21.4368C22.9879 26.147 24.4348 25.3714 25.2914 24.075C26.1711 22.7786 26.31 21.1464 25.6965 19.7227Z" fill="#EC704D"/>
<path d="M8.27575 9.95335C10.4365 9.95335 12.1882 8.20168 12.1882 6.04088C12.1882 3.88009 10.4365 2.12842 8.27575 2.12842C6.11495 2.12842 4.36328 3.88009 4.36328 6.04088C4.36328 8.20168 6.11495 9.95335 8.27575 9.95335Z" fill="#EC704D"/>
</svg>
