<svg width="42" height="43" viewBox="0 0 42 43" fill="none" xmlns="http://www.w3.org/2000/svg">
<path opacity="0.4" d="M35.7001 29.0774C35.2101 30.3899 34.1776 31.3874 32.8301 31.8424C30.9401 32.4724 28.9976 32.9449 27.0376 33.2774C26.8451 33.3124 26.6526 33.3474 26.4601 33.3649C26.1451 33.4174 25.8301 33.4524 25.5151 33.4874C25.1301 33.5399 24.7276 33.5749 24.3251 33.6099C23.2226 33.6974 22.1376 33.7499 21.0351 33.7499C19.9151 33.7499 18.7951 33.6974 17.6926 33.5924C17.2201 33.5574 16.7651 33.5049 16.3101 33.4349C16.0476 33.3999 15.7851 33.3649 15.5401 33.3299C15.3476 33.2949 15.1551 33.2774 14.9626 33.2424C13.0201 32.9274 11.0951 32.4549 9.22261 31.8249C7.82261 31.3524 6.75511 30.3549 6.28261 29.0774C5.81011 27.8174 5.98511 26.3474 6.73761 25.0874L8.71511 21.7974C9.13511 21.0799 9.52011 19.6974 9.52011 18.8574V15.6024C9.52011 9.2499 14.6826 4.0874 21.0351 4.0874C27.3701 4.0874 32.5326 9.2499 32.5326 15.6024V18.8574C32.5326 19.6974 32.9176 21.0799 33.3551 21.7974L35.3326 25.0874C36.0501 26.3124 36.1901 27.7474 35.7001 29.0774Z" fill="#D9D9D9"/>
<path d="M20.9999 19.3301C20.2649 19.3301 19.6699 18.7351 19.6699 18.0001V12.5751C19.6699 11.8401 20.2649 11.2451 20.9999 11.2451C21.7349 11.2451 22.3299 11.8401 22.3299 12.5751V18.0001C22.3124 18.7351 21.7174 19.3301 20.9999 19.3301Z" fill="#D9D9D9"/>
<path d="M25.9524 35.5175C25.2174 37.5475 23.2749 39 20.9999 39C19.6174 39 18.2524 38.44 17.2899 37.4425C16.7299 36.9175 16.3099 36.2175 16.0649 35.5C16.2924 35.535 16.5199 35.5525 16.7649 35.5875C17.1674 35.64 17.5874 35.6925 18.0074 35.7275C19.0049 35.815 20.0199 35.8675 21.0349 35.8675C22.0324 35.8675 23.0299 35.815 24.0099 35.7275C24.3774 35.6925 24.7449 35.675 25.0949 35.6225C25.3749 35.5875 25.6549 35.5525 25.9524 35.5175Z" fill="#D9D9D9"/>
</svg>
