<svg width="25" height="25" viewBox="0 0 25 25" fill="none" xmlns="http://www.w3.org/2000/svg">
<path opacity="0.4" d="M17.7097 8.12938C17.6397 8.11938 17.5697 8.11938 17.4997 8.12938C15.9497 8.07938 14.7197 6.80937 14.7197 5.24937C14.7197 3.65937 16.0097 2.35938 17.6097 2.35938C19.1997 2.35938 20.4997 3.64937 20.4997 5.24937C20.4897 6.80937 19.2597 8.07938 17.7097 8.12938Z" fill="white"/>
<path opacity="0.4" d="M20.9698 15.0598C19.8498 15.8098 18.2798 16.0898 16.8298 15.8998C17.2098 15.0798 17.4098 14.1698 17.4198 13.2098C17.4198 12.2098 17.1998 11.2598 16.7798 10.4298C18.2598 10.2298 19.8298 10.5098 20.9598 11.2598C22.5398 12.2998 22.5398 14.0098 20.9698 15.0598Z" fill="white"/>
<path opacity="0.4" d="M6.61959 8.12938C6.68959 8.11938 6.75959 8.11938 6.82959 8.12938C8.37959 8.07938 9.60959 6.80937 9.60959 5.24937C9.60959 3.65937 8.31959 2.35938 6.71959 2.35938C5.12959 2.35938 3.82959 3.64937 3.82959 5.24937C3.83959 6.80937 5.06959 8.07938 6.61959 8.12938Z" fill="white"/>
<path opacity="0.4" d="M6.7298 13.209C6.7298 14.179 6.9398 15.099 7.3198 15.929C5.9098 16.079 4.4398 15.779 3.3598 15.069C1.7798 14.019 1.7798 12.309 3.3598 11.259C4.4298 10.539 5.9398 10.249 7.3598 10.409C6.9498 11.249 6.7298 12.199 6.7298 13.209Z" fill="white"/>
<path d="M12.2995 16.2294C12.2195 16.2194 12.1295 16.2194 12.0395 16.2294C10.1995 16.1694 8.72949 14.6594 8.72949 12.7994C8.72949 10.8994 10.2595 9.35938 12.1695 9.35938C14.0695 9.35938 15.6095 10.8994 15.6095 12.7994C15.6095 14.6594 14.1495 16.1694 12.2995 16.2294Z" fill="white"/>
<path d="M9.04949 18.299C7.53949 19.309 7.53949 20.969 9.04949 21.969C10.7695 23.119 13.5895 23.119 15.3095 21.969C16.8195 20.959 16.8195 19.299 15.3095 18.299C13.5995 17.149 10.7795 17.149 9.04949 18.299Z" fill="white"/>
</svg>
