<svg width="16" height="13" viewBox="0 0 16 13" fill="none" xmlns="http://www.w3.org/2000/svg">
<path d="M1.45386 2.08887H14.5447C14.9822 2.08887 15.3308 1.71289 15.3308 1.28223C15.3308 0.837892 14.989 0.482422 14.5447 0.482422H1.45386C1.00953 0.482422 0.667725 0.851562 0.667725 1.28223C0.667725 1.70605 1.01636 2.08887 1.45386 2.08887ZM1.45386 5.6709H14.5447C14.9822 5.6709 15.3308 5.29492 15.3308 4.86426C15.3308 4.42676 14.989 4.06445 14.5447 4.06445H1.45386C1.00953 4.06445 0.667725 4.43359 0.667725 4.86426C0.667725 5.28808 1.01636 5.6709 1.45386 5.6709ZM1.45386 9.25973H14.5447C14.9822 9.25973 15.3308 8.88383 15.3308 8.45312C15.3308 8.00879 14.989 7.65332 14.5447 7.65332H1.45386C1.00953 7.65332 0.667725 8.02246 0.667725 8.45312C0.667725 8.87693 1.01636 9.25973 1.45386 9.25973ZM1.45386 12.8418H8.44703C8.88453 12.8418 9.23316 12.4658 9.23316 12.0351C9.23316 11.5976 8.89136 11.2353 8.44703 11.2353H1.45386C1.00953 11.2353 0.667725 11.6045 0.667725 12.0351C0.667725 12.459 1.01636 12.8418 1.45386 12.8418Z" fill="#EC704D"/>
</svg>
