<svg width="47" height="46" viewBox="0 0 47 46" fill="none" xmlns="http://www.w3.org/2000/svg">
<path fill-rule="evenodd" clip-rule="evenodd" d="M25.1752 2.37568C25.1752 1.06361 24.0142 0 22.582 0C21.1495 0 19.9885 1.06361 19.9885 2.37568V7.50749H7.83079C3.68282 7.50749 0.32019 10.5878 0.32019 14.3875V35.408C0.32019 39.2077 3.68279 42.288 7.83079 42.288H18.8199C20.2522 42.288 21.4132 41.2244 21.4132 39.9123C21.4132 38.6003 20.2522 37.5367 18.8199 37.5367H7.83079C6.5474 37.5367 5.50698 36.5835 5.50698 35.408V14.3875C5.50698 13.2119 6.5474 12.2588 7.83079 12.2588H37.3341C38.6174 12.2588 39.6577 13.2119 39.6577 14.3875V20.5286C39.6577 21.8406 40.819 22.9042 42.2512 22.9042C43.6834 22.9042 44.8447 21.8406 44.8447 20.5286V14.3875C44.8447 10.5878 41.4821 7.50749 37.3341 7.50749H25.1752V2.37568ZM14.7004 18.4068C16.1327 18.4068 17.2938 19.4704 17.2938 20.7824V23.7997C17.2938 25.1119 16.1327 26.1755 14.7004 26.1755C13.2681 26.1755 12.107 25.1119 12.107 23.7997V20.7824C12.107 19.4704 13.2681 18.4068 14.7004 18.4068ZM33.0568 20.7824C33.0568 19.4704 31.8958 18.4068 30.4633 18.4068C29.0311 18.4068 27.8701 19.4704 27.8701 20.7824V23.7997C27.8701 25.1119 29.0311 26.1755 30.4633 26.1755C31.8958 26.1755 33.0568 25.1119 33.0568 23.7997V20.7824ZM28.6888 28.8526C29.2867 30.0448 28.7166 31.4554 27.415 32.0031L27.4097 32.0054L27.4039 32.0076L27.3908 32.0131L27.3581 32.0263C27.3368 32.0349 27.3112 32.0451 27.2815 32.0565L27.2681 32.0616C27.1972 32.0887 27.1047 32.1227 26.992 32.1609C26.7671 32.2375 26.4592 32.3324 26.0815 32.425C25.3308 32.6095 24.2763 32.7924 23.0326 32.7924C21.7448 32.7924 20.6796 32.6128 19.9163 32.4246C19.5337 32.3304 19.2238 32.2332 18.9958 32.1536C18.8817 32.1139 18.7877 32.0783 18.7146 32.0493C18.6637 32.029 18.6128 32.0082 18.5625 31.9862L18.5596 31.9848C17.2691 31.4159 16.7266 29.996 17.3478 28.8139C17.9639 27.6416 19.493 27.1431 20.7768 27.6897C20.7857 27.6931 20.8079 27.7017 20.843 27.7139C20.9224 27.7416 21.0653 27.7876 21.2636 27.8365C21.6617 27.9346 22.2706 28.0411 23.0326 28.0411C23.7281 28.0411 24.3236 27.9379 24.7378 27.8361C24.7502 27.833 25.2399 27.7324 25.2719 27.6762L28.6888 28.8526ZM25.2719 27.6762L28.6888 28.8526C28.0946 27.6677 26.5683 27.1452 25.2719 27.6762Z" fill="white"/>
<path d="M46.3161 28.0264C46.0391 27.7182 45.9203 27.7042 43.8752 27.6762C42.503 27.6622 41.5267 27.7182 41.144 27.8303C40.8142 27.9144 40.3392 28.1385 40.0885 28.2926C39.8378 28.4607 39.4024 28.8389 39.1385 29.1331C38.8746 29.4273 38.5844 29.8336 38.5184 30.0577C38.4392 30.2678 38.3733 31.0243 38.3733 31.7387C38.3865 32.8594 38.3337 33.0976 38.0698 33.5178C37.9115 33.784 37.7136 34.0082 37.6476 34.0082C37.5684 34.0082 37.5025 33.4338 37.4761 32.7474C37.4629 32.0469 37.4101 31.3885 37.3705 31.2765C37.3309 31.1224 36.9615 31.4305 36.1171 32.3271C35.4574 33.0135 34.8504 33.714 34.7713 33.8681C34.6789 34.0222 34.5865 34.8487 34.547 35.7172C34.4942 36.992 34.4282 37.3562 34.2171 37.6504C34.1104 37.8049 33.9895 37.9366 33.9015 37.99C33.8523 38.0198 33.793 38.0011 33.7747 37.9443C33.7173 37.7668 33.6735 37.2715 33.663 36.6698C33.6234 35.5631 33.5838 35.339 33.4123 35.339C33.2935 35.339 32.9241 35.6752 32.581 36.0814C32.238 36.4737 31.8554 36.978 31.7366 37.2021C31.6179 37.4123 31.42 37.9446 31.3144 38.3929C31.2089 38.8271 31.1165 39.7377 31.1165 40.4241C31.1165 41.0965 31.0505 41.783 30.9714 41.9511C30.8922 42.1332 30.3644 42.7776 29.7971 43.394C28.9922 44.2905 28.7679 44.6267 28.6888 45.075C28.636 45.4252 28.6492 45.6914 28.7416 45.7755C28.8471 45.8735 30.5491 44.1364 34.5206 39.8638C38.5184 35.5771 40.3128 33.742 40.6822 33.5599C41.1044 33.3637 41.7378 33.3077 43.8356 33.2377L45.7001 33.1882C46.1585 33.176 46.5567 32.8421 46.6089 32.3585C46.6777 31.7223 46.6904 30.9852 46.6724 30.2678C46.6196 28.4887 46.5932 28.3206 46.3161 28.0264Z" fill="white"/>
<path d="M43.585 34.3584H41.9856C41.4431 34.3584 40.919 34.5674 40.5107 34.9467C40.1677 35.2689 39.5739 35.8573 39.1913 36.2355C38.8219 36.6278 38.5052 37.062 38.5052 37.2021C38.5052 37.4123 38.7031 37.4403 40.8142 37.4403C42.4766 37.4403 43.2419 37.3842 43.5586 37.2442C43.7829 37.1461 44.4426 36.5577 44.9967 35.9554C45.5641 35.339 46.0127 34.7366 46.0259 34.6105C46.0259 34.3724 45.828 34.3584 43.585 34.3584Z" fill="white"/>
<path d="M42.3447 38.589C42.3447 38.4629 41.7774 38.4209 39.9434 38.4209C37.9906 38.4349 37.4497 38.4769 37.133 38.659C36.9219 38.7851 35.8664 39.8218 34.7977 40.9565C33.7289 42.1052 32.8449 43.0998 32.8449 43.1838C32.8449 43.2679 33.6894 43.3099 35.1935 43.2819C37.3573 43.2539 37.5816 43.2259 38.1226 42.9177C38.4524 42.7496 39.5344 41.741 40.5371 40.6903C41.5267 39.6256 42.3447 38.6871 42.3447 38.589Z" fill="white"/>
</svg>
