<svg width="25" height="24" viewBox="0 0 25 24" fill="none" xmlns="http://www.w3.org/2000/svg">
<path opacity="0.4" d="M12.2505 20.999C17.4972 20.999 21.7505 16.7457 21.7505 11.499C21.7505 6.25232 17.4972 1.99902 12.2505 1.99902C7.00378 1.99902 2.75049 6.25232 2.75049 11.499C2.75049 16.7457 7.00378 20.999 12.2505 20.999Z" fill="#292D32"/>
<path d="M22.0505 21.9996C21.8705 21.9996 21.6905 21.9296 21.5605 21.7996L19.7005 19.9396C19.4305 19.6696 19.4305 19.2296 19.7005 18.9496C19.9705 18.6796 20.4105 18.6796 20.6905 18.9496L22.5505 20.8096C22.8205 21.0796 22.8205 21.5196 22.5505 21.7996C22.4105 21.9296 22.2305 21.9996 22.0505 21.9996Z" fill="#292D32"/>
</svg>
