<svg width="24" height="25" viewBox="0 0 24 25" fill="none" xmlns="http://www.w3.org/2000/svg">
<path d="M19.9994 19.6102H10.9294C10.4794 19.6102 10.1094 19.2402 10.1094 18.7902C10.1094 18.3402 10.4794 17.9702 10.9294 17.9702H19.9994C20.4494 17.9702 20.8194 18.3402 20.8194 18.7902C20.8194 19.2502 20.4494 19.6102 19.9994 19.6102Z" fill="#292D32"/>
<path d="M19.9994 13.3202H10.9294C10.4794 13.3202 10.1094 12.9502 10.1094 12.5002C10.1094 12.0502 10.4794 11.6802 10.9294 11.6802H19.9994C20.4494 11.6802 20.8194 12.0502 20.8194 12.5002C20.8194 12.9502 20.4494 13.3202 19.9994 13.3202Z" fill="#292D32"/>
<path d="M19.9994 7.01988H10.9294C10.4794 7.01988 10.1094 6.64988 10.1094 6.19988C10.1094 5.74988 10.4794 5.37988 10.9294 5.37988H19.9994C20.4494 5.37988 20.8194 5.74988 20.8194 6.19988C20.8194 6.64988 20.4494 7.01988 19.9994 7.01988Z" fill="#292D32"/>
<path opacity="0.4" d="M4.90969 8.38002C4.68969 8.38002 4.47969 8.29002 4.32969 8.14002L3.41969 7.23002C3.09969 6.91002 3.09969 6.39002 3.41969 6.07002C3.73969 5.75002 4.25969 5.75002 4.57969 6.07002L4.90969 6.40002L7.04969 4.26002C7.36969 3.94002 7.88969 3.94002 8.20969 4.26002C8.52969 4.58002 8.52969 5.10002 8.20969 5.42002L5.48969 8.14002C5.32969 8.29002 5.12969 8.38002 4.90969 8.38002Z" fill="#292D32"/>
<path opacity="0.4" d="M4.90969 14.6803C4.69969 14.6803 4.48969 14.6003 4.32969 14.4403L3.41969 13.5303C3.09969 13.2103 3.09969 12.6903 3.41969 12.3703C3.73969 12.0503 4.25969 12.0503 4.57969 12.3703L4.90969 12.7003L7.04969 10.5603C7.36969 10.2403 7.88969 10.2403 8.20969 10.5603C8.52969 10.8803 8.52969 11.4003 8.20969 11.7203L5.48969 14.4403C5.32969 14.6003 5.11969 14.6803 4.90969 14.6803Z" fill="#292D32"/>
<path opacity="0.4" d="M4.90969 20.6803C4.69969 20.6803 4.48969 20.6003 4.32969 20.4403L3.41969 19.5303C3.09969 19.2103 3.09969 18.6903 3.41969 18.3703C3.73969 18.0503 4.25969 18.0503 4.57969 18.3703L4.90969 18.7003L7.04969 16.5603C7.36969 16.2403 7.88969 16.2403 8.20969 16.5603C8.52969 16.8803 8.52969 17.4003 8.20969 17.7203L5.48969 20.4403C5.32969 20.6003 5.11969 20.6803 4.90969 20.6803Z" fill="#292D32"/>
</svg>
