<svg width="24" height="25" viewBox="0 0 24 25" fill="none" xmlns="http://www.w3.org/2000/svg">
<path opacity="0.4" d="M19.2107 6.71011C18.1707 4.61011 16.1607 3.06011 13.8307 2.55011C11.3907 2.01011 8.8907 2.59011 6.9807 4.13011C5.0607 5.66011 3.9707 7.95011 3.9707 10.4001C3.9707 12.9901 5.5207 15.7001 7.8607 17.2701V18.1001C7.8507 18.3801 7.8407 18.8101 8.1807 19.1601C8.5307 19.5201 9.0507 19.5601 9.4607 19.5601H14.5907C15.1307 19.5601 15.5407 19.4101 15.8207 19.1301C16.2007 18.7401 16.1907 18.2401 16.1807 17.9701V17.2701C19.2807 15.1801 21.2307 10.7701 19.2107 6.71011Z" fill="#292D32"/>
<path d="M15.2592 22.35C15.1992 22.35 15.1292 22.34 15.0692 22.32C13.0592 21.75 10.9492 21.75 8.93918 22.32C8.56918 22.42 8.17918 22.21 8.07918 21.84C7.96918 21.47 8.18918 21.08 8.55918 20.98C10.8192 20.34 13.1992 20.34 15.4592 20.98C15.8292 21.09 16.0492 21.47 15.9392 21.84C15.8392 22.15 15.5592 22.35 15.2592 22.35Z" fill="#292D32"/>
<path d="M12.0004 14.2C11.8704 14.2 11.7404 14.17 11.6304 14.1C11.2704 13.89 11.1504 13.43 11.3504 13.08L12.2004 11.6H11.3604C10.8604 11.6 10.4504 11.38 10.2304 11.01C10.0104 10.63 10.0304 10.17 10.2804 9.73L11.3504 7.87C11.5604 7.51 12.0204 7.39 12.3704 7.59C12.7304 7.8 12.8504 8.26 12.6504 8.61L11.8004 10.1H12.6404C13.1404 10.1 13.5504 10.32 13.7704 10.69C13.9904 11.07 13.9704 11.53 13.7204 11.97L12.6504 13.83C12.5104 14.07 12.2604 14.2 12.0004 14.2Z" fill="#292D32"/>
</svg>
