<svg width="24" height="25" viewBox="0 0 24 25" fill="none" xmlns="http://www.w3.org/2000/svg">
<path opacity="0.4" d="M20.5 10.5401H17.61C15.24 10.5401 13.31 8.6101 13.31 6.2401V3.3501C13.31 2.8001 12.86 2.3501 12.31 2.3501H8.07C4.99 2.3501 2.5 4.3501 2.5 7.9201V16.7801C2.5 20.3501 4.99 22.3501 8.07 22.3501H15.93C19.01 22.3501 21.5 20.3501 21.5 16.7801V11.5401C21.5 10.9901 21.05 10.5401 20.5 10.5401Z" fill="#292D32"/>
<path d="M15.7997 2.56009C15.3897 2.15009 14.6797 2.43009 14.6797 3.00009V6.49009C14.6797 7.95009 15.9197 9.16009 17.4297 9.16009C18.3797 9.17009 19.6997 9.17009 20.8297 9.17009C21.3997 9.17009 21.6997 8.50009 21.2997 8.10009C19.8597 6.65009 17.2797 4.04009 15.7997 2.56009Z" fill="#292D32"/>
<path d="M13.5 14.1001H7.5C7.09 14.1001 6.75 13.7601 6.75 13.3501C6.75 12.9401 7.09 12.6001 7.5 12.6001H13.5C13.91 12.6001 14.25 12.9401 14.25 13.3501C14.25 13.7601 13.91 14.1001 13.5 14.1001Z" fill="#292D32"/>
<path d="M11.5 18.1001H7.5C7.09 18.1001 6.75 17.7601 6.75 17.3501C6.75 16.9401 7.09 16.6001 7.5 16.6001H11.5C11.91 16.6001 12.25 16.9401 12.25 17.3501C12.25 17.7601 11.91 18.1001 11.5 18.1001Z" fill="#292D32"/>
</svg>
