<svg width="43" height="42" viewBox="0 0 43 42" fill="none" xmlns="http://www.w3.org/2000/svg">
<path fill-rule="evenodd" clip-rule="evenodd" d="M33.0275 12.5987L33.1778 4.54259C33.2637 0.185042 30.4074 -1.30291 26.8423 1.24785L20.2276 5.96676C19.3255 6.62571 17.7148 6.85955 16.641 6.51945L10.3054 4.45758C6.24637 3.13969 3.9699 5.37158 5.23701 9.41028L7.40603 16.2761C7.77113 17.4239 7.40604 19.1244 6.61141 20.0384L2.3591 24.9274C-0.991226 28.7961 0.469195 31.7294 5.60207 31.4744L12.7751 31.113C14.0637 31.0492 15.6959 31.8783 16.3832 32.9836L20.1631 39.0416C22.8691 43.3779 26.1336 42.889 27.4436 37.9576L29.0973 31.7082C29.398 30.5391 30.6222 29.285 31.7819 28.9236L38.7188 26.7767C42.7993 25.5014 43.3577 22.3767 39.9429 19.8259L34.6168 15.8297C33.7148 15.1708 33.006 13.7041 33.0275 12.5987ZM35.5832 32.8136L42.0907 39.2543C42.7135 39.8707 42.7135 40.891 42.0907 41.5075C41.7685 41.8263 41.3604 41.9751 40.9523 41.9751C40.5443 41.9751 40.1363 41.8263 39.8141 41.5075L33.3067 35.0668C32.6839 34.4504 32.6839 33.4301 33.3067 32.8136C33.9295 32.1972 34.9604 32.1972 35.5832 32.8136Z" fill="white"/>
</svg>
