<svg width="582" height="581" viewBox="0 0 582 581" fill="none" xmlns="http://www.w3.org/2000/svg">
<path d="M319.746 41.4343C180.782 39.2964 64.4801 151.75 62.3425 290.286C60.6321 377.085 102.962 453.622 167.954 500.656C182.92 511.347 191.899 528.45 191.899 546.832V565.648C191.899 569.067 194.892 572.061 198.313 572.061H433.909C437.33 572.061 440.323 569.067 440.323 565.648V546.832C440.323 528.45 449.305 510.918 464.697 500.227C527.976 454.476 569.451 379.223 569.451 294.562C569.451 156.453 458.283 43.5722 319.746 41.4343Z" fill="#43464B"/>
<path d="M224.285 355.304L228.754 393.293L233.223 422.343L253.045 399.32L274.851 379.223C277.417 377.513 279.127 375.375 279.983 372.382C279.983 372.382 320.175 398.892 328.727 389.485C331.72 386.492 329.154 379.651 324.878 372.382C324.878 372.382 356.947 378.796 360.795 367.679C362.078 364.258 359.512 360.837 355.236 357.417L356.092 356.562C356.092 356.562 381.319 350.148 380.891 339.886C380.464 332.19 356.636 334.572 338.25 330.724C351.933 321.317 364.032 317.219 380.708 315.081C397.383 312.943 413.621 312.653 429.869 308.377C433.29 307.522 444.325 305.191 447.745 303.908C469.126 316.308 488.643 327.486 511.302 338.603C518.144 342.024 525.764 353.36 521.487 359.774C480.866 417.925 432.104 467.035 369.347 510.065C272.713 483.982 185.573 437.222 110.319 370.947C150.939 358.119 189.223 338.074 224.285 312.847C225.995 317.122 225.68 319.362 228.245 323.21C229.1 324.493 232.368 329.869 233.223 330.724L224.285 355.304Z" fill="#96979A"/>
<path d="M163.25 499.798C124.341 475.857 87.5686 448.491 54.2174 417.704C51.2239 415.138 51.2655 412.782 49.9824 408.934C49.5551 407.651 49.9824 397.761 49.9824 397.761C118.823 461.47 203.443 514.337 291.524 547.261C300.931 550.68 314.054 552.861 322.605 547.302C339.281 536.611 353.096 522.462 368.916 510.06C425.357 466.878 480.866 415.51 521.487 357.359C525.764 350.946 517.715 342.022 510.873 338.602C533.107 350.146 521.487 373.18 521.487 373.18C469.322 447.58 399.142 514.377 322.605 563.123C314.054 568.682 301.359 566.501 291.524 563.083C247.483 546.408 204.298 525.027 163.25 499.798Z" fill="#1E1F25"/>
<path d="M371.77 511.727C355.949 523.7 333.781 538.542 320.602 544.696C312.051 550.256 301.789 551.109 291.954 547.69C203.873 514.766 120.922 464.312 52.0817 400.174C45.6683 394.188 54.841 383.401 63.3929 382.119C80.0684 379.126 90.564 375.374 106.385 370.243C182.066 435.663 275.137 485.644 371.77 511.727ZM310.34 532.294C320.602 531.44 328.726 525.456 328.726 519.467C328.726 513.483 320.602 509.206 310.34 510.489C300.078 511.347 291.954 517.331 291.954 523.315C291.954 529.304 300.078 533.152 310.34 532.294ZM272.286 516.048C282.547 515.195 290.672 508.777 290.672 502.363C290.672 495.95 282.12 491.678 272.286 492.531C262.024 493.385 253.9 499.798 253.9 506.211C253.472 512.629 262.024 516.902 272.286 516.048ZM233.803 498.515C243.638 497.662 251.334 491.678 251.334 485.689C251.334 479.275 243.21 474.998 233.376 476.281C223.541 477.139 215.845 483.123 215.845 489.112C216.273 495.526 224.397 499.374 233.803 498.515Z" fill="#43464B"/>
<path d="M330.33 521.846C330.33 527.83 322.205 533.819 311.944 534.672C301.681 535.53 293.558 531.682 293.558 525.694C293.558 519.709 301.681 513.72 311.944 512.867C322.205 511.584 330.33 515.432 330.33 521.846Z" fill="#1E1F25"/>
<path d="M191.47 253.087C192.753 253.515 195.66 257.933 195.232 259.216C187.536 280.595 183.341 301.882 179.493 324.117C179.493 325.399 178.21 326.254 177.355 326.254C144.432 326.254 108.947 314.231 80.7272 297.555C52.0794 280.88 30.476 259.241 14.2279 230.166C13.8003 229.311 13.8008 228.787 14.2284 227.931C36.4626 182.18 68.1235 141.372 103.613 105.027C104.895 103.745 105.847 107.359 105.847 109.497C106.275 141.565 111.513 169.281 126.478 197.502C133.319 210.329 141.871 222.729 152.988 232.563C163.678 241.543 177.788 250.522 191.47 253.087Z" fill="#96979A"/>
<path d="M163.247 499.799C163.674 500.228 164.102 500.657 164.529 501.511C114.502 488.684 67.8964 464.738 28.1313 431.816C23.1636 426.812 26.2125 417.252 34.3365 413.404C39.4674 411.266 44.848 407.459 49.9788 404.466C49.9788 405.748 46.9446 406.588 47.8 407.871C49.0827 411.719 51.648 415.14 54.6411 417.705C87.9927 448.492 124.337 475.857 163.247 499.799Z" fill="#43464B"/>
<path d="M447.924 303.984C447.669 303.836 448.174 304.131 447.924 303.984ZM447.924 303.984C469.085 316.256 491.896 329.329 514.287 340.313C521.13 343.734 523.266 352.286 518.993 358.699C478.373 416.85 428.345 468.585 372.332 511.771C356.512 523.745 340.264 535.289 323.588 545.979C315.036 551.539 304.775 552.392 295.368 548.973C207.286 516.049 124.336 465.595 55.4952 401.457C49.0819 395.471 52.0749 384.782 60.6264 383.499C77.302 380.506 93.9776 376.658 109.798 371.099C150.418 358.272 188.9 338.603 223.962 313.376" stroke="#1E1F25" stroke-miterlimit="10" stroke-linecap="round" stroke-linejoin="round"/>
<path d="M514.296 340.313C536.53 351.858 518.998 374.52 518.998 374.52C466.833 448.917 400.132 513.055 323.595 561.801C315.044 567.36 304.782 568.214 295.375 564.795C250.907 548.116 207.293 527.164 166.674 501.94C127.764 477.994 90.992 450.628 57.6408 419.843C54.6473 417.278 52.082 413.857 50.7993 410.009C50.3716 408.726 49.9444 407.443 49.5167 405.733C48.6612 401.457 49.6548 396.616 52.2201 391.058" stroke="#1E1F25" stroke-miterlimit="10" stroke-linecap="round" stroke-linejoin="round"/>
<path d="M174.363 421.981C234.652 462.601 301.782 493.385 371.905 512.201" stroke="#1E1F25" stroke-miterlimit="10" stroke-linecap="round" stroke-linejoin="round"/>
<path d="M109.376 371.526C123.914 384.354 138.879 396.326 154.7 407.871" stroke="#1E1F25" stroke-miterlimit="10" stroke-linecap="round" stroke-linejoin="round"/>
<path d="M179.074 323.638C182.495 301.403 188.481 279.169 196.177 258.218C196.605 256.935 195.749 255.652 194.467 255.225C180.784 252.659 166.247 243.68 155.984 234.701C144.868 224.866 136.744 212.894 129.475 199.639C114.082 171.419 105.958 139.778 105.958 107.71C105.958 105.571 103.392 104.716 102.11 105.999C66.6204 142.343 37.1173 182.108 15.3107 227.859C14.8831 228.715 14.8831 229.143 15.3107 229.998C31.5587 259.073 55.0755 283.017 83.7237 299.693C112.371 316.369 144.012 325.775 176.936 325.775C177.791 325.348 179.074 324.92 179.074 323.638Z" stroke="#1E1F25" stroke-miterlimit="10" stroke-linecap="round" stroke-linejoin="round"/>
<path d="M331.717 521.18C331.717 527.164 323.593 533.153 313.331 534.006C303.069 534.86 294.945 531.012 294.945 525.028C294.945 519.043 303.069 513.055 313.331 512.201C323.166 510.918 331.717 515.191 331.717 521.18Z" stroke="#1E1F25" stroke-miterlimit="10" stroke-linecap="round" stroke-linejoin="round"/>
<path d="M293.231 504.505C293.231 510.918 285.107 516.903 274.845 518.185C264.584 519.043 256.459 514.766 256.459 508.353C256.459 501.94 264.584 495.951 274.845 494.668C284.68 493.386 293.231 497.663 293.231 504.505Z" stroke="#1E1F25" stroke-miterlimit="10" stroke-linecap="round" stroke-linejoin="round"/>
<path d="M254.327 487.401C254.327 493.385 246.63 499.374 236.796 500.228C226.962 501.081 218.838 496.809 218.838 490.82C218.838 484.836 226.534 478.847 236.369 477.993C246.203 477.14 254.327 481.412 254.327 487.401Z" stroke="#96979A" stroke-miterlimit="10" stroke-linecap="round" stroke-linejoin="round"/>
<path d="M165.811 501.51L166.239 501.939C166.666 502.368 172.454 504.169 172.882 505.023C122.855 492.196 70.4604 466.878 31.1231 433.953C24.2819 428.395 25.9922 417.705 34.1162 413.857C39.2472 411.719 44.3781 408.726 49.5091 405.733C51.2194 404.45 53.3575 403.167 55.0674 401.885" stroke="#1E1F25" stroke-miterlimit="10" stroke-linecap="round" stroke-linejoin="round"/>
<path d="M54.2126 265.487C58.4883 250.094 58.916 233.846 56.3507 218.453C55.923 216.743 55.923 215.46 55.0676 213.75C54.2126 212.467 52.9299 211.184 51.2196 211.612C48.2265 211.612 46.9439 215.46 46.9439 218.453C46.5162 226.15 49.5092 233.846 54.2126 239.404C56.778 242.397 60.6264 245.39 64.4744 244.535C68.7501 243.68 71.3159 238.977 72.5986 234.701C79.0124 217.17 82.4331 197.929 80.7228 179.116C80.7228 176.978 80.295 174.412 79.0124 172.702C77.7297 170.564 75.5916 169.281 73.4535 169.709C71.7436 170.136 70.4605 171.847 69.6055 173.557C68.7501 175.267 69.1778 177.405 69.1778 179.116C70.0332 187.667 72.5986 195.791 76.8743 203.06C78.157 205.198 79.4396 207.336 81.5777 209.046C83.7158 210.757 86.2811 211.612 88.4192 210.757C92.2672 209.901 94.4053 205.198 95.688 201.35C98.681 192.371 100.819 183.391 102.529 174.412" stroke="#1E1F25" stroke-miterlimit="10" stroke-linecap="round" stroke-linejoin="round"/>
<path d="M93.5512 286.866C96.9715 276.604 97.8269 265.914 96.5442 255.225C96.1165 253.087 96.1165 251.376 94.8338 249.666C93.5507 247.956 91.8408 247.101 89.7027 247.528C87.9923 247.956 86.7096 249.666 86.2819 251.376C85.8547 253.087 86.2819 254.797 86.7097 256.507C87.9923 260.783 89.7027 265.059 92.6957 268.48C94.4061 270.618 96.9715 272.755 99.9645 272.755C103.813 272.755 106.378 268.48 107.661 264.631C111.937 252.232 112.792 238.549 109.371 226.149C108.944 224.867 108.516 223.156 107.661 222.301C106.806 221.018 105.096 220.163 103.813 220.59C101.247 221.018 100.82 224.439 100.82 227.004C101.247 232.135 102.53 236.839 105.096 241.115C107.234 244.963 111.082 248.383 115.357 247.528C119.206 246.673 121.344 242.397 122.626 238.122C124.764 229.57 126.047 221.018 125.192 212.039" stroke="#1E1F25" stroke-miterlimit="10" stroke-linecap="round" stroke-linejoin="round"/>
<path d="M233.223 424.577C233.223 424.577 248.341 420.698 290.244 421.554C313.761 421.981 324.45 427.54 329.582 431.816C333.43 435.664 334.285 441.65 331.292 445.926C324.45 455.335 305.209 461.748 295.803 460.036C291.527 459.183 290.244 454.052 293.665 451.482C311.196 436.091 363.788 444.216 372.34 457.042C381.319 470.727 333.43 491.249 328.727 478.847C323.595 466.45 355.664 466.45 371.484 467.303C387.305 468.161 399.705 471.151 399.705 471.151" stroke="#1E1F25" stroke-miterlimit="10" stroke-linecap="round" stroke-linejoin="round"/>
<path d="M170.518 147.902C161.966 147.902 155.98 141.916 154.698 136.358C166.242 136.358 182.872 127.648 186.292 113.966C189.285 114.821 191.042 119.254 194.462 120.537C194.89 123.103 195.317 126.523 195.745 129.516" fill="#43464B"/>
<path d="M170.518 147.902C161.966 147.902 155.98 141.916 154.698 136.358C166.242 136.358 182.872 127.648 186.292 113.966C189.285 114.821 191.042 119.254 194.462 120.537C194.89 123.103 195.317 126.523 195.745 129.516" stroke="#1E1F25" stroke-miterlimit="10" stroke-linecap="round" stroke-linejoin="round"/>
<path d="M176.073 8.93848C200.017 32.0278 225.672 88.8961 204.721 124.385C199.59 133.364 189.328 144.054 173.08 146.192C173.507 146.192 173.935 146.192 174.79 145.764C176.5 145.337 178.211 144.481 179.494 143.199C183.769 139.778 186.335 134.647 187.19 129.088C187.617 125.668 187.19 121.82 186.762 118.399C185.907 114.979 184.624 111.13 183.342 108.137C171.369 80.772 146.997 56.3999 117.494 46.5654C124.763 38.0139 162.818 12.7867 176.073 8.93848Z" fill="#96979A"/>
<path d="M170.514 147.903C171.369 147.903 172.225 147.903 173.08 147.475C189.328 145.337 199.162 134.648 204.721 125.668C226.1 90.1793 200.445 33.7386 176.501 10.2217C163.246 14.0699 125.191 39.2971 117.922 46.9936C147.425 56.8281 171.797 81.2002 183.769 108.565C185.052 111.986 186.335 115.406 187.19 118.827C188.045 122.248 188.045 126.096 187.618 129.517C186.762 135.075 184.816 139.697 179.921 143.627C176.775 146.153 171.369 147.903 170.514 147.903Z" stroke="#1E1F25" stroke-miterlimit="10" stroke-linecap="round" stroke-linejoin="round"/>
<mask id="mask0_984_42669" style="mask-type:alpha" maskUnits="userSpaceOnUse" x="62" y="41" width="508" height="532">
<path d="M319.746 41.4343C180.782 39.2964 64.4801 151.75 62.3425 290.286C60.6321 377.085 102.962 453.622 167.954 500.656C182.92 511.347 191.899 528.45 191.899 546.832V565.648C191.899 569.067 194.892 572.061 198.313 572.061H433.909C437.33 572.061 440.323 569.067 440.323 565.648V546.832C440.323 528.45 449.305 510.918 464.697 500.227C527.976 454.476 569.451 379.223 569.451 294.562C569.451 156.453 458.283 43.5722 319.746 41.4343Z" fill="#32363A"/>
</mask>
<g mask="url(#mask0_984_42669)">
<path d="M260.378 195.675C260.378 195.675 198.557 257.99 232.805 326.97L222.864 365.477L247.672 407.238L285.343 376.406C285.343 376.406 313.44 394.743 324.778 393.638C342.185 389.895 325.315 372.176 325.315 372.176C325.315 372.176 361.126 378.637 365.592 370.572C370.058 362.508 352.07 355.165 352.07 355.165C352.07 355.165 362.829 364.243 382.941 346.366C394.114 335.193 340.483 330.724 340.483 330.724L371.319 230.495L260.378 195.675Z" fill="#43464B"/>
<path d="M354.808 357.127C356.039 359.784 354.468 363.279 352.018 364.876C349.743 366.852 346.765 367.31 343.787 367.768C336.529 368.826 328.942 368.192 322.129 366.277C325.014 369.551 327.7 373.379 330.585 376.653C339.45 378.079 348.56 377.085 357.342 374.398C360.145 373.56 363.147 372.17 364.518 369.228C365.69 366.84 364.658 363.629 362.852 361.699C361.421 359.596 356.813 358.503 354.808 357.127Z" fill="#96979A"/>
<path d="M358.639 359.5C367.046 356.987 374.749 352.956 381.55 347.959C382.874 346.884 383.824 345.983 384.774 345.081C385.723 344.18 385.77 342.314 385.066 340.796C384.186 338.898 381.607 338.248 379.578 337.805C376.072 337.124 372.191 336.618 368.685 335.937C370.913 335.827 371.394 338.831 371.523 341.077C371.476 342.943 370.503 344.778 369.156 346.786C365.884 351.53 363.364 355.927 358.639 359.5Z" fill="#96979A"/>
<path d="M289.352 364.401C295.122 370.951 301.091 376.946 308.783 380.759C316.476 384.572 326.091 385.65 333.243 381.413C335.952 384.308 334.534 389.116 332.236 392.025C329.563 395.109 325.459 396.088 321.578 395.581C317.697 395.075 313.839 393.634 310.18 391.641C303.766 388.618 297.926 384.869 292.086 381.119C288.803 378.952 285.167 376.025 284.334 372.261C284.052 368.702 287.054 367.311 289.352 364.401Z" fill="#96979A"/>
<path d="M243.932 334.263C229.471 311.912 224.238 283.901 230.074 258.139C235.91 232.376 252.064 209.21 274.47 195.598C276.24 191.549 278.362 188.26 280.132 184.212C255.064 193.063 235.121 211.99 224.501 236.28C213.881 260.571 213.533 289.323 224.042 313.967C227.89 323.251 234.164 331.872 243.932 334.263Z" fill="#96979A"/>
<path d="M536.16 74.7774C555.069 104.752 559.596 146 547.091 179.005C536.951 206.301 524.41 233.326 506.6 255.876C496.835 268.241 485.063 279.23 472.415 288.322L472.236 287.942C481.063 268.633 482.001 246.064 477.505 225.55C472.835 204.657 462.56 185.439 449.439 168.924C446.026 164.511 442.239 160.271 437.853 157.692C434.569 155.525 430.336 154.259 426.432 154.685C436.89 151.682 464.433 140.301 474.489 94.1376C476.174 85.9768 479.633 73.7682 484.625 66.8418C489.621 59.9158 497.349 54.9514 505.706 54.3047C518.171 52.6788 529.031 63.325 536.16 74.7774Z" fill="#96979A"/>
<path d="M422.304 156.598C422.304 156.598 423.981 156.282 426.407 155.619C436.866 152.616 464.406 141.235 474.462 95.0712C476.151 86.9104 479.606 74.7018 484.603 67.7754C489.595 60.8495 497.322 55.885 505.684 55.2388C518.676 54.7512 529.536 65.3978 536.665 76.8497C555.569 106.825 560.101 148.073 547.596 181.078C537.456 208.373 524.915 235.399 507.105 257.948C497.34 270.314 485.568 281.303 472.915 290.394C464.992 295.912 456.54 300.291 447.182 303.705C443.629 304.89 440.451 305.902 436.899 307.088C420.659 311.386 403.763 312.299 387.218 313.972C370.849 316.024 350.43 320.66 336.654 330.273" stroke="#1E1F25" stroke-miterlimit="10" stroke-linecap="round" stroke-linejoin="round"/>
<path d="M351.741 93.8418C373.434 101.312 386.909 118.585 382.303 132.249C382.104 132.802 381.905 133.356 381.33 134.083C375.645 146.403 355.325 150.747 334.734 143.689C313.04 136.219 299.565 118.945 304.172 105.281C308.778 91.6174 330.223 86.7513 351.741 93.8418ZM357.303 123.545C358.721 118.737 354.053 112.6 346.514 110.099C338.974 107.598 331.516 109.21 329.723 114.191C328.305 118.999 332.972 125.137 340.512 127.637C348.052 130.138 355.509 128.526 357.303 123.545Z" fill="#96979A"/>
<path d="M360.197 185.843C357.254 192.279 349.727 196.69 340.241 197.859C332.983 198.917 324.669 197.697 316.578 194.991C316.027 194.785 315.476 194.579 314.925 194.374C305.556 190.876 298.086 185.576 293.219 179.992C287.449 173.443 285.033 166.262 286.873 159.414L287.072 158.861L304.548 105.107C299.941 118.771 313.792 135.871 335.11 143.515C355.701 150.573 375.646 146.403 381.706 133.909L367.101 169.27L360.197 185.843Z" fill="#43464B"/>
<path d="M348.345 111.096C355.885 113.597 360.552 119.734 359.134 124.542C357.716 129.35 349.884 131.135 342.344 128.635C334.804 126.134 330.136 119.996 331.555 115.188C333.348 110.207 340.629 108.216 348.345 111.096Z" fill="#1E1F25"/>
<path d="M229.964 373.94C234.127 378.006 239.967 381.756 247.131 384.43C255.222 387.137 263.184 387.597 269.34 386.127C272.693 385.495 275.32 384.278 277.219 382.476L255.377 403.205C250.3 406.019 244.543 406.381 239.032 404.324C233.52 402.267 229.357 398.201 227.445 393.093L223.032 361.935C223.865 365.699 226.352 370.081 229.964 373.94Z" fill="#96979A"/>
<path d="M255.978 401.545L232.612 423.903L228.046 391.433C230.134 396.921 234.672 400.813 239.633 402.664C245.144 404.722 251.277 404.185 255.978 401.545Z" fill="#1E1F25"/>
<path d="M248.516 254.663C249.525 258.808 251.566 266.162 252.2 270.48C253.819 279.875 254.688 289.618 255.006 299.154C255.195 306.446 254.457 313.704 253.543 320.584C252.852 325.977 251.541 333.083 245.407 334.5C244.411 334.73 243.827 334.793 242.804 334.784C240.162 334.763 238.629 334.063 236.367 332.695C234.68 331.676 233.874 330.853 232.555 329.389C231.441 328.151 230.983 327.318 230.046 325.94C227.008 321.474 225.425 317.937 223.49 313.761C218.587 302.198 216.31 289.419 216.062 277.083C215.696 254.656 223.573 236.248 235.308 219.281C246.468 203.041 262.367 190.139 280.552 182.172" stroke="#1E1F25" stroke-miterlimit="10" stroke-linecap="round" stroke-linejoin="round"/>
<path d="M287.957 160.76L280.737 182.552L252.243 269.459" stroke="#1E1F25" stroke-miterlimit="10" stroke-linecap="round" stroke-linejoin="round"/>
<path d="M305.63 106.452L288.154 160.205" stroke="#1E1F25" stroke-miterlimit="10" stroke-linecap="round" stroke-linejoin="round"/>
<path d="M232.536 330.321L224.503 355.253" stroke="#1E1F25" stroke-miterlimit="10" stroke-linecap="round" stroke-linejoin="round"/>
<path d="M382.782 135.255L368.177 170.615L361.273 187.189L341.357 234.694" stroke="#1E1F25" stroke-miterlimit="10" stroke-linecap="round" stroke-linejoin="round"/>
<path d="M303.04 328.092L302.476 328.805L298.514 338.942L283.51 375.41" stroke="#1E1F25" stroke-miterlimit="10" stroke-linecap="round" stroke-linejoin="round"/>
<path d="M305.627 106.453C310.233 92.7897 331.127 87.7176 352.821 95.1874C374.514 102.657 387.989 119.931 383.383 133.595C383.183 134.148 382.984 134.702 382.41 135.429C376.725 147.748 356.405 152.093 335.814 145.035C314.87 137.217 301.02 120.117 305.627 106.453Z" stroke="#1E1F25" stroke-miterlimit="10" stroke-linecap="round" stroke-linejoin="round"/>
<path d="M358.209 124.51C356.791 129.318 348.958 131.103 341.419 128.603C333.879 126.102 329.211 119.965 330.629 115.157C332.423 110.175 339.88 108.564 347.42 111.065C354.96 113.565 359.627 119.703 358.209 124.51Z" stroke="#1E1F25" stroke-miterlimit="10" stroke-linecap="round" stroke-linejoin="round"/>
<path d="M361.877 185.529C361.677 186.083 361.478 186.636 361.279 187.19C358.337 193.626 350.809 198.037 341.324 199.205C334.065 200.263 325.752 199.043 317.661 196.337C317.11 196.131 316.559 195.926 316.008 195.72C306.638 192.222 299.168 186.922 294.301 181.338C288.532 174.789 286.115 167.609 287.955 160.761L288.154 160.207" stroke="#1E1F25" stroke-miterlimit="10" stroke-linecap="round" stroke-linejoin="round"/>
<path d="M224.499 355.263C224.077 357.303 223.655 359.343 224.159 361.415C224.793 365.733 227.28 370.114 230.892 373.974C235.055 378.04 240.895 381.789 248.06 384.464C256.151 387.17 264.112 387.631 270.268 386.161C273.621 385.529 275.5 384.629 278.147 382.509C280.864 380.334 282.531 378.172 283.527 375.405" stroke="#1E1F25" stroke-miterlimit="10" stroke-linecap="round" stroke-linejoin="round"/>
<path d="M348.388 228.212C348.388 228.212 345.538 230.916 341.541 235.074C335.644 241.035 326.522 249.874 317.729 260.406C298.068 282.891 277.893 311.149 288.154 323.456C289.233 324.8 290.511 325.592 292.165 326.209C295.471 327.443 299.751 326.843 304.805 324.962C316.412 320.505 331.537 308.884 345.536 297.784C360.285 286.337 378.776 280.995 397.279 282.565C409.673 283.739 425.092 282.588 442.527 274.969" stroke="#1E1F25" stroke-miterlimit="10" stroke-linecap="round" stroke-linejoin="round"/>
<path d="M368.179 170.616C383.681 173.577 399.604 174.498 414.917 170.167C422.949 167.829 430.453 164.351 438.004 159.007" stroke="#1E1F25" stroke-miterlimit="10" stroke-linecap="round" stroke-linejoin="round"/>
<path d="M414.571 169.408C413.409 163.951 417.254 158.479 422.308 156.599C423.808 155.903 425.11 155.761 426.412 155.619C430.316 155.193 434.174 156.633 437.833 158.626C442.394 161.585 446.182 165.825 449.421 169.858C462.542 186.373 472.991 205.971 477.487 226.485C482.158 247.378 481.483 270.516 472.656 289.825" stroke="#1E1F25" stroke-miterlimit="10" stroke-linecap="round" stroke-linejoin="round"/>
<path d="M256.503 402.685L276.152 384.037" stroke="#1E1F25" stroke-miterlimit="10" stroke-linecap="round" stroke-linejoin="round"/>
<path d="M228.395 392.192L232.961 424.663L256.503 402.685" stroke="#1E1F25" stroke-miterlimit="10" stroke-linecap="round" stroke-linejoin="round"/>
<path d="M224.036 361.011L228.396 392.193" stroke="#1E1F25" stroke-miterlimit="10" stroke-linecap="round" stroke-linejoin="round"/>
<path d="M283.512 375.41C283.512 375.41 323.816 402.385 332.961 392.613C335.634 389.529 333.394 382.728 329.124 375.484C319.507 359.65 298.657 340.273 298.657 340.273" stroke="#1E1F25" stroke-miterlimit="10" stroke-linecap="round" stroke-linejoin="round"/>
<path d="M328.952 375.103C328.952 375.103 361.433 381.263 365.043 370.366C366.239 367.045 363.729 363.597 359.366 360.085C345.001 348.757 308.241 335.368 303.045 328.091" stroke="#1E1F25" stroke-miterlimit="10" stroke-linecap="round" stroke-linejoin="round"/>
<path d="M359.76 358.978C359.76 358.978 385.332 352.199 384.663 341.902C384.298 334.232 355.911 334.937 337.278 331.121C331.193 329.791 325.857 328.113 323.148 325.219" stroke="#1E1F25" stroke-miterlimit="10" stroke-linecap="round" stroke-linejoin="round"/>
<path d="M228.398 392.192C230.486 397.681 235.024 401.572 240.16 403.804C245.671 405.861 251.429 405.499 256.506 402.684" stroke="#1E1F25" stroke-miterlimit="10" stroke-linecap="round" stroke-linejoin="round"/>
<path d="M315.628 195.893L247.879 384.083" stroke="#1E1F25" stroke-miterlimit="10" stroke-linecap="round" stroke-linejoin="round"/>
<path d="M230.709 373.593L243.356 334.99" stroke="#1E1F25" stroke-miterlimit="10" stroke-linecap="round" stroke-linejoin="round"/>
<path d="M292.974 182.413L255.01 299.156" stroke="#1E1F25" stroke-miterlimit="10" stroke-linecap="round" stroke-linejoin="round"/>
<path d="M291.613 326.003L268.2 385.611" stroke="#1E1F25" stroke-miterlimit="10" stroke-linecap="round" stroke-linejoin="round"/>
<path d="M341.126 199.758L317.553 260.026" stroke="#1E1F25" stroke-miterlimit="10" stroke-linecap="round" stroke-linejoin="round"/>
</g>
</svg>
