<svg width="28" height="28" viewBox="0 0 28 28" fill="none" xmlns="http://www.w3.org/2000/svg">
<path fill-rule="evenodd" clip-rule="evenodd" d="M13.3835 1.27921C13.3835 0.572715 12.7583 0 11.9871 0C11.2158 0 10.5906 0.572715 10.5906 1.27921C10.5906 2.80533 9.35347 4.04249 7.82735 4.04249H4.04417C1.81064 4.04249 0 5.70111 0 7.74713V19.0658C0 21.1118 1.81063 22.7705 4.04417 22.7705H9.9614C10.7326 22.7705 11.3578 22.1978 11.3578 21.4912C11.3578 20.7848 10.7326 20.2121 9.9614 20.2121H4.04417C3.35311 20.2121 2.79289 19.6988 2.79289 19.0658V7.74713C2.79289 7.11409 3.35311 6.6009 4.04417 6.6009H19.9306C20.6216 6.6009 21.1818 7.11409 21.1818 7.74713V11.0539C21.1818 11.7603 21.8071 12.333 22.5783 12.333C23.3494 12.333 23.9747 11.7603 23.9747 11.0539V7.74713C23.9747 5.70111 22.1641 4.04249 19.9306 4.04249H16.1468C14.6206 4.04249 13.3835 2.80533 13.3835 1.27921ZM7.74319 9.91137C8.51442 9.91137 9.13963 10.4841 9.13963 11.1905V12.8152C9.13963 13.5218 8.51442 14.0945 7.74319 14.0945C6.97195 14.0945 6.34674 13.5218 6.34674 12.8152V11.1905C6.34674 10.4841 6.97195 9.91137 7.74319 9.91137ZM17.6274 11.1905C17.6274 10.4841 17.0022 9.91137 16.2309 9.91137C15.4597 9.91137 14.8346 10.4841 14.8346 11.1905V12.8152C14.8346 13.5218 15.4597 14.0945 16.2309 14.0945C17.0022 14.0945 17.6274 13.5218 17.6274 12.8152V11.1905ZM15.2754 15.536C15.5974 16.178 15.2904 16.9375 14.5895 17.2325L14.5867 17.2337L14.5836 17.2349L14.5765 17.2378L14.5589 17.245C14.5474 17.2496 14.5336 17.255 14.5176 17.2612L14.5104 17.2639C14.4722 17.2785 14.4224 17.2968 14.3618 17.3174C14.2406 17.3587 14.0748 17.4097 13.8715 17.4596C13.4673 17.559 12.8994 17.6574 12.2297 17.6574C11.5363 17.6574 10.9628 17.5607 10.5517 17.4594C10.3457 17.4087 10.1789 17.3564 10.0561 17.3135C9.99467 17.2921 9.94404 17.2729 9.90466 17.2573C9.87725 17.2464 9.84984 17.2352 9.82279 17.2234L9.82123 17.2226C9.12635 16.9162 8.83421 16.1517 9.16874 15.5152C9.50045 14.8839 10.3238 14.6155 11.0151 14.9098C11.0199 14.9117 11.0318 14.9163 11.0507 14.9229C11.0935 14.9378 11.1704 14.9626 11.2772 14.9889C11.4916 15.0417 11.8194 15.0991 12.2297 15.0991C12.6043 15.0991 12.9249 15.0435 13.1479 14.9887C13.1546 14.987 13.4183 14.9328 13.4356 14.9026L15.2754 15.536ZM13.4356 14.9026L15.2754 15.536C14.9554 14.898 14.1336 14.6166 13.4356 14.9026ZM24.8733 17.2209C24.4281 16.8132 23.7065 16.8132 23.2613 17.2209C23.1263 17.3447 23.05 17.5269 23.1023 17.7025C23.2691 18.2621 23.7577 18.7041 24.3721 18.849C24.5525 18.8915 24.7366 18.8226 24.8733 18.6974C25.3183 18.2897 25.3183 17.6286 24.8733 17.2209ZM18.4362 21.641L20.1356 20.0843C20.5254 19.7271 21.1352 19.8034 21.5175 20.1686C21.9418 20.574 22.0422 21.2909 21.6095 21.6873L20.048 23.1176C19.3655 23.7428 19.1298 23.9532 18.8746 24.1213C18.6293 24.2828 18.3656 24.4197 18.0881 24.5292C17.7994 24.6432 17.4813 24.7201 16.5448 24.9346L16.5357 24.9366C16.4842 24.9484 16.4388 24.901 16.4527 24.8501C16.6867 23.9924 16.7706 23.7008 16.8951 23.4365C17.0148 23.1823 17.1641 22.9407 17.3405 22.716C17.5239 22.4822 17.7536 22.2663 18.4362 21.641ZM21.2865 15.4119C22.8223 14.005 25.3123 14.005 26.8481 15.4119C28.384 16.8188 28.384 19.0996 26.8481 20.5065L22.0229 24.9267L21.9478 24.9954C21.3682 25.5265 20.9668 25.8944 20.5048 26.1987C20.0959 26.468 19.6564 26.6959 19.194 26.8786C18.6714 27.0849 18.1204 27.211 17.3252 27.3929L17.2221 27.4165L14.8414 27.9618C14.3656 28.0708 13.8622 27.943 13.5153 27.6253C13.1684 27.3075 13.0291 26.8465 13.1479 26.4105L13.7432 24.2296L13.7689 24.1353C13.9676 23.4067 14.1051 22.902 14.3305 22.4234C14.5299 21.9998 14.7788 21.5973 15.0726 21.2226C15.4048 20.7994 15.8065 20.4316 16.3862 19.9007L16.4613 19.8319L21.2865 15.4119Z" fill="#EC704D"/>
</svg>
