<svg width="43" height="42" viewBox="0 0 43 42" fill="none" xmlns="http://www.w3.org/2000/svg">
<path fill-rule="evenodd" clip-rule="evenodd" d="M17.4879 34.1871C17.4926 33.3191 16.7964 32.6117 15.9332 32.607L14.765 32.601C13.2097 32.5904 12.069 32.0319 11.2989 31.1445C10.5093 30.2345 9.98439 28.8308 9.98439 26.9376V11.5339C9.98439 8.92962 12.0839 6.81843 14.6738 6.81843H25.7852C28.3749 6.81843 30.4745 8.92962 30.4745 11.5339V18.2358C30.4745 19.104 31.1744 19.8077 32.0376 19.8077C32.9009 19.8077 33.6008 19.104 33.6008 18.2358V11.5339C33.6008 7.19343 30.1016 3.6748 25.7852 3.6748H14.6738C10.3573 3.6748 6.85815 7.19345 6.85815 11.5339V26.9376C6.85815 29.3985 7.54415 31.5989 8.94332 33.2114C10.3619 34.8462 12.3878 35.7284 14.7438 35.7446H14.7544C14.7544 35.7446 14.821 35.7449 14.9363 35.7455L15.9167 35.7507C16.7799 35.7552 17.4834 35.0553 17.4879 34.1871ZM14.6249 14.5726C13.7616 14.5726 13.0618 13.8689 13.0618 13.0008C13.0618 12.1327 13.7616 11.429 14.6249 11.429H25.9107C26.774 11.429 27.4737 12.1327 27.4737 13.0008C27.4737 13.8689 26.774 14.5726 25.9107 14.5726H14.6249ZM14.6249 21.153C13.7616 21.153 13.0618 20.4494 13.0618 19.5813C13.0618 18.7131 13.7616 18.0095 14.6249 18.0095H20.102C20.9652 18.0095 21.6651 18.7131 21.6651 19.5813C21.6651 20.4494 20.9652 21.153 20.102 21.153H14.6249ZM36.2582 22.9997C36.2582 22.1316 35.5583 21.4278 34.695 21.4278C33.8318 21.4278 33.1319 22.1316 33.1319 22.9997V23.9312C32.4269 23.2637 31.6067 22.7298 30.7109 22.3563C29.739 21.951 28.6973 21.7425 27.6452 21.7425C26.5932 21.7425 25.5515 21.951 24.5796 22.3563C23.6079 22.7615 22.725 23.3553 21.9816 24.104C21.3717 24.7182 21.3723 25.7135 21.9833 26.3268C22.5942 26.9402 23.5839 26.9394 24.1938 26.3252C24.6468 25.869 25.1849 25.5071 25.7771 25.2602C26.3693 25.0133 27.0041 24.8861 27.6452 24.8861C28.2864 24.8861 28.9212 25.0133 29.5134 25.2602C30.0231 25.4727 30.4926 25.7703 30.9024 26.1401H30.0089C29.1456 26.1401 28.4457 26.8439 28.4457 27.7119C28.4457 28.58 29.1456 29.2838 30.0089 29.2838H34.661C34.769 29.286 34.877 29.277 34.9835 29.2571C35.709 29.121 36.2582 28.481 36.2582 27.7119V22.9997ZM20.6658 30.3123C20.2422 30.2934 19.8126 30.447 19.4897 30.7727C19.1853 31.0796 19.0332 31.4814 19.0334 31.883V36.753C19.0334 37.6211 19.7333 38.3249 20.5965 38.3249C21.4598 38.3249 22.1597 37.6211 22.1597 36.753V35.6646C22.8645 36.3317 23.6843 36.8652 24.5796 37.2386C25.5515 37.6437 26.5932 37.8522 27.6452 37.8522C28.6973 37.8522 29.739 37.6437 30.7109 37.2386C31.6826 36.8333 32.5655 36.2394 33.3089 35.4909C33.9188 34.8767 33.918 33.8814 33.3072 33.2681C32.6963 32.6546 31.7066 32.6553 31.0967 33.2696C30.6437 33.7259 30.1056 34.0877 29.5134 34.3346C28.9212 34.5816 28.2864 34.7087 27.6452 34.7087C27.0041 34.7087 26.3693 34.5816 25.7771 34.3346C25.268 34.1223 24.7988 33.825 24.3893 33.4559H25.4385C26.3018 33.4559 27.0017 32.7522 27.0017 31.884C27.0017 31.016 26.3018 30.3123 25.4385 30.3123H20.6658Z" fill="#FF76DF"/>
</svg>
