<svg width="16" height="14" viewBox="0 0 16 14" fill="none" xmlns="http://www.w3.org/2000/svg">
<path d="M15.6772 0.272443C15.4312 0.0341327 15.3258 0.0233005 13.5101 0.00163584C12.2919 -0.00919646 11.425 0.0341328 11.0853 0.120791C10.7925 0.185785 10.3708 0.359102 10.1482 0.478257C9.92565 0.608245 9.53909 0.900717 9.30481 1.1282C9.07054 1.35567 8.81283 1.66981 8.75426 1.84313C8.68398 2.00561 8.62541 2.59056 8.62541 3.143C8.63712 4.00959 8.59027 4.19374 8.35599 4.51871C8.21542 4.72452 8.03971 4.89784 7.98114 4.89784C7.91086 4.89784 7.85229 4.45371 7.82886 3.92293C7.81715 3.38131 7.77029 2.8722 7.73515 2.78554C7.70001 2.66638 7.37202 2.90469 6.62233 3.59796C6.03664 4.12874 5.4978 4.67036 5.42751 4.78951C5.34552 4.90867 5.26352 5.54777 5.22838 6.21938C5.18152 7.20512 5.12295 7.48676 4.93553 7.71424C4.84082 7.83366 4.73346 7.93554 4.6553 7.97684C4.61168 7.99989 4.55903 7.98544 4.54273 7.94149C4.49182 7.80421 4.45286 7.4212 4.44355 6.95597C4.4084 6.10022 4.37326 5.92691 4.22098 5.92691C4.11556 5.92691 3.78757 6.18688 3.48301 6.50102C3.17844 6.80432 2.83874 7.19428 2.73332 7.3676C2.62789 7.53009 2.45218 7.94171 2.35847 8.28835C2.26476 8.62415 2.18276 9.32825 2.18276 9.85903C2.18276 10.379 2.12419 10.9098 2.05391 11.0398C1.98363 11.1806 1.51507 11.6789 1.01137 12.1555C0.296825 12.8487 0.0976888 13.1087 0.0274054 13.4554C-0.0194502 13.7262 -0.00773635 13.932 0.074261 13.997C0.167972 14.0728 1.67907 12.7296 5.20495 9.42574C8.75426 6.11105 10.3474 4.69202 10.6753 4.5512C11.0502 4.39955 11.6125 4.35622 13.475 4.30206L15.1303 4.26379C15.5372 4.25438 15.8908 3.99619 15.9371 3.6222C15.9981 3.13026 16.0094 2.56036 15.9935 2.00561C15.9466 0.629909 15.9232 0.499922 15.6772 0.272443Z" fill="#EC704D"/>
<path d="M13.2524 5.16864H11.8325C11.3508 5.16864 10.8855 5.33031 10.5231 5.6236C10.2185 5.87274 9.69137 6.3277 9.35167 6.62017C9.02368 6.92348 8.74255 7.25928 8.74255 7.3676C8.74255 7.53009 8.91826 7.55175 10.7925 7.55175C12.2684 7.55175 12.9478 7.50842 13.229 7.4001C13.4281 7.32427 14.0138 6.86932 14.5058 6.40353C15.0095 5.92691 15.4078 5.46112 15.4195 5.36363C15.4195 5.17948 15.2438 5.16864 13.2524 5.16864Z" fill="#EC704D"/>
<path d="M12.1513 8.44C12.1513 8.34251 11.6476 8.31001 10.0194 8.31001C8.28571 8.32084 7.80544 8.35334 7.5243 8.49416C7.33688 8.59165 6.39977 9.39324 5.45094 10.2707C4.50212 11.1589 3.71728 11.928 3.71728 11.993C3.71728 12.058 4.46697 12.0905 5.80236 12.0688C7.72344 12.0472 7.92257 12.0255 8.40284 11.7872C8.69569 11.6572 9.65623 10.8773 10.5465 10.0648C11.425 9.24159 12.1513 8.51583 12.1513 8.44Z" fill="#EC704D"/>
</svg>
