<svg width="327" height="118" viewBox="0 0 327 118" fill="none" xmlns="http://www.w3.org/2000/svg">
<path d="M73.1787 24.4552C72.0305 23.2417 71.5384 23.1865 63.0632 23.0762C57.3766 23.021 53.3303 23.2417 51.7447 23.683C50.3777 24.0139 48.4093 24.8965 47.3704 25.5033C46.3315 26.1652 44.5271 27.6545 43.4335 28.8129C42.3399 29.9712 41.137 31.5709 40.8636 32.4534C40.5355 33.2809 40.2621 36.2595 40.2621 39.0727C40.3168 43.4855 40.0981 44.4232 39.0045 46.078C38.3484 47.1261 37.5282 48.0086 37.2548 48.0086C36.9267 48.0086 36.6533 45.7471 36.544 43.0442C36.4893 40.2862 36.2706 37.6937 36.1065 37.2524C35.9425 36.6456 34.4115 37.8592 30.9121 41.3894C28.1781 44.0923 25.6629 46.8503 25.3348 47.457C24.9521 48.0638 24.5693 51.3183 24.4053 54.7382C24.1866 59.7578 23.9132 61.1919 23.0383 62.3503C22.5962 62.9585 22.0951 63.4772 21.7302 63.6875C21.5266 63.8049 21.2809 63.7313 21.2048 63.5075C20.9671 62.8085 20.7853 60.8581 20.7418 58.4891C20.5778 54.1314 20.4137 53.2489 19.7029 53.2489C19.2108 53.2489 17.6798 54.5727 16.2582 56.1724C14.8365 57.7168 13.2508 59.7026 12.7587 60.5852C12.2666 61.4126 11.4464 63.5087 11.009 65.2738C10.5716 66.9838 10.1888 70.5692 10.1888 73.272C10.1888 75.9197 9.91542 78.6226 9.58735 79.2845C9.25928 80.0016 7.07212 82.539 4.72094 84.966C1.38554 88.4963 0.455997 89.8201 0.127924 91.5853C-0.0907908 92.9643 -0.0361121 94.0123 0.346639 94.3433C0.784069 94.7294 7.83763 87.8895 24.2959 71.0656C40.8636 54.1866 48.2999 46.9606 49.8309 46.2435C51.5806 45.4713 54.2052 45.2506 62.8991 44.9748L70.6258 44.78C72.5254 44.732 74.1757 43.4173 74.3922 41.5128C74.6769 39.0078 74.7297 36.1057 74.6551 33.2809C74.4363 26.2755 74.327 25.6136 73.1787 24.4552Z" fill="#EC704D"/>
<path d="M61.8602 49.3876H55.2322C52.9839 49.3876 50.812 50.2109 49.1201 51.7044C47.6984 52.9731 45.2379 55.2898 43.6522 56.7791C42.1212 58.3236 40.8089 60.0336 40.8089 60.5852C40.8089 61.4126 41.6291 61.5229 50.3777 61.5229C57.2672 61.5229 60.4386 61.3023 61.7509 60.7507C62.6804 60.3645 65.4143 58.0478 67.7108 55.6759C70.062 53.2489 71.9211 50.877 71.9758 50.3805C71.9758 49.4428 71.1556 49.3876 61.8602 49.3876Z" fill="#EC704D"/>
<path d="M56.7204 66.046C56.7204 65.5496 54.3692 65.3841 46.7689 65.3841C38.6764 65.4393 36.4346 65.6048 35.1223 66.3218C34.2475 66.8183 29.8732 70.9001 25.4442 75.3681C21.0152 79.8913 17.3517 83.8077 17.3517 84.1386C17.3517 84.4696 20.8512 84.6351 27.0845 84.5247C36.0519 84.4144 36.9814 84.3041 39.2232 83.0906C40.5902 82.4286 45.0739 78.4571 49.2294 74.3201C53.3303 70.1279 56.7204 66.4322 56.7204 66.046Z" fill="#EC704D"/>
<path d="M89.364 78.2275V40.4534H113.214V46.1896H96.108V56.4447H111.577V62.1809H96.108V78.2275H89.364Z" fill="white"/>
<path d="M129.378 78.7808C126.579 78.7808 124.161 78.1906 122.125 77.0101C120.101 75.8174 118.544 74.1328 117.454 71.9564C116.363 69.7677 115.818 67.1916 115.818 64.2282C115.818 61.314 116.363 58.7564 117.454 56.5554C118.556 54.342 120.095 52.6206 122.071 51.3909C124.046 50.149 126.367 49.5281 129.033 49.5281C130.754 49.5281 132.378 49.8109 133.905 50.3765C135.444 50.9298 136.801 51.7906 137.976 52.9587C139.164 54.1268 140.097 55.6147 140.776 57.4222C141.455 59.2175 141.794 61.357 141.794 63.8409V65.8882H118.908V61.3878H135.486C135.474 60.109 135.201 58.9716 134.668 57.9756C134.135 56.9673 133.39 56.1742 132.432 55.5962C131.487 55.0183 130.384 54.7294 129.124 54.7294C127.779 54.7294 126.597 55.0614 125.579 55.7254C124.561 56.3771 123.767 57.2378 123.198 58.3076C122.64 59.365 122.356 60.527 122.343 61.7936V65.7222C122.343 67.3699 122.64 68.784 123.234 69.9644C123.828 71.1325 124.658 72.0302 125.724 72.6573C126.791 73.2721 128.039 73.5795 129.469 73.5795C130.427 73.5795 131.293 73.4442 132.069 73.1737C132.844 72.8909 133.517 72.479 134.086 71.9379C134.656 71.3969 135.086 70.7268 135.377 69.9275L141.521 70.6284C141.133 72.2761 140.394 73.7148 139.303 74.9444C138.225 76.1617 136.843 77.1085 135.159 77.7848C133.474 78.4488 131.548 78.7808 129.378 78.7808Z" fill="white"/>
<path d="M155.395 78.7992C153.626 78.7992 152.033 78.4795 150.615 77.8401C149.209 77.1884 148.094 76.2293 147.27 74.9628C146.458 73.6963 146.052 72.1347 146.052 70.278C146.052 68.6794 146.343 67.3576 146.925 66.3124C147.506 65.2672 148.3 64.4311 149.306 63.804C150.312 63.1769 151.445 62.7035 152.705 62.3838C153.978 62.0518 155.292 61.812 156.65 61.6644C158.286 61.4923 159.613 61.3386 160.631 61.2033C161.649 61.0558 162.388 60.8344 162.848 60.5393C163.321 60.2319 163.557 59.7585 163.557 59.1191V59.0085C163.557 57.619 163.151 56.5431 162.339 55.7807C161.528 55.0183 160.358 54.6371 158.831 54.6371C157.219 54.6371 155.941 54.9937 154.996 55.7069C154.062 56.4201 153.432 57.2624 153.105 58.2338L146.961 57.3485C147.446 55.627 148.245 54.1883 149.36 53.0325C150.475 51.8643 151.839 50.9913 153.45 50.4134C155.062 49.8232 156.844 49.5281 158.795 49.5281C160.14 49.5281 161.479 49.6879 162.812 50.0076C164.145 50.3273 165.363 50.856 166.466 51.5938C167.569 52.3193 168.453 53.3091 169.12 54.5634C169.799 55.8176 170.138 57.3853 170.138 59.2667V78.2275H163.812V74.3357H163.594C163.194 75.1227 162.63 75.8604 161.903 76.549C161.188 77.2253 160.285 77.7725 159.195 78.1906C158.116 78.5964 156.85 78.7992 155.395 78.7992ZM157.104 73.8931C158.425 73.8931 159.57 73.6287 160.54 73.0999C161.509 72.5589 162.255 71.8457 162.776 70.9604C163.309 70.0751 163.576 69.1098 163.576 68.0646V64.7262C163.37 64.8984 163.018 65.0582 162.521 65.2058C162.037 65.3533 161.491 65.4824 160.885 65.5931C160.279 65.7038 159.679 65.8021 159.086 65.8882C158.492 65.9743 157.977 66.048 157.54 66.1095C156.559 66.2448 155.68 66.4661 154.905 66.7735C154.129 67.0809 153.517 67.5113 153.069 68.0646C152.62 68.6057 152.396 69.3066 152.396 70.1673C152.396 71.3969 152.838 72.3253 153.723 72.9524C154.608 73.5795 155.735 73.8931 157.104 73.8931Z" fill="white"/>
<path d="M190.697 49.8969V55.0614H174.646V49.8969H190.697ZM178.609 43.1094H185.189V69.7062C185.189 70.6038 185.322 71.2924 185.589 71.7719C185.868 72.2392 186.231 72.5589 186.68 72.7311C187.128 72.9032 187.625 72.9893 188.17 72.9893C188.582 72.9893 188.958 72.9585 189.297 72.8971C189.649 72.8356 189.915 72.7802 190.097 72.7311L191.206 77.9508C190.855 78.0738 190.352 78.209 189.697 78.3566C189.055 78.5041 188.267 78.5902 187.334 78.6148C185.686 78.664 184.202 78.4119 182.881 77.8586C181.56 77.293 180.511 76.4199 179.736 75.2395C178.972 74.059 178.597 72.5835 178.609 70.8128V43.1094Z" fill="white"/>
<path d="M203.381 61.6276V78.2275H196.8V40.4534H203.235V54.7109H203.563C204.217 53.1124 205.229 51.852 206.598 50.9298C207.98 49.9953 209.737 49.5281 211.87 49.5281C213.809 49.5281 215.499 49.94 216.942 50.7638C218.384 51.5877 219.499 52.7927 220.286 54.3789C221.086 55.9651 221.486 57.9018 221.486 60.1889V78.2275H214.906V61.2218C214.906 59.3159 214.421 57.8342 213.451 56.7767C212.494 55.7069 211.149 55.172 209.416 55.172C208.252 55.172 207.21 55.4302 206.289 55.9467C205.38 56.4508 204.665 57.1825 204.144 58.1416C203.635 59.1007 203.381 60.2627 203.381 61.6276Z" fill="white"/>
<path d="M240.555 78.7808C237.755 78.7808 235.338 78.1906 233.302 77.0101C231.278 75.8174 229.721 74.1328 228.63 71.9564C227.539 69.7677 226.994 67.1916 226.994 64.2282C226.994 61.314 227.539 58.7564 228.63 56.5554C229.733 54.342 231.272 52.6206 233.247 51.3909C235.223 50.149 237.543 49.5281 240.209 49.5281C241.93 49.5281 243.554 49.8109 245.081 50.3765C246.62 50.9298 247.977 51.7906 249.153 52.9587C250.341 54.1268 251.274 55.6147 251.952 57.4222C252.631 59.2175 252.97 61.357 252.97 63.8409V65.8882H230.084V61.3878H246.663C246.65 60.109 246.378 58.9716 245.845 57.9756C245.311 56.9673 244.566 56.1742 243.609 55.5962C242.663 55.0183 241.561 54.7294 240.3 54.7294C238.955 54.7294 237.774 55.0614 236.756 55.7254C235.738 56.3771 234.944 57.2378 234.374 58.3076C233.817 59.365 233.532 60.527 233.52 61.7936V65.7222C233.52 67.3699 233.817 68.784 234.411 69.9644C235.004 71.1325 235.835 72.0302 236.901 72.6573C237.967 73.2721 239.216 73.5795 240.646 73.5795C241.603 73.5795 242.469 73.4442 243.245 73.1737C244.021 72.8909 244.693 72.479 245.263 71.9379C245.832 71.3969 246.263 70.7268 246.553 69.9275L252.698 70.6284C252.31 72.2761 251.571 73.7148 250.48 74.9444C249.401 76.1617 248.02 77.1085 246.335 77.7848C244.651 78.4488 242.724 78.7808 240.555 78.7808Z" fill="white"/>
<path d="M258.537 78.2275V49.8969H264.918V54.6187H265.209C265.718 52.9833 266.59 51.7229 267.826 50.8376C269.074 49.94 270.498 49.4912 272.098 49.4912C272.462 49.4912 272.868 49.5096 273.316 49.5465C273.776 49.5711 274.158 49.6141 274.461 49.6756V55.8176C274.182 55.7192 273.74 55.6331 273.134 55.5594C272.54 55.4733 271.965 55.4303 271.407 55.4303C270.208 55.4303 269.129 55.6946 268.172 56.2234C267.226 56.7398 266.481 57.4591 265.936 58.3813C265.39 59.3036 265.118 60.3672 265.118 61.5722V78.2275H258.537Z" fill="white"/>
<path d="M279.687 78.6332C278.585 78.6332 277.639 78.2398 276.852 77.4528C276.064 76.6659 275.676 75.7067 275.688 74.5755C275.676 73.4688 276.064 72.522 276.852 71.7351C277.639 70.9481 278.585 70.5546 279.687 70.5546C280.754 70.5546 281.681 70.9481 282.469 71.7351C283.268 72.522 283.674 73.4688 283.687 74.5755C283.674 75.3256 283.48 76.008 283.105 76.6228C282.741 77.2376 282.257 77.7295 281.651 78.0984C281.057 78.455 280.402 78.6332 279.687 78.6332Z" fill="white"/>
<path d="M298.515 78.7992C296.746 78.7992 295.152 78.4795 293.734 77.8401C292.329 77.1884 291.214 76.2293 290.39 74.9628C289.578 73.6963 289.172 72.1347 289.172 70.278C289.172 68.6794 289.463 67.3576 290.044 66.3124C290.626 65.2672 291.42 64.4311 292.426 63.804C293.431 63.1769 294.565 62.7035 295.825 62.3838C297.097 62.0518 298.412 61.812 299.769 61.6644C301.405 61.4923 302.732 61.3386 303.75 61.2033C304.768 61.0558 305.508 60.8344 305.968 60.5393C306.441 60.2319 306.677 59.7585 306.677 59.1191V59.0085C306.677 57.619 306.271 56.5431 305.459 55.7807C304.647 55.0183 303.478 54.6371 301.951 54.6371C300.339 54.6371 299.061 54.9937 298.115 55.7069C297.182 56.4201 296.552 57.2624 296.225 58.2338L290.081 57.3485C290.565 55.627 291.365 54.1883 292.48 53.0325C293.595 51.8643 294.958 50.9913 296.57 50.4134C298.182 49.8232 299.963 49.5281 301.914 49.5281C303.26 49.5281 304.599 49.6879 305.932 50.0076C307.265 50.3273 308.483 50.856 309.586 51.5938C310.688 52.3193 311.573 53.3091 312.24 54.5634C312.918 55.8176 313.258 57.3853 313.258 59.2667V78.2275H306.932V74.3357H306.713C306.314 75.1227 305.75 75.8604 305.023 76.549C304.308 77.2253 303.405 77.7725 302.314 78.1906C301.236 78.5964 299.969 78.7992 298.515 78.7992ZM300.224 73.8931C301.545 73.8931 302.69 73.6287 303.66 73.0999C304.629 72.5589 305.374 71.8457 305.895 70.9604C306.429 70.0751 306.695 69.1098 306.695 68.0646V64.7262C306.489 64.8984 306.138 65.0582 305.641 65.2058C305.156 65.3533 304.611 65.4824 304.005 65.5931C303.399 65.7038 302.799 65.8021 302.205 65.8882C301.611 65.9743 301.096 66.048 300.66 66.1095C299.679 66.2448 298.8 66.4661 298.024 66.7735C297.249 67.0809 296.637 67.5113 296.188 68.0646C295.74 68.6057 295.516 69.3066 295.516 70.1673C295.516 71.3969 295.958 72.3253 296.843 72.9524C297.727 73.5795 298.855 73.8931 300.224 73.8931Z" fill="white"/>
<path d="M319.874 78.2275V49.8969H326.455V78.2275H319.874ZM323.183 45.8761C322.14 45.8761 321.244 45.5256 320.492 44.8247C319.741 44.1116 319.365 43.257 319.365 42.261C319.365 41.2527 319.741 40.3981 320.492 39.6972C321.244 38.984 322.14 38.6274 323.183 38.6274C324.237 38.6274 325.134 38.984 325.873 39.6972C326.624 40.3981 327 41.2527 327 42.261C327 43.257 326.624 44.1116 325.873 44.8247C325.134 45.5256 324.237 45.8761 323.183 45.8761Z" fill="white"/>
</svg>
