<svg width="41" height="41" viewBox="0 0 41 41" fill="none" xmlns="http://www.w3.org/2000/svg">
<path d="M20.5038 27.5835C16.1372 27.5835 12.5872 24.0335 12.5872 19.6668V10.5002C12.5872 6.1335 16.1372 2.5835 20.5038 2.5835C24.8705 2.5835 28.4205 6.1335 28.4205 10.5002V19.6668C28.4205 24.0335 24.8705 27.5835 20.5038 27.5835ZM20.5038 5.0835C17.5205 5.0835 15.0872 7.51683 15.0872 10.5002V19.6668C15.0872 22.6502 17.5205 25.0835 20.5038 25.0835C23.4872 25.0835 25.9205 22.6502 25.9205 19.6668V10.5002C25.9205 7.51683 23.4872 5.0835 20.5038 5.0835Z" fill="#D9D9D9" fill-opacity="0.88"/>
<path d="M20.5039 33.4168C12.7872 33.4168 6.50391 27.1335 6.50391 19.4168V16.5835C6.50391 15.9002 7.07057 15.3335 7.75391 15.3335C8.43724 15.3335 9.00391 15.9002 9.00391 16.5835V19.4168C9.00391 25.7502 14.1706 30.9168 20.5039 30.9168C26.8372 30.9168 32.0039 25.7502 32.0039 19.4168V16.5835C32.0039 15.9002 32.5706 15.3335 33.2539 15.3335C33.9372 15.3335 34.5039 15.9002 34.5039 16.5835V19.4168C34.5039 27.1335 28.2206 33.4168 20.5039 33.4168Z" fill="#D9D9D9"/>
<path d="M22.8207 12.4669C22.6874 12.4669 22.5374 12.4502 22.3874 12.4002C21.1707 11.9502 19.8374 11.9502 18.6207 12.4002C17.9707 12.6335 17.254 12.3002 17.0207 11.6502C16.7874 11.0002 17.1207 10.2835 17.7707 10.0502C19.5374 9.41686 21.4874 9.41686 23.254 10.0502C23.904 10.2835 24.2374 11.0002 24.004 11.6502C23.804 12.1502 23.3207 12.4669 22.8207 12.4669Z" fill="#D9D9D9" fill-opacity="0.88"/>
<path d="M21.8373 16.0002C21.7206 16.0002 21.6206 15.9835 21.504 15.9502C20.8373 15.7669 20.154 15.7669 19.4873 15.9502C18.8206 16.1335 18.1373 15.7335 17.954 15.0669C17.7706 14.4169 18.1706 13.7335 18.8373 13.5502C19.9206 13.2502 21.0873 13.2502 22.1706 13.5502C22.8373 13.7335 23.2373 14.4169 23.054 15.0835C22.904 15.6335 22.3873 16.0002 21.8373 16.0002Z" fill="#D9D9D9" fill-opacity="0.88"/>
<path d="M20.5039 38.4165C19.8206 38.4165 19.2539 37.8498 19.2539 37.1665V32.1665C19.2539 31.4832 19.8206 30.9165 20.5039 30.9165C21.1872 30.9165 21.7539 31.4832 21.7539 32.1665V37.1665C21.7539 37.8498 21.1872 38.4165 20.5039 38.4165Z" fill="#D9D9D9" fill-opacity="0.88"/>
</svg>
