<svg width="19" height="24" viewBox="0 0 19 24" fill="none" xmlns="http://www.w3.org/2000/svg">
<path d="M11.4627 0.838745H2.55231C1.96151 0.838745 1.39491 1.07344 0.977157 1.49119C0.5594 1.90895 0.324707 2.47555 0.324707 3.06635V20.8872C0.324707 21.478 0.5594 22.0446 0.977157 22.4623C1.39491 22.8801 1.96151 23.1148 2.55231 23.1148H15.9179C16.5087 23.1148 17.0753 22.8801 17.4931 22.4623C17.9108 22.0446 18.1455 21.478 18.1455 20.8872V7.52155L11.4627 0.838745ZM6.44839 16.6436C6.10422 16.9666 5.59633 17.1114 5.0049 17.1114C4.89022 17.1126 4.7756 17.1059 4.66185 17.0913V18.6796H3.66611V14.2957C4.11548 14.2287 4.56954 14.1981 5.02384 14.2044C5.64422 14.2044 6.08529 14.3224 6.38267 14.5597C6.66558 14.7847 6.85715 15.1533 6.85715 15.5877C6.85604 16.0243 6.71125 16.393 6.44839 16.6436ZM10.6886 18.1528C10.2208 18.5415 9.50911 18.7264 8.63924 18.7264C8.11798 18.7264 7.74931 18.693 7.4987 18.6596V14.2968C7.94823 14.2312 8.40215 14.2003 8.85643 14.2044C9.69957 14.2044 10.2476 14.3558 10.6753 14.6788C11.1375 15.0219 11.4271 15.5688 11.4271 16.354C11.4271 17.2038 11.1163 17.7908 10.6886 18.1528ZM14.8041 15.062H13.0978V16.0767H14.6927V16.8942H13.0978V18.6807H12.0887V14.2378H14.8041V15.062ZM11.4627 8.63536H10.3489V3.06635L15.9179 8.63536H11.4627Z" fill="#EC4D4D"/>
</svg>
