<svg width="24" height="25" viewBox="0 0 24 25" fill="none" xmlns="http://www.w3.org/2000/svg">
<path d="M21.07 5.60646C19.46 5.44646 17.85 5.32646 16.23 5.23646V5.22646L16.01 3.92646C15.86 3.00646 15.64 1.62646 13.3 1.62646H10.68C8.35004 1.62646 8.13003 2.94646 7.97004 3.91646L7.76004 5.19647C6.83004 5.25646 5.90004 5.31647 4.97004 5.40647L2.93004 5.60646C2.51004 5.64646 2.21004 6.01647 2.25004 6.42647C2.29004 6.83646 2.65004 7.13646 3.07004 7.09646L5.11004 6.89646C10.35 6.37646 15.63 6.57646 20.93 7.10646C20.96 7.10646 20.98 7.10646 21.01 7.10646C21.39 7.10646 21.72 6.81646 21.76 6.42647C21.79 6.01647 21.49 5.64646 21.07 5.60646Z" fill="#D9D9D9"/>
<path opacity="0.3991" d="M19.23 8.51647C18.99 8.26647 18.66 8.12646 18.32 8.12646H5.67999C5.33999 8.12646 4.99999 8.26647 4.76999 8.51647C4.53999 8.76647 4.40999 9.10646 4.42999 9.45646L5.04999 19.7165C5.15999 21.2365 5.29999 23.1365 8.78999 23.1365H15.21C18.7 23.1365 18.84 21.2465 18.95 19.7165L19.57 9.46646C19.59 9.10646 19.46 8.76647 19.23 8.51647Z" fill="#D9D9D9"/>
<path fill-rule="evenodd" clip-rule="evenodd" d="M9.57996 17.3765C9.57996 16.9623 9.91574 16.6265 10.33 16.6265H13.66C14.0742 16.6265 14.41 16.9623 14.41 17.3765C14.41 17.7907 14.0742 18.1265 13.66 18.1265H10.33C9.91574 18.1265 9.57996 17.7907 9.57996 17.3765Z" fill="#D9D9D9"/>
<path fill-rule="evenodd" clip-rule="evenodd" d="M8.75 13.3765C8.75 12.9623 9.08579 12.6265 9.5 12.6265H14.5C14.9142 12.6265 15.25 12.9623 15.25 13.3765C15.25 13.7907 14.9142 14.1265 14.5 14.1265H9.5C9.08579 14.1265 8.75 13.7907 8.75 13.3765Z" fill="#D9D9D9"/>
</svg>
