<svg width="24" height="25" viewBox="0 0 24 25" fill="none" xmlns="http://www.w3.org/2000/svg">
<path opacity="0.4" d="M9.51002 4.72965L18.07 9.00965C21.91 10.9296 21.91 14.0696 18.07 15.9896L9.51002 20.2696C3.75002 23.1496 1.40002 20.7896 4.28002 15.0396L5.15002 13.3096C5.40002 12.7996 5.40002 12.2096 5.15002 11.6996L4.28002 9.95965C1.40002 4.20965 3.76002 1.84965 9.51002 4.72965Z" fill="#292D32"/>
<path d="M14.8399 13.25H9.43994C9.02994 13.25 8.68994 12.91 8.68994 12.5C8.68994 12.09 9.02994 11.75 9.43994 11.75H14.8399C15.2499 11.75 15.5899 12.09 15.5899 12.5C15.5899 12.91 15.2499 13.25 14.8399 13.25Z" fill="#292D32"/>
</svg>
