<svg width="24" height="24" viewBox="0 0 24 24" fill="none" xmlns="http://www.w3.org/2000/svg">
<rect opacity="0.4" x="13" y="2" width="9" height="9" rx="3" fill="#D9D9D9"/>
<path fill-rule="evenodd" clip-rule="evenodd" d="M5 2C3.34315 2 2 3.34315 2 5V8C2 9.65685 3.34315 11 5 11H8C9.65685 11 11 9.65685 11 8V5C11 3.34315 9.65685 2 8 2H5ZM2 16C2 14.3431 3.34315 13 5 13H8C9.65685 13 11 14.3431 11 16V19C11 20.6569 9.65685 22 8 22H5C3.34315 22 2 20.6569 2 19V16ZM13 16C13 14.3431 14.3431 13 16 13H19C20.6569 13 22 14.3431 22 16V19C22 20.6569 20.6569 22 19 22H16C14.3431 22 13 20.6569 13 19V16Z" fill="#D9D9D9"/>
</svg>
