<svg width="19" height="23" viewBox="0 0 19 23" fill="none" xmlns="http://www.w3.org/2000/svg">
<path d="M11.4627 0.584106H2.55231C1.96151 0.584106 1.39491 0.8188 0.977157 1.23656C0.5594 1.65431 0.324707 2.22091 0.324707 2.81171V20.6325C0.324707 21.2233 0.5594 21.7899 0.977157 22.2077C1.39491 22.6254 1.96151 22.8601 2.55231 22.8601H15.9179C16.5087 22.8601 17.0753 22.6254 17.4931 22.2077C17.9108 21.7899 18.1455 21.2233 18.1455 20.6325V7.26692L11.4627 0.584106ZM10.3489 2.81171L15.9179 8.38072H10.3489V2.81171ZM5.37134 18.4049H4.52485V16.8334H3.12592V18.4049H2.27163V14.6481H3.12592V16.0916H4.52597V14.6481H5.37245L5.37134 18.4049ZM8.71275 15.362H7.68693V18.4049H6.83376V15.362H5.82577V14.6481H8.71275V15.362ZM12.3738 18.4049L12.3181 16.967C12.2992 16.5159 12.2847 15.969 12.2847 15.4222H12.2669C12.1511 15.9022 11.994 16.4368 11.8492 16.8779L11.3926 18.3437H10.7276L10.3278 16.8879C10.1924 16.4047 10.0787 15.9156 9.98693 15.4222H9.97468C9.95129 15.9301 9.93681 16.5092 9.90897 16.977L9.84214 18.4049H9.05691L9.29749 14.6481H10.428L10.7967 15.9022C10.9125 16.3377 11.0306 16.8055 11.113 17.2455H11.1319C11.2377 16.81 11.3647 16.3143 11.4883 15.8966L11.8882 14.6481H12.9975L13.2036 18.4049H12.3738ZM16.1986 18.4049H13.8507V14.6481H14.705V17.691H16.1997L16.1986 18.4049Z" fill="#EC704D"/>
</svg>
