<svg width="24" height="24" viewBox="0 0 24 24" fill="none" xmlns="http://www.w3.org/2000/svg">
<path d="M20.49 8.51856V8.52V16.48C20.49 18.1107 20.0065 19.3514 19.1739 20.1839C18.3414 21.0165 17.1007 21.5 15.47 21.5H7.52C5.89461 21.5 4.65378 21.0167 3.8198 20.1827C2.98586 19.3488 2.5 18.1055 2.5 16.47V8.52C2.5 6.88993 2.98564 5.64912 3.81957 4.81629C4.65361 3.98334 5.8946 3.5 7.52 3.5H15.48C17.1055 3.5 18.3463 3.98339 19.1789 4.81605C20.0114 5.6485 20.4947 6.88882 20.49 8.51856Z" stroke="#FF7C56"/>
<path fill-rule="evenodd" clip-rule="evenodd" d="M15.6395 2.97979C17.4795 1.13979 19.2295 1.17979 21.0195 2.97979C21.9295 3.89979 22.3795 4.78979 22.3795 5.68979C22.3795 6.57979 21.9295 7.44979 21.0195 8.35979L19.9095 9.47979C19.8395 9.54979 19.7395 9.58979 19.6395 9.58979C19.6095 9.58979 19.5595 9.58979 19.5295 9.57979C17.0795 8.87979 15.1195 6.91979 14.4195 4.46979C14.3795 4.33979 14.4095 4.19979 14.5095 4.09979L15.6395 2.97979ZM17.0891 10.0098C17.3291 10.1598 17.5891 10.2898 17.8591 10.4198C17.8837 10.4304 17.908 10.4408 17.9321 10.4512C18.183 10.5589 18.4111 10.6569 18.6391 10.7298L13.2591 16.1098C12.9091 16.4698 12.2491 16.7998 11.7591 16.8698L8.78912 17.2898C8.67912 17.2998 8.56912 17.3098 8.45912 17.3098C7.95912 17.3098 7.50912 17.1398 7.17912 16.8098C6.78912 16.4198 6.61912 15.8298 6.70912 15.1998L7.13912 12.2198C7.20912 11.7298 7.54912 11.0698 7.89912 10.7198L13.2791 5.33984C13.3691 5.58984 13.4691 5.84984 13.5991 6.12984C13.7191 6.38984 13.8491 6.63984 13.9991 6.88984C14.1191 7.09984 14.2491 7.29984 14.3591 7.43984C14.4891 7.64984 14.6391 7.83984 14.7391 7.94984C14.7891 8.03984 14.8491 8.09984 14.8691 8.11984C15.1791 8.48984 15.5091 8.82984 15.8191 9.07984C15.8991 9.15984 15.9591 9.20984 15.9791 9.21984C16.1591 9.36984 16.3391 9.51984 16.4991 9.61984C16.6891 9.75984 16.8891 9.88984 17.0891 10.0098Z" fill="#EC704D"/>
</svg>
