<svg width="25" height="25" viewBox="0 0 25 25" fill="none" xmlns="http://www.w3.org/2000/svg">
<path opacity="0.4" d="M9.17969 7.57988V17.1699C9.17969 20.3799 11.1797 22.3799 14.3797 22.3799H16.9697C20.1697 22.3799 22.1697 20.3799 22.1697 17.1799V7.57988C22.1797 4.37988 20.1797 2.37988 16.9797 2.37988H14.3797C11.1797 2.37988 9.17969 4.37988 9.17969 7.57988Z" fill="white"/>
<path d="M5.74914 8.50039L2.39914 11.8504C2.10914 12.1404 2.10914 12.6204 2.39914 12.9104L5.74914 16.2604C6.03914 16.5504 6.51914 16.5504 6.80914 16.2604C7.09914 15.9704 7.09914 15.4904 6.80914 15.2004L4.73914 13.1304H15.4291C15.8391 13.1304 16.1791 12.7904 16.1791 12.3804C16.1791 11.9704 15.8391 11.6304 15.4291 11.6304H4.73914L6.80914 9.56039C6.95914 9.41039 7.02914 9.22039 7.02914 9.03039C7.02914 8.84039 6.95914 8.64039 6.80914 8.50039C6.51914 8.20039 6.04914 8.20039 5.74914 8.50039Z" fill="white"/>
</svg>
