<svg width="24" height="24" viewBox="0 0 24 24" fill="none" xmlns="http://www.w3.org/2000/svg">
<path opacity="0.4" fill-rule="evenodd" clip-rule="evenodd" d="M20.3601 12.7296C19.9901 12.7296 19.6801 12.4496 19.6401 12.0796C19.4001 9.87958 18.2201 7.89958 16.4001 6.63958C16.0701 6.40958 15.9901 5.95958 16.2201 5.62958C16.4501 5.29958 16.9001 5.21958 17.2301 5.44958C19.4001 6.95958 20.8001 9.31958 21.0901 11.9296C21.1301 12.3296 20.8401 12.6896 20.4401 12.7296H20.3601ZM3.7398 12.7796H3.6698C3.2698 12.7396 2.9798 12.3796 3.0198 11.9796C3.2898 9.36959 4.6698 7.00959 6.8198 5.48959C7.1398 5.25959 7.5998 5.33959 7.8298 5.65959C8.0598 5.98959 7.9798 6.43959 7.6598 6.66959C5.8598 7.94959 4.6898 9.92959 4.4698 12.1196C4.4298 12.4996 4.1098 12.7796 3.7398 12.7796ZM12.0601 21.9896C13.4401 21.9896 14.7601 21.6896 15.9901 21.0996C16.3601 20.9296 16.5001 20.4896 16.3201 20.1296C16.1601 19.7596 15.7201 19.6196 15.3501 19.7896C14.7301 20.0896 14.0601 20.2996 13.3801 20.4196C12.4601 20.5796 11.5201 20.5696 10.6001 20.3896C9.9201 20.2596 9.2501 20.0396 8.6201 19.7196C8.2601 19.5496 7.8201 19.6896 7.6501 20.0496C7.4701 20.4096 7.6101 20.8496 7.9701 21.0196C9.2501 21.6696 10.6201 21.9896 12.0601 21.9896Z" fill="#D9D9D9"/>
<path fill-rule="evenodd" clip-rule="evenodd" d="M12.05 2.00977C10.5 2.00977 9.22998 3.26977 9.22998 4.82977C9.22998 6.38977 10.49 7.64977 12.05 7.64977C13.61 7.64977 14.87 6.38977 14.87 4.82977C14.87 3.26977 13.61 2.00977 12.05 2.00977ZM5.04998 13.8698C3.49998 13.8698 2.22998 15.1298 2.22998 16.6898C2.22998 18.2498 3.48998 19.5098 5.04998 19.5098C6.60998 19.5098 7.86998 18.2498 7.86998 16.6898C7.86998 15.1298 6.59998 13.8698 5.04998 13.8698ZM16.1299 16.6898C16.1299 15.1298 17.3999 13.8698 18.9499 13.8698C20.5099 13.8698 21.7699 15.1298 21.7699 16.6898C21.7699 18.2498 20.5099 19.5098 18.9499 19.5098C17.3899 19.5098 16.1299 18.2498 16.1299 16.6898Z" fill="#D9D9D9"/>
</svg>
