<svg width="25" height="25" viewBox="0 0 25 25" fill="none" xmlns="http://www.w3.org/2000/svg">
<path opacity="0.4" d="M12.1797 22.04C17.7025 22.04 22.1797 17.5629 22.1797 12.04C22.1797 6.51719 17.7025 2.04004 12.1797 2.04004C6.65684 2.04004 2.17969 6.51719 2.17969 12.04C2.17969 17.5629 6.65684 22.04 12.1797 22.04Z" fill="white"/>
<path d="M12.1797 13.79C12.5897 13.79 12.9297 13.45 12.9297 13.04V8.04004C12.9297 7.63004 12.5897 7.29004 12.1797 7.29004C11.7697 7.29004 11.4297 7.63004 11.4297 8.04004V13.04C11.4297 13.45 11.7697 13.79 12.1797 13.79Z" fill="white"/>
<path d="M13.0997 15.6599C13.0497 15.5399 12.9797 15.4299 12.8897 15.3299C12.7897 15.2399 12.6797 15.1699 12.5597 15.1199C12.3197 15.0199 12.0397 15.0199 11.7997 15.1199C11.6797 15.1699 11.5697 15.2399 11.4697 15.3299C11.3797 15.4299 11.3097 15.5399 11.2597 15.6599C11.2097 15.7799 11.1797 15.9099 11.1797 16.0399C11.1797 16.1699 11.2097 16.2999 11.2597 16.4199C11.3097 16.5499 11.3797 16.6499 11.4697 16.7499C11.5697 16.8399 11.6797 16.9099 11.7997 16.9599C11.9197 17.0099 12.0497 17.0399 12.1797 17.0399C12.3097 17.0399 12.4397 17.0099 12.5597 16.9599C12.6797 16.9099 12.7897 16.8399 12.8897 16.7499C12.9797 16.6499 13.0497 16.5499 13.0997 16.4199C13.1497 16.2999 13.1797 16.1699 13.1797 16.0399C13.1797 15.9099 13.1497 15.7799 13.0997 15.6599Z" fill="white"/>
</svg>
