<svg width="19" height="25" viewBox="0 0 19 25" fill="none" xmlns="http://www.w3.org/2000/svg">
<path d="M18.1787 6.52027C18.3354 6.6769 18.4241 6.88835 18.4241 7.11024V23.209C18.4241 23.6711 18.0508 24.0444 17.5888 24.0444H0.881738C0.419684 24.0444 0.0463867 23.6711 0.0463867 23.209V1.48989C0.0463867 1.02784 0.419684 0.654541 0.881738 0.654541H11.9684C12.1903 0.654541 12.4044 0.743297 12.561 0.899925L18.1787 6.52027ZM16.4976 7.49398L11.5847 2.58107V7.49398H16.4976ZM9.23525 13.7617L10.6138 18.9043C10.6317 18.971 10.671 19.0299 10.7258 19.072C10.7805 19.114 10.8476 19.1367 10.9167 19.1367H11.746C11.815 19.1368 11.882 19.1141 11.9367 19.0722C11.9915 19.0303 12.0309 18.9714 12.0488 18.9049L13.9902 11.7C13.9973 11.6734 14.0008 11.646 14.0007 11.6185C14.0007 11.5354 13.9677 11.4558 13.9089 11.397C13.8502 11.3383 13.7705 11.3053 13.6874 11.3053H12.7589C12.688 11.3052 12.6192 11.3293 12.5637 11.3734C12.5082 11.4175 12.4693 11.4792 12.4534 11.5483L11.2584 16.7458L9.95939 11.5426C9.94245 11.4748 9.90335 11.4146 9.84829 11.3716C9.79324 11.3286 9.72539 11.3053 9.65553 11.3053H8.81496C8.74507 11.3053 8.6772 11.3287 8.62214 11.3717C8.56708 11.4148 8.52799 11.475 8.5111 11.5428L7.21474 16.7353L6.01132 11.548C5.99534 11.4791 5.95651 11.4177 5.90115 11.3736C5.84579 11.3296 5.77715 11.3056 5.70641 11.3055H4.78257C4.75515 11.3055 4.72786 11.3091 4.70138 11.3162C4.62119 11.3378 4.55285 11.3904 4.51139 11.4623C4.46992 11.5343 4.45873 11.6198 4.48027 11.7L6.41646 18.9049C6.43436 18.9714 6.47368 19.0301 6.52832 19.072C6.58297 19.1139 6.64989 19.1366 6.71875 19.1367H7.55384C7.62282 19.1367 7.68986 19.1139 7.74456 19.0719C7.79927 19.0299 7.83858 18.971 7.8564 18.9043L9.23525 13.7617Z" fill="#4D83EC"/>
</svg>
