<svg width="25" height="25" viewBox="0 0 25 25" fill="none" xmlns="http://www.w3.org/2000/svg">
<path opacity="0.4" d="M17.1797 18.7891H13.1797L8.72968 21.7491C8.06968 22.1891 7.17969 21.7191 7.17969 20.9191V18.7891C4.17969 18.7891 2.17969 16.7891 2.17969 13.7891V7.78906C2.17969 4.78906 4.17969 2.78906 7.17969 2.78906H17.1797C20.1797 2.78906 22.1797 4.78906 22.1797 7.78906V13.7891C22.1797 16.7891 20.1797 18.7891 17.1797 18.7891Z" fill="white"/>
<path d="M12.1795 12.4688C11.7695 12.4688 11.4295 12.1287 11.4295 11.7188V11.5088C11.4295 10.3488 12.2795 9.77878 12.5995 9.55878C12.9695 9.30878 13.0895 9.13878 13.0895 8.87878C13.0895 8.37878 12.6795 7.96875 12.1795 7.96875C11.6795 7.96875 11.2695 8.37878 11.2695 8.87878C11.2695 9.28878 10.9295 9.62878 10.5195 9.62878C10.1095 9.62878 9.76953 9.28878 9.76953 8.87878C9.76953 7.54878 10.8495 6.46875 12.1795 6.46875C13.5095 6.46875 14.5895 7.54878 14.5895 8.87878C14.5895 10.0188 13.7495 10.5888 13.4395 10.7988C13.0495 11.0588 12.9295 11.2288 12.9295 11.5088V11.7188C12.9295 12.1388 12.5895 12.4688 12.1795 12.4688Z" fill="white"/>
<path d="M12.1797 14.959C11.7597 14.959 11.4297 14.619 11.4297 14.209C11.4297 13.799 11.7697 13.459 12.1797 13.459C12.5897 13.459 12.9297 13.799 12.9297 14.209C12.9297 14.619 12.5997 14.959 12.1797 14.959Z" fill="white"/>
</svg>
