<svg width="24" height="24" viewBox="0 0 24 24" fill="none" xmlns="http://www.w3.org/2000/svg">
<path d="M21.79 20.76L21.07 20.04C21.44 19.48 21.66 18.8 21.66 18.08C21.66 16.1 20.06 14.5 18.08 14.5C16.1 14.5 14.5 16.1 14.5 18.08C14.5 20.06 16.1 21.66 18.08 21.66C18.81 21.66 19.48 21.44 20.04 21.07L20.76 21.79C20.9 21.93 21.09 22 21.27 22C21.46 22 21.64 21.93 21.78 21.79C22.07 21.5 22.07 21.04 21.79 20.76Z" fill="#D9D9D9"/>
<path opacity="0.4" fill-rule="evenodd" clip-rule="evenodd" d="M12.8502 1.50024C13.2802 2.76024 13.5802 4.06023 13.8202 5.36023C11.6102 5.12023 9.39018 5.12023 7.18018 5.36023C7.42018 4.06023 7.73018 2.76024 8.15018 1.50024C8.16215 1.45234 8.16337 1.41161 8.16457 1.37161C8.16538 1.34481 8.16617 1.31834 8.17018 1.29025C8.92018 1.10025 9.69018 0.990234 10.5002 0.990234C11.3002 0.990234 12.0802 1.11025 12.8202 1.29025C12.8232 1.3141 12.8253 1.33618 12.8273 1.35727L12.8273 1.35733C12.832 1.40695 12.8362 1.45114 12.8502 1.50024ZM14.5801 1.94C16.5401 2.87 18.1301 4.45999 19.0701 6.42999C17.8801 6.05999 16.6601 5.77001 15.4401 5.57001C15.2401 4.35001 14.9401 3.13 14.5801 1.94ZM2.01977 14.68C2.02477 14.6625 2.02977 14.645 2.02977 14.63C3.18977 14.97 4.37977 15.23 5.57977 15.43C5.76977 16.62 6.02977 17.81 6.36977 18.97C6.35477 18.97 6.33727 18.975 6.31977 18.98C6.30227 18.985 6.28478 18.99 6.26978 18.99C4.42978 18.08 2.92977 16.57 2.00977 14.73C2.00977 14.715 2.01477 14.6975 2.01977 14.68ZM1.93018 6.42999C3.13018 6.06999 4.35019 5.77001 5.57019 5.57001C5.77019 4.38001 6.02018 3.20001 6.36018 2.04001C6.34518 2.04001 6.32768 2.035 6.31018 2.03C6.29268 2.02499 6.27518 2.01999 6.26018 2.01999C4.38018 2.94999 2.85018 4.51999 1.93018 6.42999ZM5.36023 7.17999C4.05023 7.41999 2.76023 7.71999 1.50023 8.14999C1.45112 8.16402 1.40693 8.16821 1.35731 8.17291L1.35725 8.17292C1.33615 8.17492 1.31408 8.17701 1.29022 8.17999C1.11022 8.91999 0.990234 9.7 0.990234 10.5C0.990234 11.31 1.10022 12.08 1.29022 12.83C1.3183 12.834 1.34477 12.8348 1.37157 12.8356C1.41158 12.8368 1.45232 12.838 1.50023 12.85C2.76023 13.27 4.05023 13.58 5.36023 13.82C5.12023 11.61 5.12023 9.38999 5.36023 7.17999ZM19.4899 8.14999C19.5699 8.16999 19.6299 8.17999 19.6999 8.17999C19.8899 8.92999 19.9999 9.69999 19.9999 10.49C19.9999 11.3 19.8799 12.07 19.6999 12.82C19.6682 12.824 19.6397 12.8248 19.6125 12.8256C19.5709 12.8268 19.5322 12.8279 19.4899 12.84C18.2299 13.27 16.9299 13.57 15.6299 13.81C15.8799 11.61 15.8799 9.38999 15.6299 7.17999C16.9299 7.41999 18.2299 7.72999 19.4899 8.14999ZM7.18018 15.64C7.42018 16.95 7.72018 18.24 8.15018 19.5C8.16227 19.5423 8.1634 19.581 8.16461 19.6227C8.1654 19.6499 8.16623 19.6784 8.17018 19.71C8.92018 19.89 9.69018 20.01 10.5002 20.01C11.3002 20.01 12.0802 19.9 12.8202 19.71C12.8235 19.6867 12.8257 19.6644 12.828 19.6422C12.8324 19.5978 12.8369 19.5533 12.8502 19.5C13.2702 18.24 13.5802 16.95 13.8202 15.64C12.7202 15.76 11.6102 15.85 10.5002 15.85C9.39018 15.84 8.28018 15.76 7.18018 15.64ZM6.9501 14.06C6.6501 11.69 6.6501 9.31001 6.9501 6.95001C9.3101 6.65001 11.6901 6.65001 14.0601 6.95001C14.3601 9.32001 14.3601 11.7 14.0601 14.06C11.6901 14.36 9.3101 14.36 6.9501 14.06Z" fill="#D9D9D9"/>
</svg>
