<svg width="107" height="111" viewBox="0 0 107 111" fill="none" xmlns="http://www.w3.org/2000/svg">
<g filter="url(#filter0_d_2198_76631)">
<path d="M24.6402 6.85586C27.2376 5.81879 35.3417 3.95206 42.8225 2.60387C50.3032 1.25567 59.6541 0.114895 63.6023 0.0111882C68.1738 -0.0925189 72.7454 0.529724 75.9662 1.6705C78.9793 2.81128 83.447 5.71508 86.7717 8.72258C95.7805 17.0945 97.3461 27.5336 99.5513 39.3162C101.837 51.9684 102.564 58.6057 102.357 64.7244C101.941 71.7765 101.421 74.0581 98.3045 79.6582C96.3304 83.288 93.1096 87.6437 91.1355 89.303C89.1614 90.9623 85.6288 93.1402 83.3431 94.2809C81.0573 95.4217 70.7713 97.7033 60.4853 99.4663C44.5888 102.163 40.9523 102.474 36.3807 101.54C33.3677 101.022 29.0039 99.57 26.7181 98.4292C24.4324 97.2885 20.692 94.4884 18.4062 92.2068C16.1204 89.9252 13.3152 86.1918 12.1723 83.9102C11.0294 81.6287 8.63971 71.6728 6.87343 61.9243C4.48375 48.8572 3.75646 42.0126 4.06816 36.7235C4.37986 32.6789 5.52274 27.1824 6.76953 24.2786C8.12022 21.2711 11.2372 16.9154 14.4581 13.8042C17.4711 10.9004 22.0427 7.78922 24.6402 6.85586Z" fill="#DE6A49"/>
<path d="M24.5191 11.1682C26.8049 9.92372 35.7402 7.74587 44.2599 6.19026C52.8836 4.53095 61.715 3.18276 64.0007 3.18276C66.2865 3.07905 70.6503 3.805 73.6634 4.63466C77.4037 5.67173 80.7285 7.74587 84.5727 11.1682C93.4817 19.754 94.7722 30.6388 96.7289 42.4877C98.8069 54.6215 99.4303 60.9476 98.9108 64.2662C98.4952 66.8589 97.2484 70.7998 96.1055 73.0813C95.0665 75.3629 92.4691 78.8889 90.495 80.8594C88.5209 82.8298 84.7805 85.5262 82.1831 86.667C79.5856 87.9114 70.0269 90.193 60.8838 91.7486C50.39 93.6153 42.3898 94.445 39.065 94.1339C36.2597 93.8228 31.896 92.5783 29.5063 91.3338C27.0127 90.193 23.2723 87.3929 21.1944 85.3188C14.1695 77.9563 12.7813 68.2741 11.0123 58.5623C9.55769 50.5769 8.41479 41.0358 8.41479 37.3024C8.41479 32.7393 9.14209 29.0058 10.5967 25.8946C11.7396 23.3019 14.4409 19.4648 16.5189 17.2869C18.5969 15.1091 22.2334 12.309 24.5191 11.1682Z" fill="#151515"/>
<path d="M36.1075 48.0011C39.4806 48.0011 42.215 45.1654 42.215 41.6674C42.215 45.1654 44.9494 48.0011 48.3225 48.0011C51.6955 48.0011 54.43 45.1654 54.43 41.6674C54.43 45.1654 57.1645 48.0011 60.5375 48.0011C63.9105 48.0011 66.645 45.1654 66.645 41.6674C66.645 45.1654 69.3795 48.0011 72.7525 48.0011C74.4952 48.0011 76.0677 47.2441 77.1803 46.0299C79.2902 43.7276 77.9621 40.2707 76.2734 37.6437L72.3196 31.4932C71.3206 29.9393 69.5999 29 67.7528 29H41.1072C39.26 29 37.5395 29.9393 36.5406 31.4932L32.5867 37.6437C30.8979 40.2707 29.5697 43.7276 31.6797 46.0299C32.7925 47.2441 34.3648 48.0011 36.1075 48.0011Z" stroke="#EC704D" stroke-width="2.46667" stroke-linecap="round" stroke-linejoin="round"/>
<path d="M59.859 72.4312V61.5734C59.859 58.575 57.4285 56.1445 54.4301 56.1445C51.4317 56.1445 49.0012 58.575 49.0012 61.5734V72.4312" stroke="white" stroke-width="2.46667" stroke-linecap="round" stroke-linejoin="round"/>
<path d="M30 72.4316H78.86" stroke="#EC704D" stroke-width="2.46667" stroke-linecap="round" stroke-linejoin="round"/>
<path d="M35.4292 72.4315V48.0015" stroke="#EC704D" stroke-width="2.46667" stroke-linecap="round" stroke-linejoin="round"/>
<path d="M73.4312 72.4315V48.0015" stroke="#EC704D" stroke-width="2.46667" stroke-linecap="round" stroke-linejoin="round"/>
</g>
<defs>
<filter id="filter0_d_2198_76631" x="0" y="0" width="106.39" height="110.017" filterUnits="userSpaceOnUse" color-interpolation-filters="sRGB">
<feFlood flood-opacity="0" result="BackgroundImageFix"/>
<feColorMatrix in="SourceAlpha" type="matrix" values="0 0 0 0 0 0 0 0 0 0 0 0 0 0 0 0 0 0 127 0" result="hardAlpha"/>
<feOffset dy="4"/>
<feGaussianBlur stdDeviation="2"/>
<feComposite in2="hardAlpha" operator="out"/>
<feColorMatrix type="matrix" values="0 0 0 0 0 0 0 0 0 0 0 0 0 0 0 0 0 0 0.25 0"/>
<feBlend mode="normal" in2="BackgroundImageFix" result="effect1_dropShadow_2198_76631"/>
<feBlend mode="normal" in="SourceGraphic" in2="effect1_dropShadow_2198_76631" result="shape"/>
</filter>
</defs>
</svg>
