<svg width="24" height="25" viewBox="0 0 24 25" fill="none" xmlns="http://www.w3.org/2000/svg">
<path opacity="0.4" d="M21 22.3765H3C2.59 22.3765 2.25 22.0365 2.25 21.6265C2.25 21.2165 2.59 20.8765 3 20.8765H21C21.41 20.8765 21.75 21.2165 21.75 21.6265C21.75 22.0365 21.41 22.3765 21 22.3765Z" fill="#D9D9D9"/>
<path opacity="0.4" d="M19.02 3.85613C17.08 1.91613 15.18 1.86613 13.19 3.85613L11.98 5.06613C11.88 5.16613 11.84 5.32613 11.88 5.46613C12.64 8.11613 14.76 10.2361 17.41 10.9961C17.45 11.0061 17.49 11.0161 17.53 11.0161C17.64 11.0161 17.74 10.9761 17.82 10.8961L19.02 9.68613C20.01 8.70613 20.49 7.75613 20.49 6.79613C20.5 5.80613 20.02 4.84613 19.02 3.85613Z" fill="#D9D9D9"/>
<path d="M15.61 11.9063C15.32 11.7663 15.04 11.6263 14.77 11.4663C14.55 11.3363 14.34 11.1963 14.13 11.0463C13.96 10.9363 13.76 10.7763 13.57 10.6163C13.55 10.6063 13.48 10.5463 13.4 10.4663C13.07 10.1863 12.7 9.82627 12.37 9.42627C12.34 9.40627 12.29 9.33627 12.22 9.24627C12.12 9.12627 11.95 8.92627 11.8 8.69627C11.68 8.54627 11.54 8.32627 11.41 8.10627C11.25 7.83627 11.11 7.56627 10.97 7.28627C10.83 6.98627 10.72 6.69627 10.62 6.42627L4.33995 12.7063C4.20995 12.8363 4.08995 13.0863 4.05995 13.2563L3.51995 17.0863C3.41995 17.7663 3.60995 18.4063 4.02995 18.8363C4.38995 19.1863 4.88995 19.3763 5.42995 19.3763C5.54995 19.3763 5.66995 19.3663 5.78995 19.3463L9.62995 18.8063C9.80995 18.7763 10.06 18.6563 10.18 18.5263L16.46 12.2463C16.18 12.1463 15.91 12.0363 15.61 11.9063Z" fill="#D9D9D9"/>
</svg>
