<svg width="29" height="29" viewBox="0 0 29 29" fill="none" xmlns="http://www.w3.org/2000/svg">
<path opacity="0.4" d="M24.9335 25.7187H4.09789C3.6233 25.7187 3.22974 25.3252 3.22974 24.8506C3.22974 24.376 3.6233 23.9824 4.09789 23.9824H24.9335C25.4081 23.9824 25.8017 24.376 25.8017 24.8506C25.8017 25.3252 25.4081 25.7187 24.9335 25.7187Z" fill="#EC704D"/>
<path opacity="0.4" d="M22.6414 4.28118C20.3958 2.03556 18.1965 1.97769 15.893 4.28118L14.4924 5.6818C14.3766 5.79755 14.3303 5.98276 14.3766 6.14481C15.2564 9.21228 17.7103 11.6662 20.7778 12.546C20.8241 12.5576 20.8704 12.5691 20.9167 12.5691C21.044 12.5691 21.1598 12.5228 21.2524 12.4302L22.6414 11.0296C23.7874 9.89522 24.343 8.79556 24.343 7.68433C24.3546 6.53837 23.799 5.42714 22.6414 4.28118Z" fill="#EC704D"/>
<path d="M18.6946 13.5991C18.3589 13.4371 18.0348 13.275 17.7222 13.0898C17.4676 12.9394 17.2245 12.7773 16.9814 12.6037C16.7846 12.4763 16.5531 12.2911 16.3332 12.1059C16.31 12.0944 16.229 12.0249 16.1364 11.9323C15.7544 11.6082 15.3261 11.1915 14.9442 10.7285C14.9094 10.7053 14.8516 10.6243 14.7705 10.5201C14.6548 10.3812 14.458 10.1497 14.2844 9.88346C14.1455 9.70983 13.9834 9.45517 13.8329 9.20052C13.6477 8.88798 13.4857 8.57545 13.3236 8.25134C13.1616 7.90408 13.0342 7.56839 12.9185 7.25586L5.64916 14.5252C5.49868 14.6757 5.35977 14.965 5.32505 15.1618L4.69998 19.5952C4.58423 20.3823 4.80416 21.1231 5.29032 21.6209C5.70703 22.026 6.2858 22.2459 6.91087 22.2459C7.04977 22.2459 7.18868 22.2344 7.32758 22.2112L11.7725 21.5861C11.9809 21.5514 12.2703 21.4125 12.4092 21.262L19.6785 13.9927C19.3544 13.877 19.0418 13.7496 18.6946 13.5991Z" fill="#EC704D"/>
</svg>
