<svg width="29" height="28" viewBox="0 0 29 28" fill="none" xmlns="http://www.w3.org/2000/svg">
<path opacity="0.4" d="M22.7572 10.6869C22.3057 10.6869 21.9469 11.0457 21.9469 11.4971V13.326C21.9469 17.4237 18.6132 20.7574 14.5155 20.7574C10.4179 20.7574 7.08417 17.4237 7.08417 13.326V11.4856C7.08417 11.0341 6.72534 10.6753 6.2739 10.6753C5.82246 10.6753 5.46362 11.0341 5.46362 11.4856V13.3145C5.46362 18.0256 9.08671 21.9034 13.7053 22.3201V24.7856C13.7053 25.2371 14.0641 25.5959 14.5155 25.5959C14.967 25.5959 15.3258 25.2371 15.3258 24.7856V22.3201C19.9328 21.915 23.5675 18.0256 23.5675 13.3145V11.4856C23.5559 11.0457 23.197 10.6869 22.7572 10.6869Z" fill="#EC704D"/>
<path d="M14.5157 2.44531C11.6913 2.44531 9.39941 4.73723 9.39941 7.56161V13.4882C9.39941 16.3126 11.6913 18.6045 14.5157 18.6045C17.3401 18.6045 19.632 16.3126 19.632 13.4882V7.56161C19.632 4.73723 17.3401 2.44531 14.5157 2.44531ZM16.0321 10.4902C15.9511 10.7911 15.6848 10.9879 15.3839 10.9879C15.326 10.9879 15.2681 10.9763 15.2102 10.9648C14.7588 10.8374 14.2842 10.8374 13.8328 10.9648C13.4624 11.0689 13.1035 10.849 13.0109 10.4902C12.9067 10.1313 13.1267 9.76093 13.4855 9.66833C14.1685 9.48312 14.8861 9.48312 15.5691 9.66833C15.9163 9.76093 16.1247 10.1313 16.0321 10.4902ZM16.6456 8.24456C16.5414 8.52237 16.2867 8.68442 16.0089 8.68442C15.9279 8.68442 15.8585 8.67285 15.7774 8.6497C14.9672 8.34874 14.0643 8.34874 13.254 8.6497C12.9067 8.77702 12.5132 8.59182 12.3859 8.24456C12.2585 7.8973 12.4437 7.50374 12.791 7.38798C13.9022 6.98285 15.1292 6.98285 16.2404 7.38798C16.5877 7.51531 16.7729 7.8973 16.6456 8.24456Z" fill="#EC704D"/>
</svg>
