<svg width="24" height="24" viewBox="0 0 24 24" fill="none" xmlns="http://www.w3.org/2000/svg">
<path opacity="0.4" d="M15.48 3H7.52C4.07 3 2 5.06 2 8.52V16.47C2 19.94 4.07 22 7.52 22H15.47C18.93 22 20.99 19.94 20.99 16.48V8.52C21 5.06 18.93 3 15.48 3Z" fill="#D9D9D9"/>
<path fill-rule="evenodd" clip-rule="evenodd" d="M15.6395 2.98028C17.4795 1.14028 19.2295 1.18028 21.0195 2.98028C21.9295 3.90028 22.3795 4.79028 22.3795 5.69028C22.3795 6.58028 21.9295 7.45028 21.0195 8.36028L19.9095 9.48028C19.8395 9.55028 19.7395 9.59028 19.6395 9.59028C19.6095 9.59028 19.5595 9.59028 19.5295 9.58028C17.0795 8.88028 15.1195 6.92028 14.4195 4.47028C14.3795 4.34028 14.4095 4.20028 14.5095 4.10028L15.6395 2.98028ZM17.0891 10.0103C17.3291 10.1603 17.5891 10.2903 17.8591 10.4203C17.8837 10.4309 17.908 10.4413 17.9321 10.4517C18.183 10.5594 18.4111 10.6573 18.6391 10.7303L13.2591 16.1103C12.9091 16.4703 12.2491 16.8003 11.7591 16.8703L8.78912 17.2903C8.67912 17.3003 8.56912 17.3103 8.45912 17.3103C7.95912 17.3103 7.50912 17.1403 7.17912 16.8103C6.78912 16.4203 6.61912 15.8303 6.70912 15.2003L7.13912 12.2203C7.20912 11.7303 7.54912 11.0703 7.89912 10.7203L13.2791 5.34033C13.3691 5.59033 13.4691 5.85033 13.5991 6.13033C13.7191 6.39033 13.8491 6.64033 13.9991 6.89033C14.1191 7.10033 14.2491 7.30033 14.3591 7.44033C14.4891 7.65033 14.6391 7.84033 14.7391 7.95033C14.7891 8.04033 14.8491 8.10033 14.8691 8.12033C15.1791 8.49033 15.5091 8.83033 15.8191 9.08033C15.8991 9.16033 15.9591 9.21033 15.9791 9.22033C16.1591 9.37033 16.3391 9.52033 16.4991 9.62033C16.6891 9.76033 16.8891 9.89033 17.0891 10.0103Z" fill="#D9D9D9"/>
</svg>
