<svg width="308" height="290" viewBox="0 0 308 290" fill="none" xmlns="http://www.w3.org/2000/svg">
<circle opacity="0.05" cx="168.164" cy="144.696" r="134.2" fill="#D9D9D9"/>
<g opacity="0.2">
<path d="M147.369 2.19556V4.19556" stroke="#D2D8DF" stroke-width="2.921" stroke-linecap="round"/>
<path d="M141.369 8.19556H143.369" stroke="#D2D8DF" stroke-width="2.921" stroke-linecap="round"/>
<path d="M147.369 14.1956V12.1956" stroke="#D2D8DF" stroke-width="2.921" stroke-linecap="round"/>
<path d="M152.369 8.19556H150.369" stroke="#D2D8DF" stroke-width="2.921" stroke-linecap="round"/>
<path d="M246.623 195.235C249.013 195.235 250.951 197.174 250.951 199.564C250.951 201.955 249.013 203.893 246.623 203.893C244.233 203.893 242.295 201.955 242.295 199.564" stroke="#D2D8DF" stroke-width="2.921" stroke-linecap="round"/>
<path fill-rule="evenodd" clip-rule="evenodd" d="M266.43 155.959C268.999 155.158 272.939 152.015 273.85 148.633C274.677 151.622 278.144 155.158 281.271 155.425C277.751 156.672 274.384 160.375 273.85 163.284C273.487 160.319 268.831 156.391 266.43 155.959Z" fill="#EBECEE"/>
<path fill-rule="evenodd" clip-rule="evenodd" d="M2.64062 193.901C3.92595 193.5 5.89468 191.929 6.35057 190.239C6.76402 191.732 8.49674 193.5 10.0605 193.635C8.30063 194.257 6.61799 196.109 6.35057 197.564C6.1689 196.081 3.84105 194.117 2.64062 193.901Z" fill="#EBECEE"/>
<path fill-rule="evenodd" clip-rule="evenodd" d="M28.4617 130.5C28.4617 134.367 25.3273 137.5 21.4617 137.5C17.5942 137.5 14.4617 134.367 14.4617 130.5C14.4617 126.634 17.5942 123.5 21.4617 123.5C25.3273 123.5 28.4617 126.634 28.4617 130.5Z" fill="#D1D8DF"/>
<path fill-rule="evenodd" clip-rule="evenodd" d="M250.588 63.8063C250.588 66.905 248.076 69.4169 244.979 69.4169C241.88 69.4169 239.369 66.905 239.369 63.8063C239.369 60.7077 241.88 58.1958 244.979 58.1958C248.076 58.1958 250.588 60.7077 250.588 63.8063Z" fill="#EBECEE"/>
<path fill-rule="evenodd" clip-rule="evenodd" d="M307.36 48.6053C307.36 51.0637 305.368 53.0559 302.911 53.0559C300.453 53.0559 298.462 51.0637 298.462 48.6053C298.462 46.147 300.453 44.1548 302.911 44.1548C305.368 44.1548 307.36 46.147 307.36 48.6053Z" fill="#EBECEE"/>
<path fill-rule="evenodd" clip-rule="evenodd" d="M89.2126 256.463C89.2126 258.013 87.957 259.269 86.4076 259.269C84.8591 259.269 83.6035 258.013 83.6035 256.463C83.6035 254.914 84.8591 253.658 86.4076 253.658C87.957 253.658 89.2126 254.914 89.2126 256.463Z" stroke="#D2D8DF" stroke-width="2.921" stroke-linecap="round"/>
<path fill-rule="evenodd" clip-rule="evenodd" d="M87.5439 33.2274C87.5439 35.082 86.0412 36.5842 84.188 36.5842C82.3347 36.5842 80.832 35.082 80.832 33.2274C80.832 31.3737 82.3347 29.8706 84.188 29.8706C86.0412 29.8706 87.5439 31.3737 87.5439 33.2274Z" stroke="#D2D8DF" stroke-width="2.921" stroke-linecap="round"/>
<path fill-rule="evenodd" clip-rule="evenodd" d="M173.147 287.532C171.002 288.348 168.602 287.27 167.786 285.126C166.971 282.981 168.047 280.58 170.192 279.764C172.336 278.948 174.736 280.025 175.552 282.17C176.368 284.315 175.291 286.716 173.147 287.532Z" stroke="#D2D8DF" stroke-width="2.921" stroke-linecap="round"/>
</g>
<g opacity="0.4">
<g opacity="0.82">
<g filter="url(#filter0_d_651_2493)">
<rect x="3.16357" y="56.1956" width="193.079" height="46.6426" rx="2.60144" fill="white" shape-rendering="crispEdges"/>
<circle cx="25.6009" cy="79.517" r="8.12951" fill="#98A2B3"/>
<rect x="39.5837" y="71.3877" width="27.3152" height="5.20289" rx="2.60144" fill="#D9D9D9"/>
<rect x="39.5837" y="81.7935" width="41.6231" height="5.20289" rx="2.60144" fill="#EAECF0"/>
</g>
<g filter="url(#filter1_d_651_2493)">
<rect x="58.4844" y="113.686" width="193.079" height="46.6426" rx="2.60144" fill="white" shape-rendering="crispEdges"/>
<circle cx="80.9217" cy="137.008" r="8.12951" fill="#98A2B3"/>
<rect x="94.9045" y="128.878" width="27.3152" height="5.20289" rx="2.60144" fill="#D9D9D9"/>
<rect x="94.9045" y="139.284" width="41.6231" height="5.20289" rx="2.60144" fill="#EAECF0"/>
</g>
<g filter="url(#filter2_d_651_2493)">
<rect x="10.7568" y="169.006" width="193.079" height="46.6426" rx="2.60144" fill="white" shape-rendering="crispEdges"/>
<circle cx="33.1942" cy="192.328" r="8.12951" fill="#98A2B3"/>
<rect x="47.177" y="184.198" width="27.3152" height="5.20289" rx="2.60144" fill="#D9D9D9"/>
<rect x="47.177" y="194.604" width="41.6231" height="5.20289" rx="2.60144" fill="#EAECF0"/>
</g>
</g>
</g>
<defs>
<filter id="filter0_d_651_2493" x="0.562131" y="56.1956" width="198.282" height="51.8455" filterUnits="userSpaceOnUse" color-interpolation-filters="sRGB">
<feFlood flood-opacity="0" result="BackgroundImageFix"/>
<feColorMatrix in="SourceAlpha" type="matrix" values="0 0 0 0 0 0 0 0 0 0 0 0 0 0 0 0 0 0 127 0" result="hardAlpha"/>
<feOffset dy="2.60144"/>
<feGaussianBlur stdDeviation="1.30072"/>
<feComposite in2="hardAlpha" operator="out"/>
<feColorMatrix type="matrix" values="0 0 0 0 0 0 0 0 0 0 0 0 0 0 0 0 0 0 0.25 0"/>
<feBlend mode="normal" in2="BackgroundImageFix" result="effect1_dropShadow_651_2493"/>
<feBlend mode="normal" in="SourceGraphic" in2="effect1_dropShadow_651_2493" result="shape"/>
</filter>
<filter id="filter1_d_651_2493" x="55.8829" y="113.686" width="198.282" height="51.8455" filterUnits="userSpaceOnUse" color-interpolation-filters="sRGB">
<feFlood flood-opacity="0" result="BackgroundImageFix"/>
<feColorMatrix in="SourceAlpha" type="matrix" values="0 0 0 0 0 0 0 0 0 0 0 0 0 0 0 0 0 0 127 0" result="hardAlpha"/>
<feOffset dy="2.60144"/>
<feGaussianBlur stdDeviation="1.30072"/>
<feComposite in2="hardAlpha" operator="out"/>
<feColorMatrix type="matrix" values="0 0 0 0 0 0 0 0 0 0 0 0 0 0 0 0 0 0 0.25 0"/>
<feBlend mode="normal" in2="BackgroundImageFix" result="effect1_dropShadow_651_2493"/>
<feBlend mode="normal" in="SourceGraphic" in2="effect1_dropShadow_651_2493" result="shape"/>
</filter>
<filter id="filter2_d_651_2493" x="8.15539" y="169.006" width="198.282" height="51.8455" filterUnits="userSpaceOnUse" color-interpolation-filters="sRGB">
<feFlood flood-opacity="0" result="BackgroundImageFix"/>
<feColorMatrix in="SourceAlpha" type="matrix" values="0 0 0 0 0 0 0 0 0 0 0 0 0 0 0 0 0 0 127 0" result="hardAlpha"/>
<feOffset dy="2.60144"/>
<feGaussianBlur stdDeviation="1.30072"/>
<feComposite in2="hardAlpha" operator="out"/>
<feColorMatrix type="matrix" values="0 0 0 0 0 0 0 0 0 0 0 0 0 0 0 0 0 0 0.25 0"/>
<feBlend mode="normal" in2="BackgroundImageFix" result="effect1_dropShadow_651_2493"/>
<feBlend mode="normal" in="SourceGraphic" in2="effect1_dropShadow_651_2493" result="shape"/>
</filter>
</defs>
</svg>
