<svg width="43" height="42" viewBox="0 0 43 42" fill="none" xmlns="http://www.w3.org/2000/svg">
<path fill-rule="evenodd" clip-rule="evenodd" d="M19.2658 3.01971C18.6529 2.3832 17.64 2.36409 17.0035 2.97704C16.367 3.58998 16.3479 4.60287 16.9608 5.23938L20.1292 8.52954H6.55776C5.67411 8.52954 4.95776 9.24589 4.95776 10.1295V29.8672C4.95776 30.7508 5.67411 31.4672 6.55776 31.4672C7.44142 31.4672 8.15776 30.7508 8.15776 29.8672V11.7295H20.1292L16.9608 15.0198C16.3479 15.6563 16.367 16.6692 17.0035 17.2821C17.64 17.895 18.6529 17.8759 19.2658 17.2394L25.0437 11.2394C25.6403 10.6198 25.6403 9.63931 25.0437 9.01971L19.2658 3.01971ZM18.7335 20.8999C17.8499 20.8999 17.1335 21.6162 17.1335 22.4999C17.1335 23.3836 17.8499 24.0999 18.7335 24.0999H37.0865C37.9702 24.0999 38.6865 23.3836 38.6865 22.4999C38.6865 21.6162 37.9702 20.8999 37.0865 20.8999H18.7335ZM18.7335 28.3999C17.8499 28.3999 17.1335 29.1162 17.1335 29.9999C17.1335 30.8836 17.8499 31.5999 18.7335 31.5999H37.0865C37.9702 31.5999 38.6865 30.8836 38.6865 29.9999C38.6865 29.1162 37.9702 28.3999 37.0865 28.3999H18.7335ZM4.42896 37.4999C4.42896 36.6162 5.1453 35.8999 6.02895 35.8999H37.0877C37.9714 35.8999 38.6877 36.6162 38.6877 37.4999C38.6877 38.3836 37.9714 39.0999 37.0877 39.0999H6.02895C5.1453 39.0999 4.42896 38.3836 4.42896 37.4999Z" fill="#FF76DF"/>
</svg>
