<svg width="87" height="101" viewBox="0 0 87 101" fill="none" xmlns="http://www.w3.org/2000/svg">
<g style="mix-blend-mode:multiply">
<path fill-rule="evenodd" clip-rule="evenodd" d="M85.9851 59.3999C53.7641 14.2788 43.7723 0.7996 42.8742 0.342693C41.9761 -0.114231 41.0779 -0.114231 40.6288 0.342693C40.292 0.7996 40.5165 2.05614 41.0779 3.19845C41.8638 4.56921 41.527 6.28267 39.8429 9.48113C38.608 11.7657 35.689 15.0784 33.4436 16.6777C31.1983 18.3911 27.4935 20.2188 25.3603 20.9042C23.0027 21.5896 20.6451 21.5896 19.4101 21.0184C18.3997 20.4473 17.5016 19.305 17.5016 18.6196C17.5016 17.8199 19.1857 15.0784 21.2065 12.5654C23.3396 10.0523 27.269 6.96806 30.1879 5.71153C33.1068 4.45499 35.4645 2.74153 35.5768 1.94193C35.689 0.913846 34.7909 0.799614 32.5455 1.25652C30.7493 1.59921 27.1567 3.19845 24.4622 4.68344C21.8801 6.16845 18.7365 8.79574 17.5016 10.6234C16.2667 12.3369 14.9194 15.5354 14.5826 17.7057C13.7968 21.4753 14.4703 22.7319 23.6763 35.9826C29.1775 43.8645 38.9447 57.3437 45.5686 66.0252L57.3567 81.7891C77.3404 91.4986 83.9643 94.4687 84.8624 94.5829C86.0973 94.6971 86.6587 93.4406 86.8833 89.671C87.1078 86.8152 86.9955 78.9333 86.6587 71.9652L85.9851 59.3999ZM34.3418 10.6234C34.3418 9.3669 33.5559 8.56728 32.321 8.68151C31.3105 8.68151 29.1775 9.48113 27.6057 10.5092C25.9217 11.5373 24.9113 13.1365 25.1359 14.393C25.2481 15.6496 25.8094 16.5634 26.483 16.5634C27.0444 16.5634 29.1775 15.6496 30.9737 14.6215C32.8823 13.4792 34.3418 11.6515 34.3418 10.6234ZM29.5143 70.8229C28.167 69.9091 26.8198 69.1095 26.483 69.1095C26.1462 69.1095 24.9112 69.7948 23.6763 70.4802C22.4414 71.1656 20.7574 72.5364 19.9715 73.5644C19.1856 74.5925 18.6243 77.5625 18.6243 80.3041C18.6243 84.9875 18.6243 85.1017 14.6949 85.1017C11.6636 85.1017 9.86738 84.1879 6.83613 81.1037C4.70301 78.9333 2.90675 76.0775 2.90675 74.821C2.90675 73.5645 2.3454 72.3079 1.78406 71.9652C1.11048 71.6225 0.661377 72.6506 0.661377 74.2498C0.661377 75.8491 1.44727 78.7048 2.3454 80.5325C3.24353 82.3602 5.71345 84.9875 7.62202 86.244C9.64283 87.5006 13.2354 88.5287 15.4808 88.5287C18.8488 88.5287 20.4206 89.3283 22.7782 92.0698C24.5744 94.1259 27.9425 96.7533 30.4124 98.0098C32.8823 99.2663 38.1589 100.523 42.2005 100.866C46.2421 101.208 51.9679 100.866 55.1113 100.18C58.1426 99.3806 61.5107 98.0098 62.4088 97.096C63.3069 96.0679 63.8683 95.0398 63.5315 94.6971C63.1947 94.3544 59.9389 94.6971 56.234 95.4967C52.5292 96.1821 46.8036 96.7533 43.5478 96.639C40.4043 96.639 35.5768 95.6109 32.8823 94.3544C30.3002 93.2121 27.2689 91.2702 26.1462 90.1279C24.2377 88.0717 24.3499 87.8433 28.167 83.731C30.8615 80.761 32.0964 78.3621 32.0964 75.9633C32.0964 73.6787 31.2357 71.9652 29.5143 70.8229ZM57.2445 26.5014C51.182 17.8198 45.9054 10.8518 45.5686 10.8518C45.2318 10.8518 43.211 13.0221 41.0779 15.6494C38.9448 18.2767 34.6786 21.5894 31.5352 23.0744C28.5039 24.4452 25.0236 25.7017 24.0131 25.7017C22.8904 25.7017 21.9924 25.9302 21.9924 26.2729C21.9924 26.6156 25.6972 31.8702 30.3002 37.9244C34.7909 44.0929 42.8742 55.1732 48.263 62.484C56.7954 74.4782 58.1426 75.8489 60.1634 74.8209C61.3983 74.1355 62.6333 73.3359 62.8579 72.7647C63.0824 72.3078 57.1322 62.9409 49.498 51.9748C41.9761 41.0086 35.8013 31.4133 35.9136 30.6137C35.9136 29.9283 36.3626 29.5856 36.9239 29.814C37.373 30.0425 43.7723 38.9525 51.1821 49.6902C58.5917 60.4278 65.2155 69.3378 65.7768 69.6805C66.3382 70.0232 68.0222 69.3378 69.3694 68.1955L71.7271 66.2536C47.1404 31.7559 39.9552 21.361 39.9552 20.7898C39.9552 20.3329 40.6288 19.9902 41.4146 20.1044C42.0883 20.1044 43.7723 21.4752 45.1195 23.1887C46.4668 24.9021 53.4273 34.726 60.7248 45.1209C68.0222 55.5159 74.197 64.0832 74.3092 64.1974C74.5338 64.4259 76.2178 63.3978 78.0141 61.9128L81.3821 59.3997C71.3902 46.149 63.4192 35.1829 57.2445 26.5014ZM82.617 71.0512C82.617 67.5101 82.2803 64.5401 81.8312 64.5401C81.2699 64.5401 76.6668 67.3959 71.5025 70.8228C66.3382 74.3639 62.1843 77.6766 62.2965 78.2478C62.2965 78.9332 64.7665 80.6466 67.7977 82.1316L73.0742 84.8732C74.8705 81.1036 77.0037 79.5043 79.0245 78.8189C82.6171 77.6766 82.7293 77.5624 82.617 71.0512ZM28.7284 75.0493C28.7284 74.3639 27.8302 73.6786 26.7076 73.6786C25.5849 73.6786 24.0132 74.2497 23.115 75.0493C22.2168 75.8489 21.6555 77.9051 21.7678 79.6185C21.8801 81.332 22.5537 82.817 23.115 82.817C23.6764 82.817 25.2481 81.4462 26.4831 79.6185C27.8303 77.9051 28.8407 75.8489 28.7284 75.0493Z" fill="#EC704D"/>
<path d="M44.6453 67.0557L70.7099 86.1969H78.0405V82.1243V57.2815L76.0042 53.6162L74.3752 50.7654L68.6736 45.4711C59.7139 34.0678 40.084 11.9944 33.2421 14.9267C28.355 17.3703 25.5042 22.6646 23.8752 24.7009C22.5719 26.3299 17.6305 25.3797 15.3228 24.7009V30.8098L44.6453 67.0557Z" fill="#FF6E45" fill-opacity="0.18"/>
</g>
</svg>
