<svg width="24" height="24" viewBox="0 0 24 24" fill="none" xmlns="http://www.w3.org/2000/svg">
<path opacity="0.4" d="M22.0199 16.8203L18.8899 9.50027C18.3199 8.16027 17.4699 7.40027 16.4999 7.35027C15.5399 7.30027 14.6099 7.97027 13.8999 9.25027L11.9999 12.6603C11.5999 13.3803 11.0299 13.8103 10.4099 13.8603C9.77989 13.9203 9.14989 13.5903 8.63989 12.9403L8.41989 12.6603C7.70989 11.7703 6.82989 11.3403 5.92989 11.4303C5.02989 11.5203 4.25989 12.1403 3.74989 13.1503L2.01989 16.6003C1.39989 17.8503 1.45989 19.3003 2.18989 20.4803C2.91989 21.6603 4.18989 22.3703 5.57989 22.3703H18.3399C19.6799 22.3703 20.9299 21.7003 21.6699 20.5803C22.4299 19.4603 22.5499 18.0503 22.0199 16.8203Z" fill="#EC704D"/>
<path d="M6.96997 8.38012C8.83669 8.38012 10.35 6.86684 10.35 5.00012C10.35 3.1334 8.83669 1.62012 6.96997 1.62012C5.10324 1.62012 3.58997 3.1334 3.58997 5.00012C3.58997 6.86684 5.10324 8.38012 6.96997 8.38012Z" fill="#EC704D"/>
</svg>
