<svg width="18" height="21" viewBox="0 0 18 21" fill="none" xmlns="http://www.w3.org/2000/svg">
<path d="M7.9071 4.70866C8.03275 4.70866 8.1126 4.62881 8.14009 4.50316C8.39009 3.04504 8.38092 3.02672 9.92019 2.72305C10.0458 2.69688 10.1257 2.62358 10.1257 2.49007C10.1257 2.36442 10.0458 2.28457 9.92019 2.26625C8.38092 1.9796 8.40841 1.95211 8.14009 0.486144C8.11391 0.36049 8.03275 0.271484 7.9071 0.271484C7.78145 0.271484 7.7016 0.36049 7.67412 0.486144C7.40579 1.9351 7.44244 1.95211 5.89401 2.26625C5.76836 2.28457 5.68851 2.36442 5.68851 2.48876C5.68851 2.62358 5.76836 2.69557 5.90317 2.72305C7.43328 3.01756 7.42412 3.02672 7.67412 4.50316C7.70029 4.62881 7.78145 4.70866 7.9071 4.70866ZM3.55893 11.0529C3.75527 11.0529 3.9071 10.9089 3.93459 10.7217C4.23825 8.36834 4.30108 8.35002 6.77098 7.89452C6.86074 7.88472 6.94358 7.84167 7.00318 7.77383C7.06277 7.706 7.09481 7.61831 7.09297 7.52803C7.09297 7.33169 6.94899 7.17855 6.76181 7.16154C4.31024 6.82122 4.23825 6.74923 3.93459 4.34216C3.90841 4.14583 3.76443 4.00185 3.55893 4.00185C3.3626 4.00185 3.21862 4.14583 3.19244 4.35133C2.90448 6.70473 2.80762 6.70473 0.354745 7.16023C0.15841 7.18641 0.0249023 7.33038 0.0249023 7.52672C0.0249023 7.73353 0.15841 7.86703 0.391394 7.89321C2.80762 8.27017 2.90448 8.35133 3.19244 10.7034C3.21862 10.9102 3.3626 11.0529 3.55893 11.0529ZM9.86783 20.922C10.144 20.922 10.3587 20.7257 10.4045 20.4299C11.0563 15.6262 11.7265 14.8644 16.4974 14.3278C16.6345 14.3192 16.7633 14.2591 16.8579 14.1596C16.9526 14.0601 17.0062 13.9285 17.0079 13.7911C17.0079 13.5032 16.7919 13.2898 16.4974 13.2453C11.7723 12.6812 11.1008 11.9927 10.4032 7.14321C10.3508 6.85525 10.144 6.65892 9.86652 6.65892C9.58904 6.65892 9.37438 6.85525 9.32988 7.14321C8.67543 11.956 8.00527 12.7165 3.23694 13.2453C2.94113 13.2806 2.72647 13.5045 2.72647 13.7911C2.72647 14.0686 2.94113 14.2924 3.23694 14.3278C7.9516 14.9717 8.60474 15.5895 9.32988 20.4299C9.38223 20.7257 9.59035 20.922 9.86783 20.922Z" fill="#EC704D"/>
</svg>
