<svg width="24" height="25" viewBox="0 0 24 25" fill="none" xmlns="http://www.w3.org/2000/svg">
<path opacity="0.4" d="M19.7906 4.57041C16.8306 1.62041 12.0306 1.62041 9.09063 4.57041C7.02063 6.62041 6.40063 9.57041 7.20063 12.1704L2.50063 16.8704C2.17063 17.2104 1.94063 17.8804 2.01063 18.3604L2.31063 20.5404C2.42063 21.2604 3.09063 21.9404 3.81063 22.0404L5.99063 22.3404C6.47063 22.4104 7.14063 22.1904 7.48063 21.8404L8.30063 21.0204C8.50063 20.8304 8.50063 20.5104 8.30063 20.3104L6.36063 18.3704C6.07063 18.0804 6.07063 17.6004 6.36063 17.3104C6.65063 17.0204 7.13063 17.0204 7.42063 17.3104L9.37063 19.2604C9.56063 19.4504 9.88063 19.4504 10.0706 19.2604L12.1906 17.1504C14.7806 17.9604 17.7306 17.3304 19.7906 15.2804C22.7406 12.3304 22.7406 7.52041 19.7906 4.57041ZM14.5006 12.3504C13.1206 12.3504 12.0006 11.2304 12.0006 9.85041C12.0006 8.47041 13.1206 7.35041 14.5006 7.35041C15.8806 7.35041 17.0006 8.47041 17.0006 9.85041C17.0006 11.2304 15.8806 12.3504 14.5006 12.3504Z" fill="#292D32"/>
<path d="M14.5 12.3501C15.8807 12.3501 17 11.2308 17 9.8501C17 8.46939 15.8807 7.3501 14.5 7.3501C13.1193 7.3501 12 8.46939 12 9.8501C12 11.2308 13.1193 12.3501 14.5 12.3501Z" fill="#292D32"/>
</svg>
