<svg width="14" height="11" viewBox="0 0 14 11" fill="none" xmlns="http://www.w3.org/2000/svg">
<path d="M13.3101 2.37012C13.3101 2.78012 12.9801 3.12012 12.5601 3.12012H7.31006C6.90006 3.12012 6.56006 2.78012 6.56006 2.37012C6.56006 1.96012 6.90006 1.62012 7.31006 1.62012H12.5601C12.9801 1.62012 13.3101 1.96012 13.3101 2.37012Z" fill="#D9D9D9"/>
<path opacity="0.4" d="M4.97006 1.40006L2.72006 3.65006C2.57006 3.80006 2.38006 3.87006 2.19006 3.87006C2.00006 3.87006 1.80006 3.80006 1.66006 3.65006L0.910059 2.90006C0.610059 2.61006 0.610059 2.13006 0.910059 1.84006C1.20006 1.55006 1.67006 1.55006 1.97006 1.84006L2.19006 2.06006L3.91006 0.340059C4.20006 0.0500586 4.67006 0.0500586 4.97006 0.340059C5.26006 0.630059 5.26006 1.11006 4.97006 1.40006Z" fill="#D9D9D9"/>
<path d="M13.3101 9.37012C13.3101 9.78012 12.9801 10.1201 12.5601 10.1201H7.31006C6.90006 10.1201 6.56006 9.78012 6.56006 9.37012C6.56006 8.96012 6.90006 8.62012 7.31006 8.62012H12.5601C12.9801 8.62012 13.3101 8.96012 13.3101 9.37012Z" fill="#D9D9D9"/>
<path opacity="0.4" d="M4.97006 8.40006L2.72006 10.6501C2.57006 10.8001 2.38006 10.8701 2.19006 10.8701C2.00006 10.8701 1.80006 10.8001 1.66006 10.6501L0.910059 9.90006C0.610059 9.61006 0.610059 9.13006 0.910059 8.84006C1.20006 8.55006 1.67006 8.55006 1.97006 8.84006L2.19006 9.06006L3.91006 7.34006C4.20006 7.05006 4.67006 7.05006 4.97006 7.34006C5.26006 7.63006 5.26006 8.11006 4.97006 8.40006Z" fill="#D9D9D9"/>
</svg>
