<svg width="15" height="16" viewBox="0 0 15 16" fill="none" xmlns="http://www.w3.org/2000/svg">
<path opacity="0.4" d="M7.5 13.9502C10.9518 13.9502 13.75 11.152 13.75 7.7002C13.75 4.24842 10.9518 1.4502 7.5 1.4502C4.04822 1.4502 1.25 4.24842 1.25 7.7002C1.25 11.152 4.04822 13.9502 7.5 13.9502Z" fill="#64BF88"/>
<path d="M6.6124 9.9377C6.4874 9.9377 6.36865 9.8877 6.28115 9.8002L4.5124 8.03145C4.33115 7.8502 4.33115 7.5502 4.5124 7.36895C4.69365 7.1877 4.99365 7.1877 5.1749 7.36895L6.6124 8.80645L9.8249 5.59395C10.0062 5.4127 10.3062 5.4127 10.4874 5.59395C10.6687 5.7752 10.6687 6.07519 10.4874 6.25644L6.94365 9.8002C6.85615 9.8877 6.7374 9.9377 6.6124 9.9377Z" fill="#D9D9D9"/>
</svg>
