<svg width="209" height="207" viewBox="0 0 209 207" fill="none" xmlns="http://www.w3.org/2000/svg">
<path opacity="0.63" fill-rule="evenodd" clip-rule="evenodd" d="M127.5 -24.0796C119.372 -24.0796 111.462 -23.1434 103.873 -21.3729C103.842 -21.2714 103.81 -21.1702 103.776 -21.0693C99.4938 -8.27634 96.0508 4.72284 93.4474 17.8474C116.014 15.6289 138.754 15.6214 161.322 17.8248C158.774 4.70889 155.404 -8.28178 151.214 -21.0665C151.18 -21.1692 151.148 -21.2721 151.117 -21.3751C143.531 -23.1442 135.625 -24.0796 127.5 -24.0796ZM165.067 41.9326C140.009 39.0034 114.678 39.0155 89.6224 41.969C86.6367 67.003 86.649 92.3087 89.6595 117.341C114.691 120.351 139.997 120.363 165.031 117.378C167.984 92.3216 167.997 66.9908 165.067 41.9326ZM68.3373 21.2436C70.1555 10.7628 72.4681 0.346722 75.2751 -9.96943C59.6497 -0.828903 46.6335 12.2879 37.6147 27.9926C47.7694 25.2737 58.0215 23.024 68.3373 21.2436ZM26.6249 55.8829C26.7279 55.8521 26.8308 55.8198 26.9335 55.7862C39.4462 51.6849 52.1562 48.3701 64.9879 45.8417C62.7594 68.3004 62.7669 90.9279 65.0105 113.385C52.1702 110.802 39.4517 107.415 26.9307 103.224C26.8298 103.19 26.7286 103.158 26.6271 103.127C24.8566 95.5376 23.9204 87.6282 23.9204 79.5C23.9204 71.3752 24.8558 63.4689 26.6249 55.8829ZM189.175 45.6779C202.291 48.2264 215.282 51.5958 228.066 55.7862C228.169 55.8198 228.272 55.8521 228.375 55.8829C230.144 63.4689 231.08 71.3752 231.08 79.5C231.08 87.6282 230.143 95.5377 228.373 103.127C228.271 103.158 228.17 103.19 228.069 103.224C215.276 107.506 202.277 110.949 189.153 113.553C191.371 90.9856 191.379 68.2461 189.175 45.6779ZM217.385 27.9926C206.977 25.2057 196.466 22.9118 185.889 21.111C184.088 10.5341 181.794 0.023243 179.007 -10.3853C194.952 -1.22883 208.229 12.0481 217.385 27.9926ZM68.4721 138.528C58.2516 136.731 48.0935 134.463 38.0306 131.725C47.0315 147.112 59.8882 159.968 75.2751 168.969C72.537 158.906 70.2693 148.748 68.4721 138.528ZM161.158 142.012C138.7 144.241 116.072 144.233 93.6146 141.99C96.1976 154.83 99.5849 167.548 103.776 180.069C103.81 180.17 103.843 180.271 103.873 180.373C111.462 182.143 119.372 183.08 127.5 183.08C135.625 183.08 143.531 182.144 151.117 180.375C151.148 180.272 151.18 180.169 151.214 180.066C155.315 167.554 158.63 154.844 161.158 142.012ZM179.007 169.385C181.726 159.231 183.976 148.979 185.756 138.663C196.237 136.844 206.653 134.532 216.969 131.725C207.829 147.35 194.712 160.367 179.007 169.385ZM0 79.5C0 9.08369 57.0837 -48 127.5 -48C197.916 -48 255 9.08369 255 79.5C255 149.916 197.916 207 127.5 207C57.0837 207 0 149.916 0 79.5Z" fill="#534366"/>
</svg>
