<svg width="28" height="28" viewBox="0 0 28 28" fill="none" xmlns="http://www.w3.org/2000/svg">
<path d="M11.9043 1.11182C12.5486 1.11182 13.071 1.63415 13.071 2.27848V4.79867H18.5407C20.4067 4.79867 21.9194 6.31137 21.9194 8.17739V12.8982C21.9194 13.5425 21.3971 14.0649 20.7527 14.0649C20.1084 14.0649 19.5861 13.5425 19.5861 12.8982V8.17739C19.5861 7.60003 19.118 7.132 18.5407 7.132H5.26837C4.69102 7.132 4.22298 7.60003 4.22298 8.17739V18.5003C4.22298 19.0777 4.69102 19.5457 5.26837 19.5457H12.0202C12.6646 19.5457 13.1869 20.068 13.1869 20.7124C13.1869 21.3567 12.6646 21.879 12.0202 21.879H5.26837C3.40235 21.879 1.88965 20.3663 1.88965 18.5003V8.17739C1.88965 6.31137 3.40235 4.79867 5.26837 4.79867H10.7376V2.27848C10.7376 1.63415 11.26 1.11182 11.9043 1.11182Z" fill="#1DC7D2"/>
<path d="M9.52539 11.3179C9.52539 10.6735 9.00305 10.1512 8.35872 10.1512C7.71439 10.1512 7.19206 10.6735 7.19206 11.3179V12.7997C7.19206 13.444 7.71439 13.9663 8.35872 13.9663C9.00305 13.9663 9.52539 13.444 9.52539 12.7997V11.3179Z" fill="#1DC7D2"/>
<path d="M15.4499 10.1512C16.0942 10.1512 16.6165 10.6735 16.6165 11.3179V12.7997C16.6165 13.444 16.0942 13.9663 15.4499 13.9663C14.8055 13.9663 14.2832 13.444 14.2832 12.7997V11.3179C14.2832 10.6735 14.8055 10.1512 15.4499 10.1512Z" fill="#1DC7D2"/>
<path d="M14.0785 16.8282C14.664 16.5592 14.9206 15.8665 14.6516 15.281C14.3843 14.6991 13.6976 14.4425 13.1145 14.7033C13.1012 14.7287 12.9142 14.7724 12.8796 14.7805C12.8765 14.7812 12.8742 14.7818 12.8742 14.7818C12.6878 14.8318 12.42 14.8825 12.107 14.8825C11.7642 14.8825 11.4903 14.8302 11.3113 14.782C11.222 14.758 11.1578 14.7354 11.122 14.7218C11.1063 14.7158 11.0963 14.7116 11.0923 14.7099C10.5147 14.4415 9.82685 14.6863 9.54971 15.262C9.27022 15.8426 9.51429 16.5398 10.0949 16.8193L10.0961 16.8199C10.1187 16.8307 10.1416 16.841 10.1646 16.8509C10.1974 16.8651 10.2397 16.8826 10.2911 16.9022C10.3937 16.9413 10.533 16.989 10.7051 17.0352C11.0486 17.1276 11.5277 17.2159 12.107 17.2159C12.6666 17.2159 13.1409 17.1261 13.4787 17.0355C13.6485 16.9899 13.787 16.9433 13.8882 16.9057C13.9389 16.8869 13.9806 16.8702 14.0124 16.857L14.0184 16.8545L14.053 16.8396L14.0676 16.8331L14.0735 16.8305L14.0761 16.8293L14.0785 16.8282Z" fill="#1DC7D2"/>
<path d="M16.5896 16.733C15.9711 16.733 15.4696 17.2345 15.4696 17.853V19.4684C15.4696 20.087 15.9711 20.5884 16.5896 20.5884C17.2082 20.5884 17.7096 20.087 17.7096 19.4684V18.973H19.6696V24.6483H18.6896C18.0711 24.6483 17.5696 25.1497 17.5696 25.7683C17.5696 26.3869 18.0711 26.8883 18.6896 26.8883H22.8896C23.5082 26.8883 24.0096 26.3869 24.0096 25.7683C24.0096 25.1497 23.5082 24.6483 22.8896 24.6483H21.9096V18.973H23.8696V19.4684C23.8696 20.087 24.3711 20.5884 24.9896 20.5884C25.6082 20.5884 26.1096 20.087 26.1096 19.4684V17.853C26.1096 17.2345 25.6082 16.733 24.9896 16.733H16.5896Z" fill="#1DC7D2"/>
</svg>
