<svg width="43" height="42" viewBox="0 0 43 42" fill="none" xmlns="http://www.w3.org/2000/svg">
<path fill-rule="evenodd" clip-rule="evenodd" d="M19.6419 0.415039C20.6084 0.415039 21.3918 1.19854 21.3918 2.16505V5.94531H29.5964C32.3955 5.94531 34.6646 8.21436 34.6646 11.0134V14.3509C34.6646 15.3174 33.881 16.1009 32.9145 16.1009C31.9481 16.1009 31.1645 15.3174 31.1645 14.3509V11.0134C31.1645 10.1474 30.4625 9.44531 29.5964 9.44531H9.68795C8.82193 9.44531 8.11987 10.1474 8.11987 11.0134V26.4977C8.11987 27.3638 8.82193 28.0658 9.68795 28.0658H15.6209C16.5875 28.0658 17.3709 28.8494 17.3709 29.8158C17.3709 30.7823 16.5875 31.5659 15.6209 31.5659H9.68795C6.88892 31.5659 4.61987 29.2968 4.61987 26.4977V11.0134C4.61987 8.21436 6.88892 5.94531 9.68795 5.94531H17.8919V2.16505C17.8919 1.19854 18.6753 0.415039 19.6419 0.415039ZM16.0734 15.7241C16.0734 14.7576 15.29 13.9741 14.3235 13.9741C13.357 13.9741 12.5735 14.7576 12.5735 15.7241V17.9468C12.5735 18.9132 13.357 19.6968 14.3235 19.6968C15.29 19.6968 16.0734 18.9132 16.0734 17.9468V15.7241ZM26.7102 15.7241C26.7102 14.7576 25.9267 13.9741 24.9601 13.9741C23.9937 13.9741 23.2102 14.7576 23.2102 15.7241V17.9468C23.2102 18.9132 23.9937 19.6968 24.9601 19.6968C25.9267 19.6968 26.7102 18.9132 26.7102 17.9468V15.7241ZM22.9031 23.9897C23.7813 23.5862 24.1661 22.5471 23.7626 21.669C23.3616 20.7962 22.3317 20.4111 21.4569 20.8025C21.437 20.8406 21.1566 20.9061 21.1046 20.9183L21.0965 20.9201C20.817 20.9951 20.4152 21.0713 19.9458 21.0713C19.4316 21.0713 19.0208 20.9927 18.7521 20.9205C18.6183 20.8845 18.5219 20.8506 18.4683 20.8302C18.4446 20.8212 18.4296 20.8149 18.4236 20.8124C17.5574 20.4098 16.5255 20.777 16.1099 21.6405C15.6906 22.5113 16.0568 23.5571 16.9275 23.9763L16.9295 23.9772C16.9634 23.9936 16.9977 24.0089 17.0321 24.0239C17.0814 24.0452 17.1449 24.0713 17.2218 24.1007C17.3757 24.1593 17.5848 24.2309 17.843 24.3003C18.3581 24.4389 19.0769 24.5712 19.9458 24.5712C20.7851 24.5712 21.4967 24.4365 22.0032 24.3006C22.2581 24.2324 22.4658 24.1623 22.6176 24.1061C22.6937 24.0779 22.7561 24.0528 22.8039 24.0329L22.8129 24.0291L22.8647 24.0069L22.8867 23.9972L22.8956 23.9931L22.8995 23.9913L22.9031 23.9897ZM33.217 19.5336C33.8677 19.8924 34.2055 20.6361 34.0473 21.3623L32.8951 26.6526L37.3629 28.1913C37.9128 28.3808 38.3257 28.8411 38.4543 29.4084C38.5828 29.9757 38.4087 30.5693 37.9941 30.9773L27.7041 41.1023C27.1744 41.6234 26.3653 41.7347 25.7145 41.3759C25.0638 41.0171 24.7261 40.2734 24.8842 39.5472L26.0364 34.2567L21.5688 32.7182C21.0187 32.5287 20.6059 32.0684 20.4774 31.5009C20.3488 30.9336 20.5228 30.3402 20.9376 29.9322L31.2276 19.8072C31.7572 19.286 32.5663 19.1748 33.217 19.5336ZM25.2277 30.4247L28.5429 31.5663C29.3482 31.8437 29.8186 32.6799 29.6373 33.5123L29.3674 34.7519L33.7039 30.4848L30.3888 29.3432C29.5834 29.0658 29.113 28.2296 29.2942 27.3972L29.5642 26.1576L25.2277 30.4247Z" fill="#FFCF23"/>
</svg>
