<svg width="28" height="28" viewBox="0 0 28 28" fill="none" xmlns="http://www.w3.org/2000/svg">
<path fill-rule="evenodd" clip-rule="evenodd" d="M9.80033 3.5H9.75039H9.75038C8.48597 3.49999 7.46612 3.49998 6.64027 3.56745C5.78994 3.63693 5.04306 3.78371 4.35205 4.1358C3.25444 4.69506 2.36205 5.58744 1.80279 6.68506C1.4507 7.37606 1.30392 8.12295 1.23445 8.97327C1.16697 9.79913 1.16698 10.819 1.16699 12.0834V12.0834V12.1333V15.8667V15.9166C1.16698 17.181 1.16697 18.2009 1.23445 19.0267C1.30392 19.8771 1.4507 20.6239 1.80279 21.3149C2.36205 22.4126 3.25444 23.3049 4.35205 23.8642C5.04306 24.2163 5.78994 24.3631 6.64027 24.4325C7.46609 24.5 8.48589 24.5 9.75024 24.5H9.75036H9.80033H18.2003H18.2503H18.2504C19.5148 24.5 20.5346 24.5 21.3604 24.4325C22.2107 24.3631 22.9576 24.2163 23.6486 23.8642C24.7462 23.3049 25.6386 22.4126 26.1979 21.3149C26.55 20.6239 26.6967 19.8771 26.7662 19.0267C26.8337 18.2009 26.8337 17.1811 26.8337 15.9168V15.9166V15.8667V12.1333V12.0834V12.0832C26.8337 10.8189 26.8337 9.7991 26.7662 8.97327C26.6967 8.12295 26.55 7.37606 26.1979 6.68506C25.6386 5.58744 24.7462 4.69506 23.6486 4.1358C22.9576 3.78371 22.2107 3.63693 21.3604 3.56745C20.5345 3.49998 19.5147 3.49999 18.2503 3.5H18.2003H9.80033ZM5.41136 6.21481C5.71861 6.05826 6.12424 5.95072 6.83027 5.89304C7.54992 5.83424 8.47429 5.83333 9.80033 5.83333H18.2003C19.5264 5.83333 20.4507 5.83424 21.1704 5.89304C21.8764 5.95072 22.282 6.05826 22.5893 6.21481C23.2479 6.55037 23.7833 7.0858 24.1188 7.74437C24.2754 8.05162 24.3829 8.45725 24.4406 9.16328C24.4994 9.88293 24.5003 10.8073 24.5003 12.1333V15.8667C24.5003 17.1927 24.4994 18.1171 24.4406 18.8367C24.3829 19.5427 24.2754 19.9484 24.1188 20.2556C23.7833 20.9142 23.2479 21.4496 22.5893 21.7852C22.282 21.9417 21.8764 22.0493 21.1704 22.107C20.4507 22.1658 19.5264 22.1667 18.2003 22.1667H9.80033C8.47429 22.1667 7.54992 22.1658 6.83027 22.107C6.12424 22.0493 5.71861 21.9417 5.41136 21.7852C4.75279 21.4496 4.21736 20.9142 3.8818 20.2556C3.72525 19.9484 3.61772 19.5427 3.56003 18.8367C3.50123 18.1171 3.50033 17.1927 3.50033 15.8667V12.1333C3.50033 10.8073 3.50123 9.88293 3.56003 9.16328C3.61772 8.45725 3.72525 8.05162 3.8818 7.74437C4.21736 7.0858 4.75279 6.55037 5.41136 6.21481ZM7.64748 8.36261C7.11136 8.0052 6.38701 8.15007 6.0296 8.68618C5.67219 9.2223 5.81706 9.94665 6.35318 10.3041L13.3532 14.9707C13.7451 15.232 14.2556 15.232 14.6475 14.9707L21.6475 10.3041C22.1836 9.94665 22.3285 9.2223 21.9711 8.68618C21.6136 8.15007 20.8893 8.0052 20.3532 8.36261L14.0003 12.5978L7.64748 8.36261Z" fill="#FF76DF"/>
</svg>
