<svg width="43" height="42" viewBox="0 0 43 42" fill="none" xmlns="http://www.w3.org/2000/svg">
<path d="M39.9329 21C39.9329 31.1483 31.7061 39.375 21.5579 39.375C11.4096 39.375 3.18286 31.1483 3.18286 21C3.18286 10.8518 11.4096 2.625 21.5579 2.625C31.7061 2.625 39.9329 10.8518 39.9329 21Z" fill="url(#paint0_linear_2041_26345)"/>
<path d="M28.4008 26.6196L29.2171 21.4333H24.1109V18.0692C24.1109 16.65 24.823 15.2658 27.11 15.2658H29.4329V10.8504C29.4329 10.8504 27.3256 10.5 25.312 10.5C21.1048 10.5 18.3576 12.9845 18.3576 17.4804V21.4333H13.6829V26.6196H18.3576V39.1578C19.296 39.3015 20.2561 39.375 21.2342 39.375C22.2123 39.375 23.1725 39.3015 24.1109 39.1578V26.6196H28.4008Z" fill="white"/>
<defs>
<linearGradient id="paint0_linear_2041_26345" x1="21.5579" y1="2.625" x2="21.5579" y2="39.2661" gradientUnits="userSpaceOnUse">
<stop stop-color="#18ACFE"/>
<stop offset="1" stop-color="#0163E0"/>
</linearGradient>
</defs>
</svg>
