<svg width="43" height="42" viewBox="0 0 43 42" fill="none" xmlns="http://www.w3.org/2000/svg">
<path fill-rule="evenodd" clip-rule="evenodd" d="M23.2953 2.55414C22.2294 1.94933 20.9241 1.94871 19.8578 2.55254L5.91348 10.4478C4.82073 11.0665 4.14526 12.2252 4.14526 13.4809V28.1944C4.14526 29.4283 4.79772 30.5704 5.86075 31.1969L19.805 39.4172C20.8982 40.0616 22.2554 40.061 23.348 39.4156L37.2602 31.1965C38.3216 30.5693 38.9729 29.4283 38.9729 28.1954V13.4799C38.9729 12.2253 38.2986 11.0675 37.2074 10.4483L23.2953 2.55414ZM9.42483 12.4652L21.5751 5.58567L25.514 7.82072L13.199 14.489L9.42483 12.4652ZM16.877 16.4612L29.0885 9.84897L33.6821 12.4556L21.6038 18.9958L16.877 16.4612ZM7.63084 15.4583V28.1944L19.8134 35.3759V21.9908L7.63084 15.4583ZM23.2989 22.0417V35.3962L35.4872 28.1954V15.4418L23.2989 22.0417Z" fill="#7CBF64"/>
</svg>
