<svg width="28" height="28" viewBox="0 0 28 28" fill="none" xmlns="http://www.w3.org/2000/svg">
<path fill-rule="evenodd" clip-rule="evenodd" d="M20.1494 3.15005C20.6499 3.1483 21.1459 3.24559 21.6087 3.43633C22.0724 3.62741 22.4937 3.90849 22.8483 4.26336C23.2029 4.61823 23.4837 5.03986 23.6747 5.50392C23.8653 5.96717 23.9625 6.46355 23.9607 6.96452C23.9607 6.96539 23.9607 6.96626 23.9607 6.96713L22.7887 6.96222H23.9607V6.96452V19.2785C23.9607 19.9263 23.436 20.4514 22.7887 20.4514C22.1414 20.4514 21.6166 19.9263 21.6166 19.2785V6.9573C21.6175 6.76517 21.5802 6.57478 21.5071 6.39713C21.4341 6.21947 21.3265 6.05805 21.1908 5.9222C21.055 5.78634 20.8938 5.67873 20.7162 5.60558C20.5387 5.53243 20.3485 5.49518 20.1565 5.49599L20.1516 5.496H5.20817C4.56087 5.496 4.03613 4.97084 4.03613 4.32302C4.03613 3.67521 4.56087 3.15005 5.20817 3.15005H20.1494ZM20.1494 3.15005C20.1485 3.15005 20.1476 3.15005 20.1467 3.15006L20.1516 4.32302V3.15005H20.1494Z" fill="#00CDFA"/>
<path fill-rule="evenodd" clip-rule="evenodd" d="M11.0693 11.3615C11.0693 10.7136 11.5941 10.1885 12.2414 10.1885H19.2736C19.9209 10.1885 20.4456 10.7136 20.4456 11.3615C20.4456 12.0093 19.9209 12.5344 19.2736 12.5344H12.2414C11.5941 12.5344 11.0693 12.0093 11.0693 11.3615Z" fill="#00CDFA"/>
<path fill-rule="evenodd" clip-rule="evenodd" d="M11.0693 14.8793C11.0693 14.2315 11.5941 13.7063 12.2414 13.7063H19.2736C19.9209 13.7063 20.4456 14.2315 20.4456 14.8793C20.4456 15.5271 19.9209 16.0522 19.2736 16.0522H12.2414C11.5941 16.0522 11.0693 15.5271 11.0693 14.8793Z" fill="#00CDFA"/>
<path fill-rule="evenodd" clip-rule="evenodd" d="M5.38341 5.50775C5.14769 5.47954 4.90865 5.50909 4.68687 5.59385C4.46509 5.67861 4.26721 5.81603 4.11027 5.9943C3.95332 6.17257 3.84202 6.38634 3.78593 6.6172C3.72985 6.84807 3.73066 7.08911 3.7883 7.3196C3.84594 7.55008 3.95868 7.76309 4.11682 7.94029C4.54801 8.42346 4.50619 9.16496 4.02341 9.59649C3.54064 10.028 2.79972 9.98617 2.36854 9.50301C1.95737 9.04228 1.66424 8.48845 1.51437 7.8892C1.36451 7.28994 1.36239 6.66322 1.50822 6.06297C1.65404 5.46272 1.94344 4.90692 2.35149 4.44343C2.75954 3.97993 3.27402 3.62262 3.85065 3.40225C4.42728 3.18188 5.04879 3.10505 5.66166 3.17838C6.27454 3.25171 6.86044 3.473 7.36891 3.8232C7.87738 4.1734 8.29321 4.64202 8.58058 5.18872C8.86796 5.73542 9.01828 6.34382 9.01861 6.96156V21.0373C9.01874 21.2748 9.07656 21.5089 9.18709 21.7191C9.29762 21.9294 9.45755 22.1096 9.65312 22.2443C9.84868 22.379 10.074 22.4641 10.3097 22.4923C10.5455 22.5205 10.7845 22.491 11.0063 22.4062C11.2281 22.3215 11.426 22.184 11.5829 22.0058C11.7398 21.8275 11.8511 21.6137 11.9072 21.3829C11.9633 21.152 11.9625 20.911 11.9049 20.6805C11.8472 20.45 11.7345 20.237 11.5763 20.0598C11.2686 19.7149 11.192 19.2212 11.3807 18.7992C11.5695 18.3771 11.9884 18.1054 12.4505 18.1054H24.7568C25.0904 18.1054 25.4081 18.2477 25.6304 18.4964C26.1207 19.0451 26.4419 19.724 26.555 20.4513C26.6682 21.1786 26.5685 21.9232 26.2681 22.595C25.9677 23.2669 25.4794 23.8373 24.8621 24.2375C24.2449 24.6376 23.5253 24.8503 22.79 24.8501C22.7898 24.8501 22.7902 24.8501 22.79 24.8501H10.4837C10.4602 24.8501 10.4369 24.8494 10.4138 24.848C10.2863 24.8457 10.1587 24.8369 10.0315 24.8217C9.41861 24.7484 8.83272 24.5271 8.32425 24.1769C7.81578 23.8267 7.39995 23.3581 7.11258 22.8114C6.8252 22.2647 6.67488 21.6563 6.67455 21.0385V6.96281C6.67432 6.72544 6.6165 6.49104 6.50607 6.28095C6.39554 6.07068 6.23561 5.89044 6.04004 5.75575C5.84448 5.62106 5.61913 5.53595 5.38341 5.50775ZM13.9992 22.5041H22.79C23.0729 22.5042 23.3503 22.4224 23.5877 22.2685C23.8252 22.1146 24.013 21.8952 24.1285 21.6368C24.2441 21.3784 24.2824 21.092 24.2389 20.8123C24.2194 20.6873 24.184 20.5661 24.134 20.4514H14.2476C14.3242 20.9448 14.3034 21.4497 14.1849 21.9371C14.1378 22.1313 14.0756 22.3208 13.9992 22.5041Z" fill="#00CDFA"/>
</svg>
